<?xml version="1.0" ?>
<!--    This set of SVG files contains images of playing cards' backs		-->
<!--    adapted from version 1.1 of the upstream project			-->
<!--    <https://sourceforge.net/projects/svg-cards/>				-->
<!--    									-->
<!--    Copyright (C) 2004 David Bellot						-->
<!--    Copyright © 2017,2019 Stan Livitski					-->
<!--										-->
<!--    This library is free software; you can redistribute it and/or		-->
<!--    modify it under the terms of the GNU Lesser General Public		-->
<!--    License as published by the Free Software Foundation; either		-->
<!--    version 3 of the License, or (at your option) any later version		-->
<!--										-->
<!--    This library is distributed in the hope that it will be useful,		-->
<!--    but WITHOUT ANY WARRANTY; without even the implied warranty of		-->
<!--    MERCHANTABILITY or FITNESS FOR A PARTICULAR PURPOSE.  See the GNU	-->
<!--    Lesser General Public License for more details.				-->
<!--										-->
<!--    You should have received a copy of the GNU Lesser General Public	-->
<!--    License along with this library; if not, write to the Free Software	-->
<!--    Foundation, Inc., 59 Temple Place, Suite 330, Boston, MA 02111-1307  USA-->
<!--										-->
<svg height="242.6669922pt" preserveAspectRatio="none" viewBox="0.000000 0.000000 328.629639 242.666992" width="337.4902803222665pt" xml:space="preserve" xmlns="http://www.w3.org/2000/svg" xmlns:xlink="http://www.w3.org/1999/xlink">
 <use height="243" width="5" x="0" xlink:href="#clip-5x243" y="0"/>
 <use height="243" width="10" x="5" xlink:href="#clip-10x243" y="0"/>
 <use height="243" width="21" x="15" xlink:href="#clip-21x243" y="0"/>
 <use height="243" width="42" x="36" xlink:href="#clip-42x243" y="0"/>
 <use height="242.6669922" width="83.5432129" x="78" xlink:href="#clip-83.5432129x242.6669922" y="0"/>
 <use height="242.6669922" width="167.0864258" x="161.54321290000001" xlink:href="#image-167.0864258x242.6669922" y="0"/>
 <defs>
  <style>
   .st1 { fill-rule:evenodd;clip-rule:evenodd;stroke:none; }
   .st2 { fill-rule:evenodd;clip-rule:evenodd;fill:#190C80;stroke:none; }
  </style>
  <svg height="243" id="clip-5x243" viewBox="0.000000 0.000000 5.000000 243.000000" width="5">
   <g style="fill-rule:nonzero;clip-rule:nonzero;fill:#FFFFFF;stroke:#000000;stroke-miterlimit:4;">
    <path d="M 7.0,0.25089762026253126 L 7.0,242.41609486154312 L 7.000000000000014,242.4160948615431 C 3.2759321863961723,242.35602694200412 0.25,239.2879943492419 0.25,235.5478516 L 0.25,7.1196289 C 0.25,3.3799695427486802 3.2759321863961706,0.31098434993944235 7.000000000000009,0.2508976202625374 Z" style="stroke-width:0.5;"/>
    <path d="M 7.0,4.572753899999999 L 7.0,236.57324220000004 L 7.00000000000001,236.5732422 L 4.482421899999991,236.5732422 L 4.4824219,236.5732422 L 4.4824219,4.5727539 L 6.999999999999993,4.5727539 Z" style="fill-rule:evenodd;clip-rule:evenodd;fill:none;stroke:#1E0C7D;stroke-width:3;stroke-linejoin:round;stroke-miterlimit:10;"/>
   </g>
  </svg>
  <svg height="243" id="clip-10x243" viewBox="0.000000 0.000000 10.000000 243.000000" width="10">
   <g style="fill-rule:nonzero;clip-rule:nonzero;fill:#FFFFFF;stroke:#000000;stroke-miterlimit:4;">
    <path d="M 12.0,0.2499999999999991 L 12.0,242.41699219999998 L 11.999999999999998,242.4169922 L 7.111328100000009,242.4169922 L 7.1113281,242.4169922 C 3.3364257999999998,242.4169922 0.25,239.32519530000002 0.25,235.5478516 L 0.25,7.1196289 C 0.25,3.3427734 3.3364258,0.25 7.1113281,0.25 L 12.000000000000004,0.25 Z" style="stroke-width:0.5;"/>
    <path class="st1" d="M 12.0,121.20898429999998 L 12.0,83.9130859 L 11.999999999999998,83.9130859 L 8.7983398,83.9130859 L 8.7983398,121.2089843 L 12.000000000000004,121.2089843 Z"/>
    <path class="st2" d="M 12.0,83.91308589999998 L 12.0,46.616210899999984 L 11.999999999999996,46.6162109 L 8.7983398,46.6162109 L 8.7983398,83.9130859 L 12.000000000000005,83.9130859 Z"/>
    <path class="st1" d="M 12.0,46.6162109 L 12.0,9.3193359 L 11.999999999999995,9.3193359 L 8.7983398,9.3193359 L 8.7983398,46.6162109 L 12.000000000000004,46.6162109 Z"/>
    <path class="st2" d="M 12.0,233.11914059999998 L 12.0,195.81250000000006 L 12.000000000000005,195.8125 L 8.7983398,195.8125 L 8.7983398,233.1191406 L 12.000000000000005,233.1191406 Z"/>
    <path class="st1" d="M 12.0,195.81250000000006 L 12.0,158.515625 L 11.999999999999998,158.515625 L 8.7983398,158.515625 L 8.7983398,195.8125 L 11.999999999999995,195.8125 Z"/>
    <path class="st2" d="M 12.0,158.515625 L 12.0,121.20898440000002 L 12.0,121.20898439999999 L 8.7983398,121.20898439999999 L 8.7983398,158.515625 L 12.000000000000005,158.515625 Z"/>
    <path class="st2" d="M 12.0,113.3327736538334 L 12.0,119.78077140495726 L 11.999999999999998,119.78077140495724 L 8.798339899999998,116.56152349999999 L 11.999999999999998,113.3327736538334 Z"/>
    <path class="st1" d="M 12.0,54.511437928371464 L 12.0,48.05087621460186 L 8.798339899999998,51.2846679 L 12.0,54.51143792837148 Z"/>
    <path class="st2" d="M 12.0,38.72098387162851 L 12.0,45.18154558539812 L 11.999999999999998,45.18154558539814 L 8.798339899999998,41.947753899999995 Z"/>
    <path class="st1" d="M 12.0,225.2225077979838 L 12.0,231.6843252257375 L 12.0,231.68432522573752 L 8.798339899999998,228.45019530000002 Z"/>
    <path class="st2" d="M 12.0,166.41129203820287 L 12.0,159.95044037426248 L 8.798339899999998,163.1845703 L 11.999999999999998,166.4112920382029 Z"/>
    <path class="st1" d="M 12.0,150.62867205383338 L 12.0,157.0841108153474 L 12.0,157.08411081534737 L 8.798339899999998,153.8574219 Z"/>
    <path class="st2" d="M 12.0,91.79809658235331 L 12.0,85.34429999606239 L 8.798339899999998,88.5703125 Z"/>
    <path class="st2" d="M 12.0,105.78870106412613 L 12.0,99.34063879441291 L 12.0,99.34063879441292 L 8.7983398,102.5654297 L 12.000000000000002,105.7887010641261 Z"/>
    <path class="st1" d="M 12.0,76.01697885196565 L 12.0,82.47812046607687 L 12.000000000000002,82.47812046607687 L 8.798339899999998,79.2436523 L 11.999999999999998,76.01697885196562 Z"/>
    <path class="st1" d="M 12.0,62.04457156799876 L 12.0,68.49280264683716 L 12.000000000000004,68.49280264683718 L 8.7983398,65.2695313 L 12.000000000000002,62.04457156799877 Z"/>
    <path class="st2" d="M 12.0,17.196083236335156 L 12.0,10.747698954703397 L 12.0,10.747698954703395 L 8.798339899999998,13.967285100000002 Z"/>
    <path class="st2" d="M 12.0,31.19592766412611 L 12.0,24.74769655070984 L 12.000000000000004,24.74769655070984 L 8.7983398,27.972656299999997 L 8.7983398,27.9726563 L 11.999999999999998,31.195927664126106 Z"/>
    <path class="st1" d="M 12.0,203.7082528823534 L 12.0,197.24701528567223 L 12.0,197.24701528567226 L 8.798339899999998,200.4804688 L 12.0,203.70825288235332 Z"/>
    <path class="st1" d="M 12.0,217.6818950435794 L 12.0,211.23197557957698 L 8.7983398,214.4550781 L 12.000000000000002,217.68189504357943 Z"/>
    <path class="st2" d="M 12.0,173.94398556799874 L 12.0,180.39221666412604 L 12.000000000000004,180.3922166641261 L 8.7983398,177.1689453 L 12.000000000000002,173.94398556799877 Z"/>
    <path class="st1" d="M 12.0,129.10561720201622 L 12.0,122.64379977426252 L 12.0,122.64379977426249 L 8.798339899999998,125.8779297 L 12.0,129.1056172020162 Z"/>
    <path class="st1" d="M 12.0,143.08726443200123 L 12.0,136.63734496799876 L 11.999999999999998,136.63734496799879 L 8.7983398,139.8623047 L 12.000000000000002,143.08726443200123 Z"/>
    <path class="st2" d="M 12.0,187.9168329617971 L 12.0,194.37768462573752 L 8.798339899999998,191.1435547 L 12.0,187.91683296179707 Z"/>
    <path d="M 12.0,4.5727538999999995 L 12.0,236.5732422 L 12.000000000000005,236.5732422 L 4.482421899999991,236.5732422 L 4.4824219,236.5732422 L 4.4824219,4.5727539 L 12.0,4.5727539 Z" style="fill-rule:evenodd;clip-rule:evenodd;fill:none;stroke:#1E0C7D;stroke-width:3;stroke-linejoin:round;stroke-miterlimit:10;"/>
   </g>
  </svg>
  <svg height="243" id="clip-21x243" viewBox="0.000000 0.000000 21.000000 243.000000" width="21">
   <g style="fill-rule:nonzero;clip-rule:nonzero;fill:#FFFFFF;stroke:#000000;stroke-miterlimit:4;">
    <path d="M 23.0,0.24999999999999956 L 23.0,242.4169922 L 22.999999999999986,242.4169922 L 7.111328100000009,242.4169922 L 7.1113281,242.4169922 C 3.3364257999999998,242.4169922 0.25,239.32519530000002 0.25,235.5478516 L 0.25,7.1196289 C 0.25,3.3427734 3.3364258,0.25 7.1113281,0.25 L 23.000000000000014,0.25 Z" style="stroke-width:0.5;"/>
    <path class="st1" d="M 23.0,121.20898429999994 L 23.0,83.9130859 L 22.999999999999993,83.9130859 L 8.7983398,83.9130859 L 8.7983398,121.2089843 L 23.0,121.2089843 Z"/>
    <path class="st2" d="M 23.0,83.9130859 L 23.0,46.616210899999984 L 23.000000000000007,46.6162109 L 8.7983398,46.6162109 L 8.7983398,83.9130859 Z"/>
    <path class="st1" d="M 23.0,46.616210899999984 L 23.0,9.319335899999999 L 23.000000000000007,9.3193359 L 8.7983398,9.3193359 L 8.7983398,46.6162109 L 23.0,46.6162109 Z"/>
    <path class="st2" d="M 23.0,233.1191406 L 23.0,195.8125 L 23.000000000000007,195.8125 L 8.7983398,195.8125 L 8.7983398,233.1191406 Z"/>
    <path class="st1" d="M 23.0,195.8125 L 23.0,158.51562499999997 L 23.0,158.515625 L 8.7983398,158.515625 L 8.7983398,195.8125 L 23.000000000000007,195.8125 Z"/>
    <path class="st2" d="M 23.0,158.51562499999997 L 23.0,121.20898439999999 L 23.000000000000007,121.20898439999999 L 8.7983398,121.20898439999999 L 8.7983398,158.515625 L 23.0,158.515625 Z"/>
    <path class="st2" d="M 23.0,102.23970093576673 L 23.0,111.55399660801282 L 23.0,111.55399660801284 L 13.4204102,121.20898439999999 L 8.798339899999998,116.56152349999999 L 22.999999999999996,102.23970093576673 Z"/>
    <path class="st1" d="M 13.4204102,46.6162109 L 8.798339899999998,51.2846679 L 22.999999999999996,65.5977085515667 L 23.0,65.59770855156674 L 23.0,56.26787654883347 Z"/>
    <path class="st2" d="M 23.0,27.634713248433297 L 23.0,36.958189857161734 L 23.0,36.95818985716172 L 13.4204102,46.6162109 L 8.798339899999998,41.947753899999995 L 22.999999999999996,27.634713248433293 Z"/>
    <path class="st1" d="M 13.4204102,233.1191406 L 8.798339899999998,228.45019530000002 L 23.0,214.1330849944269 L 23.0,214.13308499442692 L 23.0,223.46415290801284 L 23.000000000000007,223.46415290801284 L 13.4204102,233.1191407 Z"/>
    <path class="st2" d="M 23.0,177.49739675001547 L 23.0,168.16743509498477 L 13.4204102,158.515625 L 8.798339899999998,163.1845703 L 22.999999999999993,177.49739675001544 Z"/>
    <path class="st1" d="M 13.4204102,158.515625 L 8.798339899999998,153.8574219 L 22.999999999999993,139.53559933576673 L 23.0,139.53559933576676 L 23.0,148.8609261003154 Z"/>
    <path class="st2" d="M 13.4204102,83.9130859 L 8.798339899999998,88.5703125 L 22.999999999999996,102.8878512086756 L 23.0,102.8878512086756 L 23.0,93.57096252626843 Z"/>
    <path class="st2" d="M 23.0,116.86295091905673 L 23.0,88.26116822428253 L 8.7983398,102.5654297 Z"/>
    <path class="st1" d="M 23.0,64.93104005153579 L 23.0,74.26113135886398 L 23.0,74.26113135886396 L 13.4204102,83.9130859 L 8.798339899999998,79.2436523 L 23.0,64.93104005153577 Z"/>
    <path class="st1" d="M 23.0,50.96452095800164 L 23.0,79.56705244236794 L 23.0,79.56705244236792 L 8.7983398,65.2695313 L 23.0,50.96452095800165 Z"/>
    <path class="st2" d="M 13.4204102,9.3193359 L 8.798339899999998,13.967285100000002 L 22.999999999999996,28.289321865784505 L 23.0,28.28932186578451 L 23.0,18.971290441136023 L 22.999999999999993,18.97129044113602 L 13.4204102,9.319335899999999 Z"/>
    <path class="st2" d="M 23.0,42.270177519056745 L 23.0,13.667645881312836 L 23.0,13.66764588131284 L 8.7983398,27.972656299999997 L 8.7983398,27.9726563 L 22.999999999999996,42.27017751905674 Z"/>
    <path class="st1" d="M 23.0,214.79800750867565 L 23.0,205.46719889968458 L 23.0,205.4671988996846 L 13.4204102,195.8125 L 8.798339899999998,200.4804688 L 23.0,214.7980075086756 Z"/>
    <path class="st1" d="M 23.0,228.76832650790962 L 23.0,200.15830582391294 L 8.7983398,214.4550781 L 22.999999999999993,228.76832650790965 Z"/>
    <path class="st2" d="M 23.0,162.86393495800166 L 23.0,191.46646651905675 L 23.0,191.46646651905672 L 8.7983398,177.1689453 Z"/>
    <path class="st1" d="M 23.0,140.1950400055731 L 23.0,130.86686099668694 L 23.0,130.866860996687 L 13.4204102,121.20898439999999 L 8.798339899999998,125.8779297 Z"/>
    <path class="st1" d="M 23.0,154.16731504199836 L 23.0,125.55729435800167 L 8.7983398,139.8623047 L 23.0,154.16731504199834 Z"/>
    <path class="st1" d="M 23.0,111.8925781 L 23.0,92.6606445 L 22.999999999999996,92.6606445 L 18.0522461,92.6606445 L 18.0522461,111.89257810000001 L 23.0,111.89257810000001 Z"/>
    <path class="st2" d="M 23.0,105.21779368071978 L 23.0,99.91325066320896 L 23.0,99.91325066320897 L 20.368164,102.5654297 L 23.000000000000004,105.21779368071981 Z"/>
    <path class="st2" d="M 23.0,74.58593749999999 L 23.0,55.36425779999998 L 23.0,55.3642578 L 18.0522461,55.3642578 L 18.0522461,74.5859375 L 23.000000000000004,74.5859375 Z"/>
    <path class="st1" d="M 23.0,62.6210509902846 L 23.0,67.91394299478219 L 22.999999999999996,67.91394299478218 L 20.368164,65.2695313 Z"/>
    <path class="st1" d="M 23.0,37.279296900000006 L 23.0,18.057617200000003 L 23.0,18.0576172 L 18.0522461,18.0576172 L 18.0522461,37.2792969 L 23.000000000000004,37.2792969 Z"/>
    <path class="st2" d="M 23.0,30.61336916770655 L 23.0,25.320477163208974 L 23.0,25.32047716320898 L 20.368164,27.972656200000003 Z"/>
    <path class="st2" d="M 23.0,224.36035160000003 L 23.0,205.1494141 L 18.0522461,205.1494141 L 18.0522461,224.3603516 L 23.0,224.3603516 Z"/>
    <path class="st1" d="M 23.0,217.10744208071966 L 23.0,211.8108513491466 L 20.368164,214.45507809999998 L 23.0,217.1074420807198 Z"/>
    <path class="st2" d="M 23.0,149.76757809999998 L 23.0,130.5263672 L 18.0522461,130.5263672 L 18.0522461,149.7675781 L 22.999999999999996,149.7675781 Z"/>
    <path class="st1" d="M 23.0,142.51429879286226 L 23.0,137.21031060713779 L 23.0,137.21031060713776 L 20.368164,139.86230469999998 L 23.000000000000004,142.5142987928622 Z"/>
    <path class="st2" d="M 13.4204102,195.8125 L 8.798339899999998,191.1435547 L 23.0,176.83072824998453 L 23.0,176.83072824998456 L 23.0,186.16068990501523 L 22.999999999999996,186.16068990501526 Z"/>
    <path class="st1" d="M 23.0,187.0742188 L 23.0,167.84277350000005 L 23.0,167.84277350000002 L 18.0522461,167.84277350000002 L 18.0522461,187.0742188 L 23.000000000000007,187.0742188 Z"/>
    <path class="st2" d="M 23.0,174.51695120713774 L 23.0,179.81724066578656 L 23.0,179.81724066578658 L 20.368164,177.1689453 L 23.0,174.51695120713777 Z"/>
    <path d="M 23.0,4.572753900000001 L 23.0,236.57324220000004 L 23.000000000000004,236.5732422 L 4.482421899999991,236.5732422 L 4.4824219,236.5732422 L 4.4824219,4.5727539 L 23.00000000000002,4.5727539 Z" style="fill-rule:evenodd;clip-rule:evenodd;fill:none;stroke:#1E0C7D;stroke-width:3;stroke-linejoin:round;stroke-miterlimit:10;"/>
   </g>
  </svg>
  <svg height="243" id="clip-42x243" viewBox="0.000000 0.000000 42.000000 243.000000" width="42">
   <g style="fill-rule:nonzero;clip-rule:nonzero;fill:#FFFFFF;stroke:#000000;stroke-miterlimit:4;">
    <path d="M 44.0,0.2500000000000009 L 44.0,242.41699219999998 L 44.00000000000001,242.4169922 L 7.111328100000009,242.4169922 L 7.1113281,242.4169922 C 3.3364257999999998,242.4169922 0.25,239.32519530000002 0.25,235.5478516 L 0.25,7.1196289 C 0.25,3.3427734 3.3364258,0.25 7.1113281,0.25 L 43.99999999999999,0.25 Z" style="stroke-width:0.5;"/>
    <path class="st1" d="M 44.0,121.2089843 L 44.0,83.9130859 L 44.00000000000001,83.9130859 L 8.7983398,83.9130859 L 8.7983398,121.2089843 L 44.00000000000001,121.2089843 Z"/>
    <path class="st2" d="M 44.0,83.9130859 L 44.0,46.61621089999999 L 44.0,46.6162109 L 8.7983398,46.6162109 L 8.7983398,83.9130859 Z"/>
    <path class="st1" d="M 44.0,46.61621089999999 L 44.0,9.319335899999995 L 44.0,9.3193359 L 8.7983398,9.3193359 L 8.7983398,46.6162109 L 44.0,46.6162109 Z"/>
    <path class="st2" d="M 44.0,233.1191406 L 44.0,195.81250000000003 L 44.00000000000001,195.8125 L 8.7983398,195.8125 L 8.7983398,233.1191406 Z"/>
    <path class="st1" d="M 44.0,195.81250000000003 L 44.0,158.515625 L 8.7983398,158.515625 L 8.7983398,195.8125 L 44.0,195.8125 Z"/>
    <path class="st2" d="M 44.0,158.515625 L 44.0,121.20898440000002 L 44.00000000000001,121.20898439999999 L 8.7983398,121.20898439999999 L 8.7983398,158.515625 Z"/>
    <path class="st2" d="M 41.1728516,83.9130859 L 44.0,86.75603175151261 L 44.0,86.75603175151255 L 44.0,90.38871209533673 L 44.0,90.38871209533671 L 13.4204102,121.20898439999999 L 8.798339899999998,116.56152349999999 L 41.1728516,83.91308599999999 Z"/>
    <path class="st1" d="M 13.4204102,46.6162109 L 8.798339899999998,51.2846679 L 41.1728516,83.9130859 L 44.0,81.06268843769195 L 44.0,81.06268843769188 L 44.0,77.42587838994599 Z"/>
    <path class="st2" d="M 41.1728516,9.3193359 L 44.0,12.156618478473064 L 44.0,12.156618478473067 L 44.0,15.78625597126571 L 13.4204102,46.6162109 L 8.798339899999998,41.947753899999995 L 41.1728516,9.319335899999992 Z"/>
    <path class="st1" d="M 13.4204102,233.1191406 L 8.798339899999998,228.45019530000002 L 41.1728516,195.8125 L 44.0,198.6620032934301 L 44.0,198.66200329343016 L 44.0,202.2988683953367 L 44.0,202.29886839533674 L 13.4204102,233.1191407 Z"/>
    <path class="st2" d="M 41.1728516,195.8125 L 44.0,192.96240061433252 L 44.0,192.96240061433264 L 44.0,189.32575358526918 L 44.0,189.32575358526915 L 13.4204102,158.515625 L 8.798339899999998,163.1845703 Z"/>
    <path class="st1" d="M 13.4204102,158.515625 L 8.798339899999998,153.8574219 L 41.1728516,121.20898439999999 L 44.0,124.05908378566748 L 44.0,124.0590837856675 L 44.0,127.69627488598303 L 43.99999999999999,127.69627488598299 Z"/>
    <path class="st2" d="M 13.4204102,83.9130859 L 8.798339899999998,88.5703125 L 41.1728516,121.20898439999999 L 44.0,118.3719998981675 L 44.0,118.37199989816757 L 44.0,114.74257982783985 Z"/>
    <path class="st2" d="M 27.3168945,83.9130859 L 8.7983398,102.5654297 L 27.3168945,121.20898439999999 L 44.0,104.38487753302545 L 44.0,104.38487753302547 L 44.0,100.74512412770721 L 44.0,100.74512412770719 Z"/>
    <path class="st1" d="M 41.1728516,46.6162109 L 44.0,49.46601220902692 L 44.0,49.466012209026935 L 44.0,53.102496219407726 L 44.00000000000001,53.102496219407726 L 13.4204102,83.9130859 L 8.798339899999998,79.2436523 L 41.1728516,46.61621089999999 Z"/>
    <path class="st1" d="M 27.3168945,46.6162109 L 44.0,63.44913032985024 L 44.0,63.449130329850234 L 44.0,67.08897903302545 L 27.3168945,83.9130859 L 8.7983398,65.2695313 L 27.3168945,46.61621099999999 Z"/>
    <path class="st2" d="M 13.4204102,9.3193359 L 8.798339899999998,13.967285100000002 L 41.1728516,46.6162109 L 44.0,43.76640959097308 L 44.0,40.12992558059225 L 44.0,40.129925580592264 L 13.4204102,9.319335899999999 Z"/>
    <path class="st2" d="M 27.3168945,9.3193359 L 8.7983398,27.972656299999997 L 8.7983398,27.9726563 L 27.3168945,46.616211 L 44.0,29.79210413302545 L 44.0,29.792104133025457 L 44.0,26.152255420091123 L 44.0,26.152255420091116 L 27.3168945,9.319335900000002 Z"/>
    <path class="st1" d="M 41.1728516,233.1191406 L 44.0,230.26904121433253 L 44.0,230.26904121433256 L 44.0,226.63185011401703 L 13.4204102,195.8125 L 8.798339899999998,200.4804688 L 41.1728516,233.1191407 Z"/>
    <path class="st1" d="M 27.3168945,233.1191406 L 44.0,216.27652731489016 L 44.0,216.2765273148902 L 44.0,212.63572557459062 L 44.0,212.63572557459065 L 27.3168945,195.8125 L 8.7983398,214.4550781 Z"/>
    <path class="st2" d="M 27.3168945,195.8125 L 8.7983398,177.1689453 L 27.3168945,158.515625 L 44.0,175.34854442985022 L 44.0,178.98839313302543 L 44.0,178.98839313302545 Z"/>
    <path class="st1" d="M 41.1728516,158.515625 L 44.0,155.67208305625002 L 44.0,152.03847823341115 L 13.4204102,121.20898439999999 L 8.798339899999998,125.8779297 Z"/>
    <path class="st1" d="M 27.3168945,158.515625 L 44.0,141.68270557014978 L 44.0,138.04190382985027 L 44.00000000000001,138.04190382985024 L 27.3168945,121.2089844 L 8.7983398,139.8623047 Z"/>
    <path class="st1" d="M 36.5507813,111.8925781 L 36.5507813,92.6606445 L 18.0522461,92.6606445 L 18.0522461,111.89257810000001 L 36.5507813,111.89257810000001 Z"/>
    <path class="st2" d="M 27.3168945,95.5629883 L 20.368164,102.5654297 L 27.3168945,109.56835939999999 L 34.234375,102.5654297 Z"/>
    <path class="st2" d="M 36.5507813,74.5859375 L 36.5507813,55.3642578 L 18.0522461,55.3642578 L 18.0522461,74.5859375 Z"/>
    <path class="st1" d="M 27.3168945,58.2768555 L 34.234375,65.2695313 L 27.3168945,72.2514649 L 20.368164,65.2695313 L 27.3168945,58.276855499999996 Z"/>
    <path class="st1" d="M 36.5507813,37.2792969 L 36.5507813,18.0576172 L 18.0522461,18.0576172 L 18.0522461,37.2792969 Z"/>
    <path class="st2" d="M 27.3168945,20.9702148 L 20.368164,27.972656200000003 L 27.3168945,34.9448242 L 34.234375,27.9726562 Z"/>
    <path class="st2" d="M 36.5507813,224.3603516 L 36.5507813,205.1494141 L 18.0522461,205.1494141 L 18.0522461,224.3603516 Z"/>
    <path class="st1" d="M 27.3168945,221.4580078 L 34.234375,214.45507809999998 L 27.3168945,207.4736328 L 20.368164,214.45507809999998 Z"/>
    <path class="st2" d="M 36.5507813,149.7675781 L 36.5507813,130.5263672 L 18.0522461,130.5263672 L 18.0522461,149.7675781 Z"/>
    <path class="st1" d="M 27.3168945,146.8642578 L 34.234375,139.86230469999998 L 27.3168945,132.86035159999997 L 20.368164,139.86230469999998 Z"/>
    <path class="st2" d="M 13.4204102,195.8125 L 8.798339899999998,191.1435547 L 41.1728516,158.515625 L 44.00000000000001,161.36572438566748 L 44.0,161.36572438566748 L 44.0,165.00237141473087 L 44.0,165.00237141473085 Z"/>
    <path class="st1" d="M 36.5507813,187.0742188 L 36.5507813,167.84277350000002 L 18.0522461,167.84277350000002 L 18.0522461,187.0742188 Z"/>
    <path class="st2" d="M 27.3168945,184.1611328 L 20.368164,177.1689453 L 27.3168945,170.16699219999998 L 34.234375,177.1689453 Z"/>
    <path d="M 44.0,4.5727539 L 44.0,236.57324219999998 L 44.000000000000036,236.5732422 L 4.482421899999991,236.5732422 L 4.4824219,236.5732422 L 4.4824219,4.5727539 L 44.00000000000002,4.5727539 Z" style="fill-rule:evenodd;clip-rule:evenodd;fill:none;stroke:#1E0C7D;stroke-width:3;stroke-linejoin:round;stroke-miterlimit:10;"/>
   </g>
  </svg>
  <svg height="242.6669922" id="clip-83.5432129x242.6669922" viewBox="0.000000 0.000000 83.543213 242.666992" width="83.5432129">
   <g style="fill-rule:nonzero;clip-rule:nonzero;fill:#FFFFFF;stroke:#000000;stroke-miterlimit:4;">
    <path d="M 85.5432129,0.2500000000000062 L 85.5432129,242.41699220000004 L 85.5432129,242.4169922 L 7.111328100000009,242.4169922 L 7.1113281,242.4169922 C 3.3364257999999998,242.4169922 0.25,239.32519530000002 0.25,235.5478516 L 0.25,7.1196289 C 0.25,3.3427734 3.3364258,0.25 7.1113281,0.25 L 85.54321289999997,0.25 Z" style="stroke-width:0.5;"/>
    <path class="st1" d="M 85.5432129,46.6162109 L 85.5432129,9.319335899999995 L 85.54321290000001,9.3193359 L 82.8110352,9.3193359 L 82.8110352,46.6162109 L 85.54321289999999,46.6162109 Z"/>
    <path class="st2" d="M 85.5432129,83.91308589999997 L 85.5432129,46.6162109 L 82.8110352,46.6162109 L 82.8110352,83.9130859 L 85.54321289999999,83.9130859 Z"/>
    <path class="st1" d="M 45.8041992,121.2089844 L 45.8041992,83.9130859 L 8.7983398,83.9130859 L 8.7983398,121.2089843 L 45.8041992,121.2089843 Z"/>
    <path class="st2" d="M 82.8110352,121.2089844 L 82.8110352,83.9130859 L 45.8041992,83.9130859 L 45.8041992,121.2089843 L 82.8110351,121.2089843 Z"/>
    <path class="st1" d="M 85.5432129,121.20898429999994 L 85.5432129,83.91308590000006 L 85.5432129,83.9130859 L 82.8110352,83.9130859 L 82.8110352,121.2089843 L 85.54321289999999,121.2089843 Z"/>
    <path class="st1" d="M 82.8110352,83.9130859 L 82.8110352,46.6162109 L 45.8041992,46.6162109 L 45.8041992,83.9130859 L 82.8110351,83.9130859 Z"/>
    <path class="st2" d="M 45.8041992,83.9130859 L 45.8041992,46.6162109 L 8.7983398,46.6162109 L 8.7983398,83.9130859 Z"/>
    <path class="st1" d="M 45.8041992,46.6162109 L 45.8041992,9.319335899999999 L 45.8041992,9.3193359 L 8.7983398,9.3193359 L 8.7983398,46.6162109 Z"/>
    <path class="st2" d="M 82.8110352,46.6162109 L 82.8110352,9.319335899999999 L 82.8110352,9.3193359 L 45.8041992,9.3193359 L 45.8041992,46.6162109 L 82.8110351,46.6162109 Z"/>
    <path class="st1" d="M 82.8110352,233.1191406 L 82.8110352,195.8125 L 45.8041992,195.8125 L 45.8041992,233.1191406 L 82.8110351,233.1191406 Z"/>
    <path class="st2" d="M 45.8041992,233.1191406 L 45.8041992,195.8125 L 8.7983398,195.8125 L 8.7983398,233.1191406 Z"/>
    <path class="st1" d="M 45.8041992,195.8125 L 45.8041992,158.515625 L 8.7983398,158.515625 L 8.7983398,195.8125 Z"/>
    <path class="st2" d="M 82.8110352,195.8125 L 82.8110352,158.515625 L 45.8041992,158.515625 L 45.8041992,195.8125 L 82.8110351,195.8125 Z"/>
    <path class="st2" d="M 85.5432129,158.51562500000003 L 85.5432129,121.20898440000002 L 85.54321289999999,121.20898439999999 L 82.8110352,121.20898439999999 L 82.8110352,158.515625 L 85.54321289999999,158.515625 Z"/>
    <path class="st1" d="M 82.8110352,158.515625 L 82.8110352,121.20898439999999 L 45.8041992,121.20898439999999 L 45.8041992,158.515625 L 82.8110351,158.515625 Z"/>
    <path class="st2" d="M 45.8041992,158.515625 L 45.8041992,121.20898439999999 L 8.7983398,121.20898439999999 L 8.7983398,158.515625 Z"/>
    <path class="st1" d="M 85.5432129,195.8125 L 85.5432129,158.51562500000003 L 85.5432129,158.515625 L 82.8110352,158.515625 L 82.8110352,195.8125 L 85.54321289999999,195.8125 Z"/>
    <path class="st2" d="M 85.5432129,233.1191406 L 85.5432129,195.8125 L 85.54321289999999,195.8125 L 82.8110352,195.8125 L 82.8110352,233.1191406 L 85.54321289999999,233.1191406 Z"/>
    <path class="st2" d="M 85.5432129,39.19576706584503 L 85.5432129,44.70153326183118 L 85.54321289999999,44.701533261831194 L 82.8110352,41.947753899999995 Z"/>
    <path class="st1" d="M 85.5432129,54.03665473415497 L 85.5432129,48.53088853816885 L 85.54321289999999,48.5308885381688 L 82.8110352,51.2846679 L 85.54321289999999,54.03665473415495 Z"/>
    <path class="st2" d="M 41.1728516,83.9130859 L 45.8041993,88.5703125 L 13.4204102,121.20898439999999 L 8.798339899999998,116.56152349999999 L 41.1728516,83.91308599999999 Z"/>
    <path class="st1" d="M 78.1992188,83.9130859 L 82.81103519999999,88.5703125 L 50.43652349999999,121.20898439999999 L 45.80419929999999,116.56152349999999 L 78.19921879999998,83.91308599999999 Z"/>
    <path class="st2" d="M 85.5432129,113.80784805535399 L 85.5432129,119.30291800781224 L 85.5432129,119.30291800781234 L 82.8110351,116.56152349999999 L 85.54321289999999,113.80784805535399 Z"/>
    <path class="st2" d="M 50.4365234,46.6162109 L 45.8041992,51.2846679 L 78.19921869999999,83.9130859 L 82.81103509999998,79.2436523 Z"/>
    <path class="st1" d="M 13.4204102,46.6162109 L 8.798339899999998,51.2846679 L 41.1728516,83.9130859 L 45.8041993,79.2436523 Z"/>
    <path class="st2" d="M 41.1728516,9.3193359 L 45.8041993,13.967285100000002 L 13.4204102,46.6162109 L 8.798339899999998,41.947753899999995 L 41.1728516,9.319335899999992 Z"/>
    <path class="st1" d="M 78.1992188,9.3193359 L 82.81103519999999,13.967285100000002 L 50.4365234,46.6162109 L 45.8041992,41.947753899999995 L 78.19921869999999,9.319335899999992 Z"/>
    <path class="st2" d="M 50.4365234,233.1191406 L 45.8041992,228.45019530000002 L 78.1992188,195.8125 L 82.81103519999999,200.4804688 L 50.43652349999999,233.1191407 Z"/>
    <path class="st1" d="M 13.4204102,233.1191406 L 8.798339899999998,228.45019530000002 L 41.1728516,195.8125 L 45.8041993,200.4804688 L 13.4204102,233.1191407 Z"/>
    <path class="st2" d="M 41.1728516,195.8125 L 45.8041993,191.1435547 L 13.4204102,158.515625 L 8.798339899999998,163.1845703 Z"/>
    <path class="st1" d="M 78.1992188,195.8125 L 82.81103519999999,191.1435547 L 50.4365234,158.515625 L 45.8041992,163.1845703 Z"/>
    <path class="st1" d="M 85.5432129,151.10374655614083 L 85.5432129,156.60515280123752 L 85.54321289999999,156.6051528012374 L 82.8110352,153.8574219 L 85.5432129,151.1037465561408 Z"/>
    <path class="st2" d="M 50.4365234,158.515625 L 45.8041992,153.8574219 L 78.19921869999999,121.20898439999999 L 82.81103509999998,125.8779297 Z"/>
    <path class="st1" d="M 13.4204102,158.515625 L 8.798339899999998,153.8574219 L 41.1728516,121.20898439999999 L 45.8041993,125.8779297 Z"/>
    <path class="st2" d="M 85.5432129,165.93651595784107 L 85.5432129,160.4305029050001 L 85.54321289999999,160.43050290500017 L 82.8110352,163.1845703 L 85.54321289999999,165.93651595784104 Z"/>
    <path class="st1" d="M 85.54321289999999,231.20426269499984 L 82.8110352,228.45019530000002 L 85.5432129,225.69742597970892"/>
    <path class="st2" d="M 85.5432129,16.721001628668425 L 85.5432129,11.225602659356332 L 85.5432129,11.225602659356362 L 82.8110352,13.967285100000002 L 85.54321289999999,16.72100162866841 Z"/>
    <path class="st2" d="M 85.5432129,30.72487266268847 L 85.5432129,25.218998295963342 L 85.54321290000001,25.218998295963317 L 82.8110352,27.972656299999997 L 82.8110352,27.9726563 L 85.54321289999999,30.72487266268846 Z"/>
    <path class="st1" d="M 85.5432129,81.99800782898022 L 82.8110351,79.2436523 L 85.5432129,76.4917477347415"/>
    <path class="st1" d="M 85.54321289999999,68.02174764792616 L 82.8110352,65.2695313 L 85.54321289999999,62.515873310725624"/>
    <path class="st2" d="M 13.4204102,83.9130859 L 8.798339899999998,88.5703125 L 41.1728516,121.20898439999999 L 45.8041993,116.56152349999999 Z"/>
    <path class="st2" d="M 27.3168945,83.9130859 L 8.7983398,102.5654297 L 27.3168945,121.20898439999999 L 45.8041992,102.5654297 Z"/>
    <path class="st1" d="M 50.4365234,83.9130859 L 45.8041992,88.5703125 L 78.19921869999999,121.20898439999999 L 82.81103509999998,116.56152349999999 Z"/>
    <path class="st1" d="M 64.3232422,83.9130859 L 45.8041992,102.5654297 L 64.3232422,121.20898439999999 L 82.81103519999999,102.5654297 Z"/>
    <path class="st2" d="M 85.5432129,91.32316418141166 L 85.5432129,85.82315760611304 L 85.54321289999999,85.82315760611294 L 82.8110352,88.5703125 L 85.54321289999999,91.32316418141167 Z"/>
    <path class="st2" d="M 85.5432129,105.3176460626885 L 85.5432129,99.81191586452688 L 85.5432129,99.81191586452684 L 82.8110352,102.5654297 L 85.54321289999999,105.31764606268845 Z"/>
    <path class="st2" d="M 78.1992188,46.6162109 L 82.81103519999999,51.2846679 L 50.43652349999999,83.9130859 L 45.80419929999999,79.2436523 L 78.19921879999998,46.61621089999999 Z"/>
    <path class="st2" d="M 64.3232422,46.6162109 L 82.81103519999999,65.2695312 L 64.3232422,83.9130859 L 45.8041992,65.2695312 Z"/>
    <path class="st1" d="M 41.1728516,46.6162109 L 45.8041993,51.2846679 L 13.4204102,83.9130859 L 8.798339899999998,79.2436523 L 41.1728516,46.61621089999999 Z"/>
    <path class="st1" d="M 27.3168945,46.6162109 L 45.8041992,65.2695312 L 27.3168945,83.9130859 L 8.7983398,65.2695313 L 27.3168945,46.61621099999999 Z"/>
    <path class="st2" d="M 13.4204102,9.3193359 L 8.798339899999998,13.967285100000002 L 41.1728516,46.6162109 L 45.8041993,41.947753899999995 L 13.4204102,9.319335899999999 Z"/>
    <path class="st2" d="M 27.3168945,9.3193359 L 8.7983398,27.972656299999997 L 8.7983398,27.9726563 L 27.3168945,46.616211 L 45.8041992,27.9726563 L 27.3168945,9.319335900000002 Z"/>
    <path class="st1" d="M 50.4365234,9.3193359 L 45.8041992,13.967285100000002 L 78.19921869999999,46.6162109 L 82.81103509999998,41.947753899999995 L 50.4365234,9.319335899999999 Z"/>
    <path class="st1" d="M 64.3232422,9.3193359 L 45.8041992,27.972656200000003 L 64.3232422,46.6162109 L 82.81103519999999,27.9726562 L 64.3232422,9.319335900000002 Z"/>
    <path class="st2" d="M 78.1992188,233.1191406 L 82.81103519999999,228.45019530000002 L 50.4365234,195.8125 L 45.8041992,200.4804688 L 78.19921869999999,233.1191407 Z"/>
    <path class="st2" d="M 64.3232422,233.1191406 L 82.81103519999999,214.4550781 L 64.3232422,195.8125 L 45.8041992,214.4550781 Z"/>
    <path class="st1" d="M 41.1728516,233.1191406 L 45.8041993,228.45019530000002 L 13.4204102,195.8125 L 8.798339899999998,200.4804688 L 41.1728516,233.1191407 Z"/>
    <path class="st1" d="M 27.3168945,233.1191406 L 45.8041992,214.4550781 L 27.3168945,195.8125 L 8.7983398,214.4550781 Z"/>
    <path class="st2" d="M 27.3168945,195.8125 L 8.7983398,177.1689453 L 27.3168945,158.515625 L 45.8041992,177.1689453 Z"/>
    <path class="st1" d="M 50.4365234,195.8125 L 45.8041992,191.1435547 L 78.19921869999999,158.515625 L 82.81103509999998,163.1845703 Z"/>
    <path class="st1" d="M 64.3232422,195.8125 L 45.8041992,177.1689453 L 64.3232422,158.515625 L 82.81103519999999,177.1689453 Z"/>
    <path class="st1" d="M 85.5432129,123.12386220419896 L 82.8110351,125.8779297 L 85.54321289999999,128.63069911254686"/>
    <path class="st1" d="M 85.5432129,142.61596268927437 L 85.5432129,137.1086467107256 L 85.5432129,137.10864671072562 L 82.8110352,139.8623047 L 85.54321289999999,142.61596268927437 Z"/>
    <path class="st2" d="M 78.1992188,158.515625 L 82.81103519999999,153.8574219 L 50.43652349999999,121.20898439999999 L 45.80419929999999,125.8779297 L 78.19921879999998,158.515625 Z"/>
    <path class="st2" d="M 64.3232422,158.515625 L 82.81103519999999,139.8623047 L 64.3232422,121.2089844 L 45.8041992,139.8623047 Z"/>
    <path class="st1" d="M 41.1728516,158.515625 L 45.8041993,153.8574219 L 13.4204102,121.20898439999999 L 8.798339899999998,125.8779297 Z"/>
    <path class="st1" d="M 27.3168945,158.515625 L 45.8041992,139.8623047 L 27.3168945,121.2089844 L 8.7983398,139.8623047 Z"/>
    <path class="st2" d="M 85.5432129,188.39160905065427 L 85.5432129,193.89762209499972 L 85.54321289999999,193.89762209499983 L 82.8110352,191.1435547 L 85.5432129,188.3916090506543 Z"/>
    <path class="st2" d="M 85.5432129,174.41528731072555 L 85.5432129,179.92116166268832 L 85.5432129,179.92116166268846 L 82.8110352,177.1689453 L 85.54321289999999,174.41528731072563 Z"/>
    <path class="st1" d="M 85.54321289999999,197.72697741235052 L 82.8110352,200.4804688 L 85.5432129,203.23332048141168"/>
    <path class="st1" d="M 85.5432129,217.21032188442382 L 85.5432129,211.70300590587507 L 85.5432129,211.70300590587505 L 82.8110352,214.4550781 L 85.54321289999999,217.2103218844238 Z"/>
    <path class="st1" d="M 36.5507813,111.8925781 L 36.5507813,92.6606445 L 18.0522461,92.6606445 L 18.0522461,111.89257810000001 L 36.5507813,111.89257810000001 Z"/>
    <path class="st2" d="M 73.5673828,111.8925781 L 73.5673828,92.6606445 L 55.059082,92.6606445 L 55.059082,111.89257810000001 L 73.56738279999999,111.89257810000001 Z"/>
    <path class="st2" d="M 27.3168945,95.5629883 L 20.368164,102.5654297 L 27.3168945,109.56835939999999 L 34.234375,102.5654297 Z"/>
    <path class="st1" d="M 64.3232422,95.5629883 L 57.375,102.5654297 L 64.3232422,109.56835939999999 L 71.2509766,102.5654297 Z"/>
    <path class="st1" d="M 73.5673828,74.5859375 L 73.5673828,55.3642578 L 55.059082,55.3642578 L 55.059082,74.5859375 L 73.56738279999999,74.5859375 Z"/>
    <path class="st2" d="M 36.5507813,74.5859375 L 36.5507813,55.3642578 L 18.0522461,55.3642578 L 18.0522461,74.5859375 Z"/>
    <path class="st2" d="M 64.3232422,58.2768555 L 71.2509766,65.2695313 L 64.3232422,72.2514649 L 57.375,65.2695313 L 64.3232422,58.276855499999996 Z"/>
    <path class="st1" d="M 27.3168945,58.2768555 L 34.234375,65.2695313 L 27.3168945,72.2514649 L 20.368164,65.2695313 L 27.3168945,58.276855499999996 Z"/>
    <path class="st1" d="M 36.5507813,37.2792969 L 36.5507813,18.0576172 L 18.0522461,18.0576172 L 18.0522461,37.2792969 Z"/>
    <path class="st2" d="M 73.5673828,37.2792969 L 73.5673828,18.0576172 L 55.059082,18.0576172 L 55.059082,37.2792969 L 73.56738279999999,37.2792969 Z"/>
    <path class="st2" d="M 27.3168945,20.9702148 L 20.368164,27.972656200000003 L 27.3168945,34.9448242 L 34.234375,27.9726562 Z"/>
    <path class="st1" d="M 64.3232422,20.9702148 L 57.375,27.9726563 L 64.3232422,34.9448243 L 71.2509766,27.9726563 L 64.3232422,20.970214900000002 Z"/>
    <path class="st1" d="M 73.5673828,224.3603516 L 73.5673828,205.1494141 L 55.059082,205.1494141 L 55.059082,224.3603516 L 73.56738279999999,224.3603516 Z"/>
    <path class="st2" d="M 36.5507813,224.3603516 L 36.5507813,205.1494141 L 18.0522461,205.1494141 L 18.0522461,224.3603516 Z"/>
    <path class="st2" d="M 64.3232422,221.4580078 L 71.2509766,214.45507809999998 L 64.3232422,207.4736328 L 57.375,214.4550781 L 64.3232422,221.45800780000002 Z"/>
    <path class="st1" d="M 27.3168945,221.4580078 L 34.234375,214.45507809999998 L 27.3168945,207.4736328 L 20.368164,214.45507809999998 Z"/>
    <path class="st2" d="M 73.5673828,187.0742188 L 73.5673828,167.84277350000002 L 55.059082,167.84277350000002 L 55.059082,187.0742188 L 73.56738279999999,187.0742188 Z"/>
    <path class="st1" d="M 64.3232422,184.1611328 L 57.375,177.1689453 L 64.3232422,170.16699219999998 L 71.2509766,177.1689453 Z"/>
    <path class="st1" d="M 73.5673828,149.7675781 L 73.5673828,130.5263672 L 55.059082,130.5263672 L 55.059082,149.7675781 L 73.56738279999999,149.7675781 Z"/>
    <path class="st2" d="M 36.5507813,149.7675781 L 36.5507813,130.5263672 L 18.0522461,130.5263672 L 18.0522461,149.7675781 Z"/>
    <path class="st2" d="M 64.3232422,146.8642578 L 71.2509766,139.86230469999998 L 64.3232422,132.86035159999997 L 57.375,139.8623047 L 64.3232422,146.86425780000002 Z"/>
    <path class="st1" d="M 27.3168945,146.8642578 L 34.234375,139.86230469999998 L 27.3168945,132.86035159999997 L 20.368164,139.86230469999998 Z"/>
    <path class="st2" d="M 13.4204102,195.8125 L 8.798339899999998,191.1435547 L 41.1728516,158.515625 L 45.8041993,163.1845703 Z"/>
    <path class="st1" d="M 36.5507813,187.0742188 L 36.5507813,167.84277350000002 L 18.0522461,167.84277350000002 L 18.0522461,187.0742188 Z"/>
    <path class="st2" d="M 27.3168945,184.1611328 L 20.368164,177.1689453 L 27.3168945,170.16699219999998 L 34.234375,177.1689453 Z"/>
    <path d="M 85.5432129,4.572753899999998 L 85.5432129,236.57324219999998 L 85.54321289999999,236.5732422 L 4.482421899999991,236.5732422 L 4.4824219,236.5732422 L 4.4824219,4.5727539 L 85.54321290000007,4.5727539 Z" style="fill-rule:evenodd;clip-rule:evenodd;fill:none;stroke:#1E0C7D;stroke-width:3;stroke-linejoin:round;stroke-miterlimit:10;"/>
   </g>
  </svg>
  <svg height="242.6669922" id="image-167.0864258x242.6669922" viewBox="0.000000 0.000000 167.086426 242.666992" width="167.0864258">
   <g id="Layer_x0020_1" style="fill-rule:nonzero;clip-rule:nonzero;fill:#FFFFFF;stroke:#000000;stroke-miterlimit:4;">
    <path d="M166.8364258,235.5478516c0,3.7773438-3.0859375,6.8691406-6.8701172,6.8691406H7.1113281c-3.7749023,0-6.8613281-3.0917969-6.8613281-6.8691406V7.1196289C0.25,3.3427734,3.3364258,0.25,7.1113281,0.25h152.8549805    c3.7841797,0,6.8701172,3.0927734,6.8701172,6.8696289v228.4282227z" style="stroke-width:0.5;"/>
    <path class="st1" d="M119.8374023,46.6162109V9.3193359H82.8110352v37.296875h37.0263672z"/>
    <path class="st2" d="M156.8432617,46.6162109V9.3193359h-37.0058594v37.296875h37.0058594z"/>
    <path class="st1" d="M156.8432617,83.9130859v-37.296875h-37.0058594v37.296875h37.0058594z"/>
    <path class="st2" d="M119.8374023,83.9130859v-37.296875H82.8110352v37.296875h37.0263672z"/>
    <path class="st1" d="M45.8041992,121.2089844V83.9130859H8.7983398v37.2958984h37.0058594z"/>
    <path class="st2" d="M82.8110352,121.2089844V83.9130859H45.8041992v37.2958984h37.0068359z"/>
    <path class="st1" d="M119.8374023,121.2089844V83.9130859H82.8110352v37.2958984h37.0263672z"/>
    <path class="st2" d="M156.8432617,121.2089844V83.9130859h-37.0058594v37.2958984h37.0058594z"/>
    <path class="st1" d="M82.8110352,83.9130859v-37.296875H45.8041992v37.296875h37.0068359z"/>
    <path class="st2" d="M45.8041992,83.9130859v-37.296875H8.7983398v37.296875h37.0058594z"/>
    <path class="st1" d="M45.8041992,46.6162109V9.3193359H8.7983398v37.296875h37.0058594z"/>
    <path class="st2" d="M82.8110352,46.6162109V9.3193359H45.8041992v37.296875h37.0068359z"/>
    <path class="st1" d="M82.8110352,233.1191406V195.8125H45.8041992v37.3066406h37.0068359z"/>
    <path class="st2" d="M45.8041992,233.1191406V195.8125H8.7983398v37.3066406h37.0058594z"/>
    <path class="st1" d="M45.8041992,195.8125v-37.296875H8.7983398V195.8125h37.0058594z"/>
    <path class="st2" d="M82.8110352,195.8125v-37.296875H45.8041992V195.8125h37.0068359z"/>
    <path class="st1" d="M156.8432617,158.515625v-37.3066406h-37.0058594v37.3066406h37.0058594z"/>
    <path class="st2" d="M119.8374023,158.515625v-37.3066406H82.8110352v37.3066406h37.0263672z"/>
    <path class="st1" d="M82.8110352,158.515625v-37.3066406H45.8041992v37.3066406h37.0068359z"/>
    <path class="st2" d="M45.8041992,158.515625v-37.3066406H8.7983398v37.3066406h37.0058594z"/>
    <path class="st1" d="M119.8374023,195.8125v-37.296875H82.8110352V195.8125h37.0263672z"/>
    <path class="st2" d="M156.8432617,195.8125v-37.296875h-37.0058594V195.8125h37.0058594z"/>
    <path class="st1" d="M156.8432617,233.1191406V195.8125h-37.0058594v37.3066406h37.0058594z"/>
    <path class="st2" d="M119.8374023,233.1191406V195.8125H82.8110352v37.3066406h37.0263672z"/>
    <path class="st2" d="M115.2045898,9.3193359l4.6328125,4.6479492L87.4428711,46.6162109l-4.6318359-4.668457l32.3935547-32.628418z"/>
    <path class="st1" d="M152.2114258,9.3193359l4.6318359,4.6479492l-32.3730469,32.6489258l-4.6328125-4.668457l32.3740234-32.628418"/>
    <path class="st2" d="M124.4702148,46.6162109l-4.6328125,4.668457l32.3740234,32.628418l4.6318359-4.6694336l-32.3730469-32.6274414z"/>
    <path class="st1" d="M87.4428711,46.6162109l-4.6318359,4.668457l32.3935547,32.628418l4.6328125-4.6694336L87.4428711,46.6162109"/>
    <path class="st2" d="M41.1728516,83.9130859l4.6313477,4.6572266l-32.3837891,32.6386719l-4.6220703-4.6474609l32.3745117-32.6484375z"/>
    <path class="st1" d="M78.1992188,83.9130859l4.6118164,4.6572266l-32.3745117,32.6386719l-4.6323242-4.6474609l32.3950195-32.6484375"/>
    <path class="st2" d="M115.2045898,83.9130859l4.6328125,4.6572266l-32.3945313,32.6386719l-4.6318359-4.6474609l32.3935547-32.6484375z"/>
    <path class="st1" d="M152.2114258,83.9130859l4.6318359,4.6572266l-32.3730469,32.6386719l-4.6328125-4.6474609l32.3740234-32.6484375"/>
    <path class="st2" d="M50.4365234,46.6162109l-4.6323242,4.668457l32.3950195,32.628418l4.6118164-4.6694336L50.4365234,46.6162109z"/>
    <path class="st1" d="M13.4204102,46.6162109l-4.6220703,4.668457l32.3745117,32.628418l4.6313477-4.6694336L13.4204102,46.6162109"/>
    <path class="st2" d="M41.1728516,9.3193359l4.6313477,4.6479492L13.4204102,46.6162109l-4.6220703-4.668457l32.3745117-32.628418z"/>
    <path class="st1" d="M78.1992188,9.3193359l4.6118164,4.6479492L50.4365234,46.6162109l-4.6323242-4.668457l32.3950195-32.628418"/>
    <path class="st2" d="M50.4365234,233.1191406l-4.6323242-4.6689453L78.1992188,195.8125l4.6118164,4.6679688l-32.3745117,32.6386719z"/>
    <path class="st1" d="M13.4204102,233.1191406l-4.6220703-4.6689453L41.1728516,195.8125l4.6313477,4.6679688l-32.3837891,32.6386719"/>
    <path class="st2" d="M41.1728516,195.8125l4.6313477-4.6689453L13.4204102,158.515625l-4.6220703,4.6689453L41.1728516,195.8125z"/>
    <path class="st1" d="M78.1992188,195.8125l4.6118164-4.6689453L50.4365234,158.515625l-4.6323242,4.6689453L78.1992188,195.8125"/>
    <path class="st2" d="M124.4702148,158.515625l-4.6328125-4.6582031l32.3740234-32.6484375l4.6318359,4.6689453l-32.3730469,32.6376953z"/>
    <path class="st1" d="M87.4428711,158.515625l-4.6318359-4.6582031l32.3935547-32.6484375l4.6328125,4.6689453L87.4428711,158.515625"/>
    <path class="st2" d="M50.4365234,158.515625l-4.6323242-4.6582031l32.3950195-32.6484375l4.6118164,4.6689453L50.4365234,158.515625z"/>
    <path class="st1" d="M13.4204102,158.515625l-4.6220703-4.6582031l32.3745117-32.6484375l4.6313477,4.6689453L13.4204102,158.515625"/>
    <path class="st2" d="M115.2045898,195.8125l4.6328125-4.6689453L87.4428711,158.515625l-4.6318359,4.6689453L115.2045898,195.8125z"/>
    <path class="st1" d="M152.2114258,195.8125l4.6318359-4.6689453l-32.3730469-32.6279297l-4.6328125,4.6689453L152.2114258,195.8125"/>
    <path class="st2" d="M124.4702148,233.1191406l-4.6328125-4.6689453L152.2114258,195.8125l4.6318359,4.6679688l-32.3730469,32.6386719z"/>
    <path class="st1" d="M87.4428711,233.1191406l-4.6318359-4.6689453L115.2045898,195.8125l4.6328125,4.6679688l-32.3945313,32.6386719"/>
    <path class="st2" d="M87.4428711,9.3193359l-4.6318359,4.6479492l32.3935547,32.6489258l4.6328125-4.668457L87.4428711,9.3193359z"/>
    <path class="st2" d="M101.3188477,9.3193359L82.8110352,27.9726563l18.5078125,18.6435547l18.5185547-18.6435547L101.3188477,9.3193359z"/>
    <path class="st1" d="M124.4702148,9.3193359l-4.6328125,4.6479492l32.3740234,32.6489258l4.6318359-4.668457l-32.3730469-32.628418"/>
    <path class="st1" d="M138.3256836,9.3193359l-18.4882813,18.6533203l18.4882813,18.6435547l18.5175781-18.6435547L138.3256836,9.3193359"/>
    <path class="st2" d="M152.2114258,46.6162109l4.6318359,4.668457l-32.3730469,32.628418l-4.6328125-4.6694336l32.3740234-32.6274414z"/>
    <path class="st2" d="M138.3256836,46.6162109l18.5175781,18.6533203l-18.5175781,18.6435547l-18.4882813-18.6435547l18.4882813-18.6533203z"/>
    <path class="st1" d="M115.2045898,46.6162109l4.6328125,4.668457l-32.3945313,32.628418l-4.6318359-4.6694336l32.3935547-32.6274414"/>
    <path class="st1" d="M101.3188477,46.6162109l18.5185547,18.6533203l-18.5185547,18.6435547L82.8110352,65.2695313l18.5078125-18.6533203"/>
    <path class="st2" d="M13.4204102,83.9130859l-4.6220703,4.6572266l32.3745117,32.6386719l4.6313477-4.6474609L13.4204102,83.9130859z"/>
    <path class="st2" d="M27.3168945,83.9130859L8.7983398,102.5654297l18.5185547,18.6435547l18.4873047-18.6435547L27.3168945,83.9130859z"/>
    <path class="st1" d="M50.4365234,83.9130859l-4.6323242,4.6572266l32.3950195,32.6386719l4.6118164-4.6474609L50.4365234,83.9130859"/>
    <path class="st1" d="M64.3232422,83.9130859l-18.519043,18.6523438l18.519043,18.6435547l18.487793-18.6435547l-18.487793-18.6523438"/>
    <path class="st2" d="M87.4428711,83.9130859l-4.6318359,4.6572266l32.3935547,32.6386719l4.6328125-4.6474609L87.4428711,83.9130859z"/>
    <path class="st2" d="M101.3188477,83.9130859l-18.5078125,18.6523438l18.5078125,18.6435547l18.5185547-18.6435547l-18.5185547-18.6523438z"/>
    <path class="st1" d="M124.4702148,83.9130859l-4.6328125,4.6572266l32.3740234,32.6386719l4.6318359-4.6474609l-32.3730469-32.6484375"/>
    <path class="st1" d="M138.3256836,83.9130859l-18.4882813,18.6523438l18.4882813,18.6435547l18.5175781-18.6435547l-18.5175781-18.6523438"/>
    <path class="st2" d="M78.1992188,46.6162109l4.6118164,4.668457l-32.3745117,32.628418l-4.6323242-4.6694336l32.3950195-32.6274414z"/>
    <path class="st2" d="M64.3232422,46.6162109l18.487793,18.6533203l-18.487793,18.6435547l-18.519043-18.6435547l18.519043-18.6533203z"/>
    <path class="st1" d="M41.1728516,46.6162109l4.6313477,4.668457l-32.3837891,32.628418l-4.6220703-4.6694336l32.3745117-32.6274414"/>
    <path class="st1" d="M27.3168945,46.6162109l18.4873047,18.6533203L27.3168945,83.9130859L8.7983398,65.2695313l18.5185547-18.6533203"/>
    <path class="st2" d="M13.4204102,9.3193359l-4.6220703,4.6479492l32.3745117,32.6489258l4.6313477-4.668457L13.4204102,9.3193359z"/>
    <path class="st2" d="M27.3168945,9.3193359L8.7983398,27.9726563l18.5185547,18.6435547l18.4873047-18.6435547L27.3168945,9.3193359z"/>
    <path class="st1" d="M50.4365234,9.3193359l-4.6323242,4.6479492l32.3950195,32.6489258l4.6118164-4.668457L50.4365234,9.3193359"/>
    <path class="st1" d="M64.3232422,9.3193359l-18.519043,18.6533203l18.519043,18.6435547l18.487793-18.6435547L64.3232422,9.3193359"/>
    <path class="st2" d="M78.1992188,233.1191406l4.6118164-4.6689453L50.4365234,195.8125l-4.6323242,4.6679688l32.3950195,32.6386719z"/>
    <path class="st2" d="M64.3232422,233.1191406l18.487793-18.6640625L64.3232422,195.8125l-18.519043,18.6425781l18.519043,18.6640625z"/>
    <path class="st1" d="M41.1728516,233.1191406l4.6313477-4.6689453L13.4204102,195.8125l-4.6220703,4.6679688l32.3745117,32.6386719"/>
    <path class="st1" d="M27.3168945,233.1191406l18.4873047-18.6640625L27.3168945,195.8125L8.7983398,214.4550781l18.5185547,18.6640625"/>
    <path class="st2" d="M27.3168945,195.8125L8.7983398,177.1689453l18.5185547-18.6533203l18.4873047,18.6533203L27.3168945,195.8125z"/>
    <path class="st1" d="M50.4365234,195.8125l-4.6323242-4.6689453l32.3950195-32.6279297l4.6118164,4.6689453L50.4365234,195.8125"/>
    <path class="st1" d="M64.3232422,195.8125l-18.519043-18.6435547l18.519043-18.6533203l18.487793,18.6533203L64.3232422,195.8125"/>
    <path class="st2" d="M152.2114258,158.515625l4.6318359-4.6582031l-32.3730469-32.6484375l-4.6328125,4.6689453l32.3740234,32.6376953z"/>
    <path class="st2" d="M138.3256836,158.515625l18.5175781-18.6533203l-18.5175781-18.6533203l-18.4882813,18.6533203l18.4882813,18.6533203z"/>
    <path class="st1" d="M115.2045898,158.515625l4.6328125-4.6582031l-32.3945313-32.6484375l-4.6318359,4.6689453l32.3935547,32.6376953"/>
    <path class="st1" d="M101.3188477,158.515625l18.5185547-18.6533203l-18.5185547-18.6533203l-18.5078125,18.6533203l18.5078125,18.6533203"/>
    <path class="st2" d="M78.1992188,158.515625l4.6118164-4.6582031l-32.3745117-32.6484375l-4.6323242,4.6689453l32.3950195,32.6376953z"/>
    <path class="st2" d="M64.3232422,158.515625l18.487793-18.6533203l-18.487793-18.6533203l-18.519043,18.6533203l18.519043,18.6533203z"/>
    <path class="st1" d="M41.1728516,158.515625l4.6313477-4.6582031l-32.3837891-32.6484375l-4.6220703,4.6689453l32.3745117,32.6376953"/>
    <path class="st1" d="M27.3168945,158.515625l18.4873047-18.6533203l-18.4873047-18.6533203L8.7983398,139.8623047l18.5185547,18.6533203"/>
    <path class="st2" d="M87.4428711,195.8125l-4.6318359-4.6689453l32.3935547-32.6279297l4.6328125,4.6689453L87.4428711,195.8125z"/>
    <path class="st2" d="M101.3188477,195.8125l-18.5078125-18.6435547l18.5078125-18.6533203l18.5185547,18.6533203L101.3188477,195.8125z"/>
    <path class="st1" d="M124.4702148,195.8125l-4.6328125-4.6689453l32.3740234-32.6279297l4.6318359,4.6689453L124.4702148,195.8125"/>
    <path class="st1" d="M138.3256836,195.8125l-18.4882813-18.6435547l18.4882813-18.6533203l18.5175781,18.6533203L138.3256836,195.8125"/>
    <path class="st2" d="M152.2114258,233.1191406l4.6318359-4.6689453L124.4702148,195.8125l-4.6328125,4.6679688l32.3740234,32.6386719z"/>
    <path class="st2" d="M138.3256836,233.1191406l18.5175781-18.6640625L138.3256836,195.8125l-18.4882813,18.6425781l18.4882813,18.6640625z"/>
    <path class="st1" d="M115.2045898,233.1191406l4.6328125-4.6689453L87.4428711,195.8125l-4.6318359,4.6679688l32.3935547,32.6386719"/>
    <path class="st1" d="M101.3188477,233.1191406l18.5185547-18.6640625L101.3188477,195.8125l-18.5078125,18.6425781l18.5078125,18.6640625"/>
    <path class="st1" d="M110.5834961,37.2792969V18.0576172H92.0649414v19.2216797h18.5185547z"/>
    <path class="st2" d="M147.5893555,37.2792969V18.0576172h-18.4980469v19.2216797h18.4980469z"/>
    <path class="st2" d="M101.3188477,20.9702148l-6.9375,7.0024414l6.9375,6.972168l6.9482422-6.972168l-6.9482422-7.0024414"/>
    <path class="st1" d="M138.3256836,20.9702148l-6.9277344,7.0024414l6.9277344,6.972168l6.9472656-6.972168l-6.9472656-7.0024414"/>
    <path class="st1" d="M147.5893555,74.5859375V55.3642578h-18.4980469v19.2216797h18.4980469z"/>
    <path class="st2" d="M110.5834961,74.5859375V55.3642578H92.0649414v19.2216797h18.5185547z"/>
    <path class="st2" d="M138.3256836,58.2768555l6.9472656,6.9926758l-6.9472656,6.9819336l-6.9277344-6.9819336l6.9277344-6.9926758"/>
    <path class="st1" d="M101.3188477,58.2768555l6.9482422,6.9926758l-6.9482422,6.9819336l-6.9375-6.9819336l6.9375-6.9926758"/>
    <path class="st1" d="M36.5507813,111.8925781V92.6606445H18.0522461v19.2319336h18.4985352z"/>
    <path class="st2" d="M73.5673828,111.8925781V92.6606445H55.059082v19.2319336h18.5083008z"/>
    <path class="st2" d="M27.3168945,95.5629883l-6.9487305,7.0024414l6.9487305,7.0029297l6.9174805-7.0029297l-6.9174805-7.0024414"/>
    <path class="st1" d="M64.3232422,95.5629883L57.375,102.5654297l6.9482422,7.0029297l6.9277344-7.0029297l-6.9277344-7.0024414"/>
    <path class="st1" d="M110.5834961,111.8925781V92.6606445H92.0649414v19.2319336h18.5185547z"/>
    <path class="st2" d="M147.5893555,111.8925781V92.6606445h-18.4980469v19.2319336h18.4980469z"/>
    <path class="st2" d="M101.3188477,95.5629883l-6.9375,7.0024414l6.9375,7.0029297l6.9482422-7.0029297l-6.9482422-7.0024414"/>
    <path class="st1" d="M138.3256836,95.5629883l-6.9277344,7.0024414l6.9277344,7.0029297l6.9472656-7.0029297l-6.9472656-7.0024414"/>
    <path class="st1" d="M73.5673828,74.5859375V55.3642578H55.059082v19.2216797h18.5083008z"/>
    <path class="st2" d="M36.5507813,74.5859375V55.3642578H18.0522461v19.2216797h18.4985352z"/>
    <path class="st2" d="M64.3232422,58.2768555l6.9277344,6.9926758l-6.9277344,6.9819336L57.375,65.2695313l6.9482422-6.9926758"/>
    <path class="st1" d="M27.3168945,58.2768555l6.9174805,6.9926758l-6.9174805,6.9819336l-6.9487305-6.9819336l6.9487305-6.9926758"/>
    <path class="st1" d="M36.5507813,37.2792969V18.0576172H18.0522461v19.2216797h18.4985352z"/>
    <path class="st2" d="M73.5673828,37.2792969V18.0576172H55.059082v19.2216797h18.5083008z"/>
    <path class="st2" d="M27.3168945,20.9702148l-6.9487305,7.0024414l6.9487305,6.972168l6.9174805-6.972168l-6.9174805-7.0024414"/>
    <path class="st1" d="M64.3232422,20.9702148L57.375,27.9726563l6.9482422,6.972168l6.9277344-6.972168l-6.9277344-7.0024414"/>
    <path class="st1" d="M73.5673828,224.3603516v-19.2109375H55.059082v19.2109375h18.5083008z"/>
    <path class="st2" d="M36.5507813,224.3603516v-19.2109375H18.0522461v19.2109375h18.4985352z"/>
    <path class="st2" d="M64.3232422,221.4580078l6.9277344-7.0029297l-6.9277344-6.9814453L57.375,214.4550781l6.9482422,7.0029297"/>
    <path class="st1" d="M27.3168945,221.4580078l6.9174805-7.0029297l-6.9174805-6.9814453l-6.9487305,6.9814453l6.9487305,7.0029297"/>
    <path class="st2" d="M73.5673828,187.0742188v-19.2314453H55.059082v19.2314453h18.5083008z"/>
    <path class="st1" d="M64.3232422,184.1611328L57.375,177.1689453l6.9482422-7.0019531l6.9277344,7.0019531l-6.9277344,6.9921875"/>
    <path class="st1" d="M147.5893555,149.7675781v-19.2412109h-18.4980469v19.2412109h18.4980469z"/>
    <path class="st2" d="M110.5834961,149.7675781v-19.2412109H92.0649414v19.2412109h18.5185547z"/>
    <path class="st2" d="M138.3256836,146.8642578l6.9472656-7.0019531l-6.9472656-7.0019531l-6.9277344,7.0019531l6.9277344,7.0019531"/>
    <path class="st1" d="M101.3188477,146.8642578l6.9482422-7.0019531l-6.9482422-7.0019531l-6.9375,7.0019531l6.9375,7.0019531"/>
    <path class="st1" d="M73.5673828,149.7675781v-19.2412109H55.059082v19.2412109h18.5083008z"/>
    <path class="st2" d="M36.5507813,149.7675781v-19.2412109H18.0522461v19.2412109h18.4985352z"/>
    <path class="st2" d="M64.3232422,146.8642578l6.9277344-7.0019531l-6.9277344-7.0019531L57.375,139.8623047l6.9482422,7.0019531"/>
    <path class="st1" d="M27.3168945,146.8642578l6.9174805-7.0019531l-6.9174805-7.0019531l-6.9487305,7.0019531l6.9487305,7.0019531"/>
    <path class="st1" d="M110.5834961,187.0742188v-19.2314453H92.0649414v19.2314453h18.5185547z"/>
    <path class="st2" d="M147.5893555,187.0742188v-19.2314453h-18.4980469v19.2314453h18.4980469z"/>
    <path class="st2" d="M101.3188477,184.1611328l-6.9375-6.9921875l6.9375-7.0019531l6.9482422,7.0019531l-6.9482422,6.9921875"/>
    <path class="st1" d="M138.3256836,184.1611328l-6.9277344-6.9921875l6.9277344-7.0019531l6.9472656,7.0019531l-6.9472656,6.9921875"/>
    <path class="st1" d="M147.5893555,224.3603516v-19.2109375h-18.4980469v19.2109375h18.4980469z"/>
    <path class="st2" d="M110.5834961,224.3603516v-19.2109375H92.0649414v19.2109375h18.5185547z"/>
    <path class="st2" d="M138.3256836,221.4580078l6.9472656-7.0029297l-6.9472656-6.9814453l-6.9277344,6.9814453l6.9277344,7.0029297"/>
    <path class="st1" d="M101.3188477,221.4580078l6.9482422-7.0029297l-6.9482422-6.9814453l-6.9375,6.9814453l6.9375,7.0029297"/>
    <path class="st2" d="M13.4204102,195.8125l-4.6220703-4.6689453l32.3745117-32.6279297l4.6313477,4.6689453L13.4204102,195.8125z"/>
    <path class="st1" d="M36.5507813,187.0742188v-19.2314453H18.0522461v19.2314453h18.4985352z"/>
    <path class="st2" d="M27.3168945,184.1611328l-6.9487305-6.9921875l6.9487305-7.0019531l6.9174805,7.0019531l-6.9174805,6.9921875"/>
    <path d="M162.2319336,236.5732422H4.4824219V4.5727539h157.7495117v232.0004883z" style="fill-rule:evenodd;clip-rule:evenodd;fill:none;stroke:#1E0C7D;stroke-width:3;stroke-linejoin:round;stroke-miterlimit:10;"/>
   </g>
  </svg>
 </defs>
</svg>
