<?xml version="1.0" ?>
<!--    This set of SVG files contains images of playing cards' backs		-->
<!--    adapted from version 1.1 of the upstream project			-->
<!--    <https://sourceforge.net/projects/svg-cards/>				-->
<!--    									-->
<!--    Copyright (C) 2004 David Bellot						-->
<!--    Copyright © 2017,2019 Stan Livitski					-->
<!--										-->
<!--    This library is free software; you can redistribute it and/or		-->
<!--    modify it under the terms of the GNU Lesser General Public		-->
<!--    License as published by the Free Software Foundation; either		-->
<!--    version 3 of the License, or (at your option) any later version		-->
<!--										-->
<!--    This library is distributed in the hope that it will be useful,		-->
<!--    but WITHOUT ANY WARRANTY; without even the implied warranty of		-->
<!--    MERCHANTABILITY or FITNESS FOR A PARTICULAR PURPOSE.  See the GNU	-->
<!--    Lesser General Public License for more details.				-->
<!--										-->
<!--    You should have received a copy of the GNU Lesser General Public	-->
<!--    License along with this library; if not, write to the Free Software	-->
<!--    Foundation, Inc., 59 Temple Place, Suite 330, Boston, MA 02111-1307  USA-->
<!--										-->
<svg height="242.6679688pt" preserveAspectRatio="none" viewBox="0.000000 0.000000 229.503711 242.667969" width="235.69262884438552pt" xml:space="preserve" xmlns="http://www.w3.org/2000/svg" xmlns:xlink="http://www.w3.org/1999/xlink">
 <use x="0" xlink:href="#clip-4x243" y="0"/>
 <use x="4.0" xlink:href="#clip-8x243" y="0"/>
 <use x="12.0" xlink:href="#clip-17x243" y="0"/>
 <use x="29.0" xlink:href="#clip-33.41728516x242.6679688" y="0"/>
 <use x="62.41728516" xlink:href="#image-167.0864258x242.6679688" y="0"/>
 <defs>
  <svg height="243" id="clip-4x243" viewBox="0.000000 0.000000 4.000000 243.000000" width="4">
   <g style="fill-rule:nonzero;clip-rule:nonzero;stroke:#000000;stroke-miterlimit:4;">
    <path d="M 6.0,0.3406698869909892 L 6.0,242.32727148101452 L 6.000000000000001,242.32727148101455 C 2.74869171957386,241.79133796252526 0.25,238.94586033120484 0.25,235.546875 L 0.25,7.1201172 C 0.25,3.721131868795197 2.7486917195738387,0.8764449930663558 5.999999999999959,0.34066988699099654 Z" style="fill:#FFFFFF;stroke-width:0.5;"/>
    <g>
     <path d="M 6.0,153.84668395817866 L 6.0,157.44098553674596 L 5.999999999999999,157.4409855367459 C 5.4524515494329115,157.0949931454244 5.126953,156.69780958375736 5.126953,156.2255859 C 5.126953,155.1307035356333 5.5112609842163245,154.43450185477224 6.0,153.84668395817866 L 6.0,119.81418352293568 L 6.0,121.06472184483768 L 5.999999999999999,121.0647218448377 C 5.893107835695807,120.85997415444174 5.834960699999998,120.63892728645264 5.834960699999998,120.3984374 C 5.834960699999998,120.19003113672612 5.892612890351677,119.99593490110115 5.999999999999998,119.81418352293565 Z" style="fill:none;stroke:#0C3D1B;stroke-width:0.75;"/>
     <path d="M 6.0,188.64432893693075 L 6.0,189.69396620105752 L 6.000000000000003,189.69396620105766 C 5.279392593199322,189.528097900962 4.75488219999996,189.32816311237207 4.75488219999996,189.03710900000007 C 4.75488219999996,188.88391789689732 5.220543204618547,188.75570676785588 6.0,188.64432893693083 L 6.0,174.00784010283073 L 6.0,175.0917521783753 L 6.000000000000008,175.0917521783753 C 5.6003208675820275,174.9038650706629 5.273436899999961,174.68505793209988 5.273436899999961,174.32714810000004 C 5.273436899999961,174.20641861466905 5.538526203296139,174.10133422748888 6.0000000000000036,174.00784010283067 L 6.0,166.5380663546764 L 6.0,170.80106279222736 L 6.0,170.8010627922274 C 5.924217185204195,170.75954710583633 5.884276699999962,170.7159140881814 5.884276699999962,170.66992150000004 C 5.884276699999962,169.76269490000004 4.086425099999962,169.76269490000004 4.086425099999962,168.85546840000003 C 4.086425099999962,167.93749960000002 5.526854799999962,167.93749960000002 5.526854799999962,167.01953090000003 C 5.526854799999962,166.82352346589144 5.710362700424064,166.66884057817703 5.9999999999999964,166.5380663546764 L 6.0,126.31251786413034 L 6.0,126.96759912115604 L 6.000000000000004,126.9675991211561 C 5.5157853859792505,126.87709776263314 5.237304099999953,126.77529737926639 5.237304099999953,126.6582026 C 5.237304099999953,126.5255089652162 5.518906327609531,126.41216101942247 6.0000000000000115,126.31251786413031 L 6.0,80.70181970297253 L 6.0,82.09748131903537 L 5.999999999999993,82.0974813190354 C 5.470060868347795,81.82619469164115 4.811522999999951,81.61590391501059 4.811522999999951,81.09326109999996 C 4.811522999999951,80.93943983453893 5.258756972133298,80.81196859167164 6.000000000000011,80.70181970297254 L 6.0,75.23408634862018 L 6.0,76.15805336136712 L 6.000000000000002,76.15805336136711 C 4.872880386467918,76.03240945084295 4.153808199999949,75.88343817905111 4.153808199999949,75.69335879999997 C 4.153808199999949,75.50722926917646 4.8670183472537865,75.35938971286245 6.000000000000018,75.2340863486202 L 6.0,41.193484380333835 L 6.0,44.1441398831997 L 6.0000000000000115,44.14413988319971 C 5.286307413613866,43.967468473749236 4.700194999999956,43.762106520790184 4.700194999999956,43.424803899999965 C 4.700194999999956,42.50634689999997 4.484862999999956,42.50634689999997 4.484862999999956,41.587889799999964 C 4.484862999999956,41.431923400415755 5.0580175000176855,41.30375759260214 5.999999999999995,41.19348438033385 L 6.0,37.51093278403296 L 6.0,38.60555128282559 L 6.000000000000021,38.60555128282559 C 4.725197066607553,38.489989147770146 3.9204098999999566,38.3534927386917 3.9204098999999566,38.18115149999996 C 3.9204098999999566,37.87834312060499 4.815778073072161,37.67809458970926 5.999999999999964,37.510932784032974 L 6.0,32.73016033055637 L 6.0,33.32943057910267 L 6.000000000000015,33.32943057910267 C 5.705061864406851,33.25323196570548 5.537597499999958,33.16826463327571 5.537597499999958,33.071776599999964 C 5.537597499999957,32.94047533983136 5.708501180710927,32.82849951183546 5.999999999999994,32.730160330556366 L 6.0,25.872982988996966 L 6.0,26.989264298284642 L 6.00000000000001,26.98926429828464 C 5.093217796833683,26.82028181039083 4.3286130999999575,26.626537256059414 4.3286130999999575,26.299803899999965 C 4.3286130999999575,26.123719262701034 4.984622277736479,25.987446460418685 6.000000000000011,25.872982988996956 L 6.0,20.17131119035039 L 6.0,20.638258022846387 L 5.999999999999995,20.638258022846387 C 4.867019775741504,20.547570818390096 4.167968599999963,20.44147217330113 4.167968599999963,20.310545999999967 C 4.167968599999963,20.186348519089048 4.869920139385352,20.151458283065146 6.000000000000015,20.171311190350394 Z" style="fill:none;stroke:#0C3D1B;stroke-width:0.5;"/>
    </g>
   </g>
  </svg>
  <svg height="243" id="clip-8x243" viewBox="0.000000 0.000000 8.000000 243.000000" width="8">
   <g style="fill-rule:nonzero;clip-rule:nonzero;stroke:#000000;stroke-miterlimit:4;">
    <path d="M 10.0,0.2499999999999991 L 10.0,242.41796879999998 L 9.999999999999996,242.4179688 L 7.111328100000009,242.4179688 L 7.1113281,242.4179688 C 3.3359374999999996,242.4179688 0.25,239.3242188 0.25,235.546875 L 0.25,7.1201172 C 0.25,3.3427734 3.3359375,0.25 7.1113281,0.25 L 9.999999999999996,0.25 Z" style="fill:#FFFFFF;stroke-width:0.5;"/>
    <g>
     <path d="M 10.0,148.4843322196805 L 10.0,158.82828980628804 L 9.999999999999991,158.82828980628807 C 7.378740305439392,158.19054866889937 5.126953,157.4676297227709 5.126953,156.2255859 C 5.126953,153.21875 8.0253905,153.21875 8.0253905,150.2128906 C 8.0253905,149.48832185617928 8.811905286654795,148.94106177372745 10.000000000000012,148.48433221968048 L 10.0,117.86230759353552 L 10.0,123.27831847366657 L 10.000000000000004,123.27831847366656 C 7.874212149824974,122.56494097685682 5.834960699999998,121.82262776705554 5.834960699999998,120.3984374 C 5.834960699999998,119.20845505360717 7.714603457130719,118.4850246224243 10.000000000000014,117.86230759353552 L 10.0,39.470763236947654 L 10.0,46.05963181695972 L 9.999999999999966,46.05963181695971 C 8.488918806731743,45.32417667060771 7.017089399999994,44.56958678192832 7.017089399999994,43.09960940000001 C 7.017089399999994,41.17921110134555 8.802122383089689,40.534852661108495 9.999999999999957,39.470763236947676 Z" style="fill:none;stroke:#0C3D1B;stroke-width:0.75;"/>
     <path d="M 10.0,224.81240471916234 L 10.0,225.35386501923804 L 10.000000000000004,225.3538650192379 C 8.357553387482543,225.7317822626639 7.118687676839447,225.9656637195912 7.069335399999954,225.77831990000013 C 7.02653104491494,225.6159375091912 8.269430598442149,225.25263268885678 10.0,224.81240471916232 L 10.0,217.84213878472113 L 10.0,219.51048536445055 L 10.000000000000002,219.51048536445057 C 8.243973705768308,219.23081773184106 6.090819799999954,219.01007577361858 6.090819799999953,218.46874970000013 C 6.090819799999953,218.19445436467743 7.716313572991837,218.00177305618027 10.000000000000009,217.8421387847212 L 10.0,210.28333010976206 L 10.0,211.86055746727098 L 9.999999999999982,211.86055746727098 C 9.035965697861254,211.66780735120943 8.215331499999955,211.4481629656238 8.215331499999955,211.07421840000012 C 8.215331499999955,210.6985914831779 9.034365243079314,210.47716079757834 9.999999999999995,210.28333010976206 L 10.0,188.29569659720616 L 10.0,190.68125218881323 L 9.999999999999996,190.6812521888132 C 9.247103054568663,189.96026781264874 4.75488219999996,189.88888861194022 4.75488219999996,189.03710900000007 C 4.75488219999996,188.69618162725106 7.061239172978098,188.47897674100994 9.999999999999995,188.29569659720613 L 10.0,173.59199025478645 L 10.0,177.01111780613803 L 10.000000000000012,177.01111780613803 C 8.656582542865047,176.80443848100492 7.437499399999961,176.57902467369763 7.437499399999961,176.16992150000004 C 7.437499399999961,175.24804650000004 5.273436899999961,175.24804650000004 5.273436899999961,174.32714810000004 C 5.273436899999961,173.98911104354784 7.351669379493551,173.7737275635229 10.00000000000002,173.59199025478642 L 10.0,164.86338611048558 L 10.0,171.3472700064926 L 9.999999999999993,171.34727000649258 C 7.661736902439685,171.17855060437483 5.884276699999962,170.97673970461034 5.884276699999962,170.66992150000004 C 5.884276699999962,169.76269490000004 4.086425099999962,169.76269490000004 4.086425099999962,168.85546840000003 C 4.086425099999962,167.93749960000002 5.526854799999962,167.93749960000002 5.526854799999962,167.01953090000003 C 5.526854799999962,166.08984340000003 9.655272799999963,166.08984340000003 9.655272799999963,165.16113250000004 C 9.655272799999963,165.04972834768088 9.780034813964647,164.951521231944 10.000000000000004,164.8633861104856 L 10.0,147.71153072485646 L 10.0,151.0545975498167 L 9.999999999999982,151.05459754981666 C 8.368420176919436,150.89202766116412 7.19677669999996,150.69583518239955 7.19677669999996,150.4140621 C 7.19677669999996,149.474609 6.40820249999996,149.474609 6.40820249999996,148.5341793 C 6.40820249999996,148.13599466815072 8.10372809369996,147.91333028204477 10.0,147.71153072485646 L 10.0,144.43090515511918 L 10.0,145.37474276535093 L 10.000000000000018,145.37474276535093 C 9.586097650348911,145.24529576567653 9.323241499999959,145.09207355516548 9.323241499999959,144.8974605 C 9.323241499999959,144.70880690087003 9.584162432281538,144.55847543241032 9.999999999999972,144.4309051551192 L 10.0,138.9711399706813 L 10.0,140.22578059947742 L 9.999999999999996,140.22578059947745 C 8.90649952567899,140.0356082685434 7.984862599999959,139.81763108501295 7.984862599999959,139.45019489999999 C 7.984862599999959,139.25477900520505 8.767808319931085,139.10100727263801 9.99999999999998,138.9711399706813 L 10.0,125.87903650124684 L 10.0,127.35759731686093 C 7.321286261279123,127.18439241486483 5.237304099999953,126.97852441966512 5.237304099999953,126.6582026 C 5.237304099999953,126.28941699386294 7.412427140719451,126.07005937420894 9.999999999999972,125.87903650124687 L 10.0,111.45832452313448 L 10.0,113.55649888838016 L 9.999999999999998,113.55649888838016 C 9.572638344376065,112.99484848181334 8.221190999999953,112.87382485096815 8.221190999999953,112.10839789999997 C 8.221190999999953,111.82096462551485 8.968786245081484,111.62272557288551 10.000000000000018,111.45832452313451 L 10.0,93.6285461213644 L 10.0,96.02118483914523 L 9.999999999999966,96.02118483914525 C 9.73231368831507,95.91954872768946 9.574218399999953,95.80331269132672 9.574218399999953,95.66601489999995 C 9.574218399999953,94.75097579999995 9.781737899999953,94.75097579999995 9.781737899999953,93.83593679999996 C 9.781737899999953,93.76114950032041 9.858585229738326,93.69233755305643 9.999999999999972,93.62854612136441 L 10.0,80.34312511650072 L 10.0,84.63621645341128 L 9.999999999999998,84.63621645341128 C 9.898339722145254,83.76051587373496 6.655272999999951,83.7463460832822 6.655272999999951,82.84228449999996 C 6.655272999999951,81.96777279999996 4.811522999999951,81.96777279999996 4.811522999999951,81.09326109999996 C 4.811522999999951,80.74131796274588 7.152768888392744,80.52731578235245 10.000000000000018,80.34312511650072 L 10.0,74.93112150894534 L 10.0,76.46519321232245 L 10.000000000000078,76.46519321232245 C 6.859076237717252,76.27607068119312 4.153808199999949,76.0620424767769 4.153808199999949,75.69335879999997 C 4.153808199999949,75.33465858006511 6.802614704326482,75.11816431993299 10.000000000000103,74.93112150894532 L 10.0,61.99343341754841 L 10.0,64.25086465175436 L 9.999999999999984,64.25086465175434 C 8.728034769169945,63.853163601702526 6.483886299999952,63.663368550306835 6.483886299999951,62.99365169999995 C 6.483886299999951,62.47569902732984 8.400064148239464,62.25946360552871 10.0,61.9934334175484 L 10.0,49.54334220436433 L 10.0,51.02093248791695 L 10.000000000000012,51.02093248791695 C 8.473922554270017,50.88402626820171 7.447265299999954,50.71946322600985 7.447265299999954,50.49804609999996 C 7.447265299999954,50.01267294780919 8.770726930930039,49.78725797147233 9.999999999999986,49.543342204364336 L 10.0,40.89107008036498 L 10.0,45.59021681748259 L 10.000000000000002,45.5902168174826 C 9.0934386630112,45.46889170621036 8.530761399999957,45.32657080482041 8.530761399999957,45.149901599999964 C 8.530761399999957,44.28710859999996 4.700194999999956,44.28710859999996 4.700194999999956,43.424803899999965 C 4.700194999999956,42.50634689999997 4.484862999999956,42.50634689999997 4.484862999999956,41.587889799999964 C 4.484862999999956,41.266438773706184 6.919528189628904,41.063080047189914 10.000000000000002,40.891070080365 L 10.0,37.0108246599748 L 10.0,38.86084342398588 L 10.00000000000005,38.860843423985884 C 6.640232121213519,38.69366121556864 3.9204098999999566,38.49797613830701 3.9204098999999566,38.18115149999996 C 3.9204098999999566,37.55891388323107 7.701163721658842,37.36974229541406 9.999999999999957,37.0108246599748 L 10.0,32.12083121015646 L 10.0,33.78115233808368 L 10.000000000000055,33.781152338083686 C 7.602040399167378,33.607307018354504 5.537597499999958,33.41055342152578 5.537597499999958,33.071776599999964 C 5.537597499999958,32.586595082675515 7.871174438688007,32.36528958405822 9.999999999999963,32.120831210156474 L 10.0,25.566396673229722 L 10.0,30.31923146948607 L 9.999999999999977,30.319231469486066 C 8.882516145959872,30.134646107700885 7.923339699999957,29.925298430317568 7.923339699999957,29.565917199999966 C 7.923339699999957,28.735350799999967 8.943847499999958,28.735350799999967 8.943847499999958,27.904784399999965 C 8.943847499999958,27.102538299999964 4.3286130999999575,27.102538299999964 4.3286130999999575,26.299803899999965 C 4.3286130999999575,25.94060659232576 7.058427539638514,25.74707605546071 10.000000000000014,25.566396673229725 L 10.0,20.33857894595911 L 10.0,20.855830392616824 L 9.999999999999947,20.855830392616824 C 6.7332112423008,20.72104877263255 4.167968599999963,20.5613510140641 4.167968599999963,20.310545999999967 C 4.167968599999963,20.07191255595278 6.759426601506589,20.16298274722722 9.999999999999972,20.338578945959107 Z" style="fill:none;stroke:#0C3D1B;stroke-width:0.5;"/>
    </g>
   </g>
  </svg>
  <svg height="243" id="clip-17x243" viewBox="0.000000 0.000000 17.000000 243.000000" width="17">
   <g style="fill-rule:nonzero;clip-rule:nonzero;stroke:#000000;stroke-miterlimit:4;">
    <path d="M 19.0,0.2499999999999991 L 19.0,242.41796879999995 L 19.0,242.4179688 L 7.111328100000009,242.4179688 L 7.1113281,242.4179688 C 3.3359374999999996,242.4179688 0.25,239.3242188 0.25,235.546875 L 0.25,7.1201172 C 0.25,3.3427734 3.3359375,0.25 7.1113281,0.25 L 19.000000000000007,0.25 Z" style="fill:#FFFFFF;stroke-width:0.5;"/>
    <g>
     <path d="M 19.0,14.393738404174702 L 19.0,228.02320780412393 L 19.000000000000014,228.02320780412398 C 16.479961531305477,227.40473863943095 14.585937499999998,224.9798009889165 14.585937499999998,222.1074219 L 14.585937499999998,20.3105469 C 14.585937499999998,17.436486111831467 16.479961531305484,15.01203881723985 19.000000000000014,14.393738404174702 Z" style="fill:#F7F619;stroke:none;"/>
     <path d="M 19.0,217.5808629417523 L 19.0,218.93883778370858 L 19.000000000000004,218.9388377837086 C 17.106575771750734,222.06374105192458 14.385973130534579,229.52555545770613 13.5644529,228.60449230000003 C 12.590820099999998,227.51367200000004 14.7724607,223.72363290000004 14.7724607,222.10742200000004 C 14.7724607,219.70189584225787 17.823058476026077,219.23786160537787 18.99999999999999,217.5808629417525 L 19.0,146.0888306483534 L 19.0,201.86994451964568 L 19.000000000000014,201.86994451964568 C 15.938742427673583,200.76376374552314 11.4150389,200.08602720808233 11.4150389,198.08300780000002 C 11.4150389,195.10937500000003 15.5361327,195.10937500000003 15.5361327,192.1357422 C 15.5361327,189.1425781 14.4936522,189.1425781 14.4936522,186.1484375 C 14.4936522,183.1328125 15.7783202,183.1328125 15.7783202,180.1171875 C 15.7783202,177.1523437 15.2861327,177.1523437 15.2861327,174.1884766 C 15.2861327,171.1982422 13.668456899999999,171.1982422 13.668456899999999,168.2080078 C 13.668456899999999,165.18847649999998 18.0170897,165.18847649999998 18.0170897,162.1689453 C 18.0170897,159.19726559999998 5.126953,159.19726559999998 5.126953,156.2255859 C 5.126953,153.21875 8.0253905,153.21875 8.0253905,150.2128906 C 8.0253905,148.01351366072075 15.272203166771039,147.44782838870344 18.999999999999993,146.08883064835348 L 19.0,137.2616866572643 L 19.0,139.3277695399072 L 19.000000000000007,139.32776953990717 C 18.932129622756097,139.0235635517522 18.8930662,138.68120479351194 18.8930662,138.2871093 C 18.8930662,137.8988373786589 18.9321253913274,137.56148010340604 18.999999999999996,137.2616866572644 L 19.0,112.21079908795457 L 19.0,129.86586100389752 L 18.999999999999996,129.86586100389755 C 17.13159630306209,128.90163659652976 14.730956799999996,128.18618031064193 14.730956799999998,126.3476562 C 14.730956799999998,123.3730468 5.834960699999998,123.3730468 5.834960699999998,120.3984374 C 5.834960699999998,117.36328110000001 18.062987999999997,117.36328110000001 18.062987999999997,114.3281249 C 18.062987999999997,113.39122259431394 18.45711693062329,112.74596623288343 19.000000000000004,112.2107990879546 L 19.0,89.48313486545602 L 19.0,99.14594320980582 L 19.00000000000001,99.14594320980582 C 17.634243039202993,98.47163507244699 16.392577799999998,97.73722307489933 16.392577799999998,96.4018554 C 16.392577799999998,93.449707 18.771972299999998,93.449707 18.771972299999998,90.4975585 C 18.771972299999998,90.1137025244041 18.85522057451569,89.77991513998799 19.00000000000001,89.48313486545604 L 19.0,25.948982272201892 L 19.0,64.21045549416756 L 19.000000000000032,64.21045549416758 C 15.096194649356367,63.322021858504726 10.496093399999994,62.58503087223626 10.496093399999994,60.84814450000002 C 10.496093399999994,57.89453120000002 13.659667599999993,57.89453120000002 13.659667599999993,54.94140620000002 C 13.659667599999993,52.041015600000016 13.231444899999994,52.041015600000016 13.231444899999994,49.14013670000001 C 13.231444899999994,46.12011720000001 7.017089399999994,46.12011720000001 7.017089399999994,43.09960940000001 C 7.017089399999994,40.20947270000001 11.060058199999993,40.20947270000001 11.060058199999993,37.319336000000014 C 11.060058199999993,34.36425790000001 11.847655899999992,34.36425790000001 11.847655899999992,31.409179700000013 C 11.847655899999992,28.620167974003223 18.390384867968766,28.490235665947676 18.99999999999999,25.948982272201896 L 19.0,20.84128609969091 L 19.0,25.196844138856868 L 19.000000000000004,25.196844138856886 C 18.412152871791985,22.92847356540588 12.314452799999994,22.808086261663902 12.314452799999994,20.310546900000013 C 12.314452799999994,19.08508315946474 16.309524109403554,20.389682539039306 18.999999999999993,20.841286099690908 Z" style="fill:none;stroke:#0C3D1B;stroke-width:0.75;"/>
     <path d="M 19.0,222.55114312324739 L 19.0,232.6959673314238 L 18.999999999999993,232.69596733142384 C 17.77853566601211,233.469287366154 16.131625228337608,234.65848331182252 15.720214299999952,234.4980464000001 C 15.118163499999952,234.2626948000001 11.674804099999953,233.54785110000012 11.186522899999952,233.1230464000001 C 10.704100999999952,232.7021480000001 18.74511669999995,224.1445308000001 18.412597099999953,223.57910110000012 C 18.126952599999953,223.09472610000012 7.217772899999954,226.3417964000001 7.069335399999954,225.77831990000013 C 6.955466646157532,225.3463479557753 15.940189742885602,223.49250028446278 19.00000000000002,222.5511431232473 L 19.0,217.34976223256328 L 19.0,221.61235350197535 L 19.000000000000018,221.61235350197538 C 16.897680561798392,221.1552610865041 12.229979999999953,220.997305180759 12.229979999999953,220.29589810000013 C 12.229979999999953,219.38281220000013 6.090819799999953,219.38281220000013 6.090819799999953,218.46874970000013 C 6.090819799999953,217.87970256711446 13.587147423954576,217.6670367492236 18.99999999999999,217.34976223256334 L 19.0,207.76272914789402 L 19.0,215.056844636347 L 19.000000000000004,215.05684463634708 C 18.8622251674774,214.97025761439738 18.784179099999953,214.8738608786421 18.784179099999953,214.76464810000013 C 18.784179099999953,213.82617150000013 13.035155699999954,213.82617150000013 13.035155699999954,212.88769500000012 C 13.035155699999954,211.98046840000012 8.215331499999955,211.98046840000012 8.215331499999955,211.07421840000012 C 8.215331499999955,210.15917930000012 13.075683099999956,210.15917930000012 13.075683099999956,209.2441403000001 C 13.075683099999956,208.46160148242342 17.612337766294235,208.34192083187403 19.000000000000018,207.76272914789402 L 19.0,202.77275510754882 L 19.0,206.92435478374506 L 19.00000000000001,206.92435478374512 C 18.05496766669775,206.42547505010987 15.756347199999958,206.27333059856707 15.756347199999958,205.5332028000001 C 15.756347199999958,204.6337887000001 11.615233899999957,204.6337887000001 11.615233899999957,203.7343747000001 C 11.615233899999957,203.24473472050056 15.457985698894667,203.01907458155023 18.99999999999998,202.7727551075489 L 19.0,195.23645181524012 L 19.0,200.84696559023905 L 18.999999999999957,200.8469655902391 C 17.366692207328587,200.65955713416125 16.02831979999996,200.44144191123354 16.02831979999996,200.0839840000001 C 16.02831979999996,199.1582027000001 16.49072209999996,199.1582027000001 16.49072209999996,198.2324215000001 C 16.49072209999996,197.2968746000001 10.35742129999996,197.2968746000001 10.35742129999996,196.3623043000001 C 10.35742129999996,195.76710447512193 15.503835336359444,195.56493296493613 18.99999999999997,195.23645181524014 L 19.0,187.76102926284932 L 19.0,193.57144680702245 L 18.99999999999995,193.57144680702243 C 17.8092736060763,193.36641241304244 16.73730409999996,193.14142480925238 16.73730409999996,192.73632780000008 C 16.73730409999996,191.8164059000001 10.10644469999996,191.8164059000001 10.10644469999996,190.89648400000007 C 10.10644469999996,189.96679650000007 4.75488219999996,189.96679650000007 4.75488219999996,189.03710900000007 C 4.75488219999996,188.35702683834813 13.932406667541786,188.1692648857595 19.000000000000043,187.76102926284935 L 19.0,172.9747903462583 L 19.0,182.4898524163101 L 18.999999999999964,182.4898524163101 C 17.366116289109772,182.28763674248822 15.93701109999996,182.06118271461742 15.93701109999996,181.66503870000005 C 15.93701109999996,180.73046840000006 12.55859309999996,180.73046840000006 12.55859309999996,179.79492150000004 C 12.55859309999996,178.89355430000003 13.484374399999961,178.89355430000003 13.484374399999961,177.99218710000005 C 13.484374399999961,177.08105430000006 7.437499399999961,177.08105430000006 7.437499399999961,176.16992150000004 C 7.437499399999961,175.24804650000004 5.273436899999961,175.24804650000004 5.273436899999961,174.32714810000004 C 5.273436899999961,173.60632310214294 14.723292754471698,173.44321175216214 19.000000000000025,172.9747903462584 L 19.0,162.90945784982884 L 19.0,171.96305764992604 L 19.0,171.9630576499261 C 14.85236135076923,171.51846731918815 5.884276699999962,171.3590989057717 5.884276699999962,170.66992150000004 C 5.884276699999962,169.76269490000004 4.086425099999962,169.76269490000004 4.086425099999962,168.85546840000003 C 4.086425099999962,167.93749960000002 5.526854799999962,167.93749960000002 5.526854799999962,167.01953090000003 C 5.526854799999962,166.08984340000003 9.655272799999963,166.08984340000003 9.655272799999963,165.16113250000004 C 9.655272799999963,164.22070280000003 18.545897799999963,164.22070280000003 18.545897799999963,163.28124970000005 C 18.545897799999963,163.13669324573402 18.715298800271757,163.01521994896493 19.000000000000014,162.90945784982884 L 19.0,152.74218172496495 L 19.0,160.61027934195562 L 19.00000000000001,160.61027934195567 C 15.220433016411018,160.3611713604414 11.108886099999962,160.1336604226635 11.108886099999962,159.63867150000004 C 11.108886099999962,158.71093710000005 17.33203059999996,158.71093710000005 17.33203059999996,157.78417930000003 C 17.33203059999996,156.84472620000003 17.87890559999996,156.84472620000003 17.87890559999996,155.90527300000002 C 17.87890559999996,155.00195270000003 12.05322199999996,155.00195270000003 12.05322199999996,154.0986324 C 12.05322199999996,153.37638251870953 16.94057228256942,153.2242119826887 19.00000000000003,152.742181724965 L 19.0,138.4029996326028 L 19.0,151.8820667602644 L 19.00000000000001,151.8820667602644 C 16.103859463202177,151.31727585112947 7.19677669999996,151.19096994574804 7.19677669999996,150.4140621 C 7.19677669999996,149.474609 6.40820249999996,149.474609 6.40820249999996,148.5341793 C 6.40820249999996,147.63085900000002 15.134276699999958,147.63085900000002 15.134276699999958,146.7285152 C 15.134276699999958,145.8124996 9.323241499999959,145.8124996 9.323241499999959,144.8974605 C 9.323241499999959,143.9687496 15.646483699999958,143.9687496 15.646483699999958,143.0410152 C 15.646483699999958,142.1494136 13.555175099999959,142.1494136 13.555175099999959,141.2578121 C 13.555175099999959,140.3535152 7.984862599999959,140.3535152 7.984862599999959,139.45019489999999 C 7.984862599999959,138.9057666769891 14.061917290391929,138.68457139970096 19.000000000000068,138.4029996326028 L 19.0,133.02177790803935 L 19.0,136.60233114952263 L 18.99999999999988,136.60233114952268 C 16.71838199640241,136.3949630588216 14.683593099999955,136.1657206651886 14.683593099999955,135.7568355 C 14.683593099999955,134.86328079999998 11.650389999999955,134.86328079999998 11.650389999999955,133.9707027 C 11.650389999999955,133.48906772823113 15.444556751129483,133.2634021313928 18.999999999999964,133.02177790803944 L 19.0,129.3871243900132 L 19.0,131.03966721516906 L 19.00000000000004,131.039667215169 C 17.57531645790825,130.86138251148842 16.463866599999953,130.64966823337474 16.463866599999953,130.3193355 C 16.463866599999953,129.85354254035218 17.729911857077944,129.61990234787177 18.999999999999915,129.38712439001324 L 19.0,124.27778214024093 L 19.0,127.91796587697732 L 19.00000000000003,127.91796587697736 C 14.405756171108015,127.49841157434282 5.237304099999953,127.33007613382244 5.237304099999953,126.6582026 C 5.237304099999953,125.7480463 18.485839299999952,125.7480463 18.485839299999952,124.8378901 C 18.485839299999952,124.60084902412292 18.692502898532563,124.42450097763947 19.000000000000046,124.27778214024094 L 19.0,116.36414643391126 L 19.0,122.08889690400326 L 18.99999999999996,122.08889690400328 C 17.73806726525737,121.87112852287922 16.498046399999954,121.64964010399005 16.498046399999954,121.214355 C 16.498046399999954,120.3134761 17.545897999999955,120.3134761 17.545897999999955,119.41210889999999 C 17.545897999999955,118.495605 15.622558199999954,118.495605 15.622558199999954,117.57910109999999 C 15.622558199999954,116.9335093609496 17.713171433860985,116.7348198380819 19.00000000000003,116.36414643391124 L 19.0,105.74842406353467 L 19.0,115.27817095753639 L 18.99999999999999,115.2781709575364 C 16.503759100107818,114.78606987479009 10.127929299999956,114.64539141253441 10.127929299999954,113.92675729999998 C 10.127929299999954,113.01757759999998 8.221190999999953,113.01757759999998 8.221190999999953,112.10839789999997 C 8.221190999999953,111.18212839999997 15.984862899999953,111.18212839999997 15.984862899999953,110.25585879999997 C 15.984862899999953,109.37011659999997 10.048339499999955,109.37011659999997 10.048339499999955,108.48437439999996 C 10.048339499999955,107.58154239999996 13.944335599999954,107.58154239999996 13.944335599999954,106.67871029999996 C 13.944335599999954,106.21192161611432 16.490379345870974,105.98186615770106 18.999999999999943,105.74842406353471 L 19.0,99.87732512911698 L 19.0,103.74765220036238 L 18.999999999999986,103.74765220036242 C 17.61085083289956,103.55430379635352 16.464355099999953,103.33007776719154 16.464355099999953,102.95996029999996 C 16.464355099999953,102.06152279999996 13.258788699999952,102.06152279999996 13.258788699999952,101.16357359999996 C 13.258788699999952,100.47757707328442 17.076561576080284,100.3047705547999 18.999999999999957,99.87732512911704 L 19.0,92.62716136284274 L 19.0,98.60583092159538 L 18.99999999999995,98.60583092159538 C 17.8803517100565,98.27616726589943 16.292480099999953,98.06239433889743 16.292480099999953,97.45605399999995 C 16.292480099999953,96.56103449999995 9.574218399999953,96.56103449999995 9.574218399999953,95.66601489999995 C 9.574218399999953,94.75097579999995 9.781737899999953,94.75097579999995 9.781737899999953,93.83593679999996 C 9.781737899999953,93.19408612331084 15.442059187839309,92.99236023163651 19.00000000000002,92.62716136284271 L 19.0,89.31934923421942 L 19.0,91.11255058553155 L 19.00000000000001,91.11255058553158 C 17.349067150281257,90.87385399735048 15.585937099999953,90.65124836640946 15.585937099999953,90.17578059999995 C 15.585937099999951,89.7572694895978 17.223172622181742,89.53017265813743 19.000000000000103,89.3193492342194 L 19.0,79.66782927072902 L 19.0,87.1956174858588 L 19.000000000000046,87.19561748585882 C 17.99905722032294,87.0155100362883 17.22460899999995,86.80107006435543 17.22460899999995,86.46923759999996 C 17.22460899999995,85.57421809999995 10.002440999999951,85.57421809999995 10.002440999999951,84.67871029999996 C 10.002440999999951,83.76074149999997 6.655272999999951,83.76074149999997 6.655272999999951,82.84228449999996 C 6.655272999999951,81.96777279999996 4.811522999999951,81.96777279999996 4.811522999999951,81.09326109999996 C 4.811522999999951,80.33946607580816 15.551628767089275,80.21845399579217 19.000000000000043,79.66782927072899 L 19.0,74.36038552360012 L 19.0,77.18820365202026 L 19.000000000000007,77.18820365202026 C 16.299380099985996,76.56140140603405 4.153808199999949,76.47455072217463 4.153808199999949,75.69335879999997 C 4.153808199999949,74.98335282086214 14.531743536481695,74.83050503840067 19.00000000000004,74.36038552360012 L 19.0,67.78173860738521 L 19.0,71.20487391772187 L 18.999999999999957,71.2048739177219 C 15.399572639013751,70.95528566224412 11.350585499999951,70.73596491355036 11.350585499999951,70.24267519999997 C 11.350585499999951,69.32568299999997 17.06933549999995,69.32568299999997 17.06933549999995,68.40869079999996 C 17.06933549999995,68.12927477279096 17.88781938151409,67.93943530436961 18.999999999999954,67.78173860738522 L 19.0,60.21255293153443 L 19.0,65.83176052227377 L 18.999999999999968,65.83176052227378 C 15.140620447183476,65.5814978446578 10.854003499999951,65.35839451281757 10.854003499999951,64.86279229999995 C 10.854003499999951,63.928221999999955 6.483886299999951,63.928221999999955 6.483886299999951,62.99365169999995 C 6.483886299999951,62.10449149999995 12.130858999999951,62.10449149999995 12.130858999999951,61.215331399999954 C 12.130858999999951,60.70108569973705 15.770534136954453,60.472941858360215 19.000000000000156,60.21255293153441 L 19.0,56.6687368245479 L 19.0,58.41094924283245 L 18.999999999999872,58.41094924283244 C 17.187309321140617,58.214446894643785 15.564452799999952,57.9979676970561 15.564452799999952,57.61035089999996 C 15.564452799999952,57.13520443088292 17.315472440484946,56.90665264781663 18.999999999999957,56.66873682454792 L 19.0,53.29714569100623 L 19.0,54.81028890482817 L 19.000000000000043,54.8102889048282 C 17.964641312467823,54.6217793728395 17.065917699999954,54.40951649252073 17.065917699999954,54.04101489999996 C 17.065917699999954,53.69459073927213 17.930141582976102,53.480164355371016 19.000000000000014,53.29714569100622 L 19.0,47.72929486153534 L 19.0,51.585189722274244 L 19.000000000000085,51.58518972227425 C 14.386309350005694,51.26504958971432 7.447265299999954,51.07368255699947 7.447265299999954,50.49804609999996 C 7.447265299999954,49.59179609999996 12.061034799999954,49.59179609999996 12.061034799999954,48.68554609999996 C 12.061034799999954,48.19175012620167 15.810201288391557,47.98168880111832 19.000000000000032,47.72929486153534 L 19.0,40.41093171762108 L 19.0,46.252997017075444 L 18.999999999999975,46.252997017075444 C 14.611365371824824,45.940255649918754 8.530761399999957,45.73067207612107 8.530761399999957,45.149901599999964 C 8.530761399999957,44.28710859999996 4.700194999999956,44.28710859999996 4.700194999999956,43.424803899999965 C 4.700194999999956,42.50634689999997 4.484862999999956,42.50634689999997 4.484862999999956,41.587889799999964 C 4.484862999999956,40.96082721536686 13.749563605963809,40.783144613644325 18.999999999999897,40.41093171762109 L 19.0,22.62715316885546 L 19.0,39.303131379274305 L 19.00000000000007,39.30313137927431 C 13.60585933121844,38.94551128538187 3.9204098999999566,38.77902400000071 3.9204098999999566,38.18115149999996 C 3.9204098999999566,37.28710849999996 11.725585699999957,37.28710849999996 11.725585699999957,36.393065599999964 C 11.725585699999957,35.541014799999964 17.284179499999958,35.541014799999964 17.284179499999958,34.688475799999964 C 17.284179499999958,33.87988199999997 5.537597499999958,33.87988199999997 5.537597499999958,33.071776599999964 C 5.537597499999958,32.17968679999996 13.426757699999957,32.17968679999996 13.426757699999957,31.287596899999965 C 13.426757699999957,30.426757099999964 7.923339699999957,30.426757099999964 7.923339699999957,29.565917199999966 C 7.923339699999957,28.735350799999967 8.943847499999958,28.735350799999967 8.943847499999958,27.904784399999965 C 8.943847499999958,27.102538299999964 4.3286130999999575,27.102538299999964 4.3286130999999575,26.299803899999965 C 4.3286130999999575,25.520995299999964 17.16162089999996,25.520995299999964 17.16162089999996,24.742186699999966 C 17.16162089999996,23.978514799999967 17.16650369999996,23.978514799999967 17.16650369999996,23.215331199999966 C 17.16650369999996,22.946945983220267 17.96514544755034,22.773063473167067 19.000000000000018,22.627153168855457 L 19.0,20.843380255281858 L 19.0,21.199616149408804 L 18.999999999999964,21.199616149408804 C 13.251297126888762,20.931838919129092 4.167968599999963,20.782494380716958 4.167968599999963,20.310545999999967 C 4.167968599999963,19.854633669189237 13.626946993234743,20.602159542225582 18.999999999999957,20.843380255281875 L 19.0,17.5254948977679 L 19.0,18.209371170068653 L 19.00000000000005,18.209371170068714 C 18.52569458620726,17.65014854997418 17.996173894956335,17.084160250914774 18.291503699999964,16.874510899999965 C 18.49770563957296,16.728442298412784 18.742926600162264,17.0882242254183 18.999999999999954,17.52549489776782 Z" style="fill:none;stroke:#0C3D1B;stroke-width:0.5;"/>
    </g>
   </g>
  </svg>
  <svg height="242.6679688" id="clip-33.41728516x242.6679688" viewBox="0.000000 0.000000 33.417285 242.667969" width="33.41728516">
   <g style="fill-rule:nonzero;clip-rule:nonzero;stroke:#000000;stroke-miterlimit:4;">
    <path d="M 35.41728516,0.25000000000000355 L 35.41728516,242.4179688 L 35.417285160000006,242.4179688 L 7.111328100000009,242.4179688 L 7.1113281,242.4179688 C 3.3359374999999996,242.4179688 0.25,239.3242188 0.25,235.546875 L 0.25,7.1201172 C 0.25,3.3427734 3.3359375,0.25 7.1113281,0.25 L 35.417285159999985,0.25 Z" style="fill:#FFFFFF;stroke-width:0.5;"/>
    <g>
     <path d="M 35.41728516,14.241210999999996 L 35.41728516,228.17578129999995 L 35.41728515999999,228.17578129999998 L 20.26367189999999,228.17578129999998 L 20.2636719,228.17578129999998 C 17.140625,228.17578129999998 14.585937499999998,225.4433594 14.585937499999998,222.1074219 L 14.585937499999998,20.3105469 C 14.585937499999998,16.972656299999997 17.140625,14.241211 20.2636719,14.241211 L 35.41728516000002,14.241211 Z" style="fill:#F7F619;stroke:none;"/>
     <path d="M 35.41728516,15.287636624082676 L 35.41728516,231.72991246110047 C 34.34854817843334,231.5474383187691 33.642710827466395,231.2919923 31.6665038,231.29199230000003 C 28.7792968,231.29199230000003 28.7792968,227.89843760000002 25.8920897,227.89843760000002 C 23.077636599999998,227.89843760000002 23.077636599999998,217.60449230000003 20.2636717,217.60449230000003 C 18.6538084,217.60449230000003 14.6000975,229.76562510000002 13.5644529,228.60449230000003 C 12.590820099999998,227.51367200000004 14.7724607,223.72363290000004 14.7724607,222.10742200000004 C 14.7724607,219.12695320000003 19.4555662,219.12695320000003 19.4555662,216.14550790000004 C 19.4555662,213.15136730000003 20.8647459,213.15136730000003 20.8647459,210.15722660000003 C 20.8647459,207.14746100000002 21.748535,207.14746100000002 21.748535,204.13769530000002 C 21.748535,201.1103515 11.4150389,201.1103515 11.4150389,198.08300780000002 C 11.4150389,195.10937500000003 15.5361327,195.10937500000003 15.5361327,192.1357422 C 15.5361327,189.1425781 14.4936522,189.1425781 14.4936522,186.1484375 C 14.4936522,183.1328125 15.7783202,183.1328125 15.7783202,180.1171875 C 15.7783202,177.1523437 15.2861327,177.1523437 15.2861327,174.1884766 C 15.2861327,171.1982422 13.668456899999999,171.1982422 13.668456899999999,168.2080078 C 13.668456899999999,165.18847649999998 18.0170897,165.18847649999998 18.0170897,162.1689453 C 18.0170897,159.19726559999998 5.126953,159.19726559999998 5.126953,156.2255859 C 5.126953,153.21875 8.0253905,153.21875 8.0253905,150.2128906 C 8.0253905,147.2519531 21.1596678,147.2519531 21.1596678,144.2910156 C 21.1596678,141.2890625 18.8930662,141.2890625 18.8930662,138.2871093 C 18.8930662,135.3261718 21.1645506,135.3261718 21.1645506,132.3662109 C 21.1645506,129.3574218 14.730956799999998,129.3574218 14.730956799999998,126.3476562 C 14.730956799999998,123.3730468 5.834960699999998,123.3730468 5.834960699999998,120.3984374 C 5.834960699999998,117.36328110000001 18.062987999999997,117.36328110000001 18.062987999999997,114.3281249 C 18.062987999999997,111.31835930000001 22.130370799999998,111.31835930000001 22.130370799999998,108.30908190000001 C 22.130370799999998,105.32226550000001 22.523437199999996,105.32226550000001 22.523437199999996,102.3359374 C 22.523437199999996,99.3691405 16.392577799999998,99.3691405 16.392577799999998,96.4018554 C 16.392577799999998,93.449707 18.771972299999998,93.449707 18.771972299999998,90.4975585 C 18.771972299999998,87.55468739999999 23.665038699999997,87.55468739999999 23.665038699999997,84.6118163 C 23.665038699999997,81.6708983 19.398437099999995,81.6708983 19.398437099999995,78.7294921 C 19.398437099999995,75.7792968 22.748046499999994,75.7792968 22.748046499999994,72.82958980000001 C 22.748046499999994,69.8564453 24.376464499999994,69.8564453 24.376464499999994,66.88281250000001 C 24.376464499999994,63.86523440000001 10.496093399999994,63.86523440000001 10.496093399999994,60.84814450000002 C 10.496093399999994,57.89453120000002 13.659667599999993,57.89453120000002 13.659667599999993,54.94140620000002 C 13.659667599999993,52.041015600000016 13.231444899999994,52.041015600000016 13.231444899999994,49.14013670000001 C 13.231444899999994,46.12011720000001 7.017089399999994,46.12011720000001 7.017089399999994,43.09960940000001 C 7.017089399999994,40.20947270000001 11.060058199999993,40.20947270000001 11.060058199999993,37.319336000000014 C 11.060058199999993,34.36425790000001 11.847655899999992,34.36425790000001 11.847655899999992,31.409179700000013 C 11.847655899999992,28.483886700000014 19.045409799999995,28.483886700000014 19.045409799999995,25.558593800000015 C 19.045409799999995,22.934570400000016 12.314452799999994,22.934570400000016 12.314452799999994,20.310546900000013 C 12.314452799999994,18.590332100000012 20.186523099999995,21.85546880000001 21.271972299999995,20.748535200000013 C 22.291991799999995,19.707519600000012 18.750487899999996,7.655761800000013 20.263671499999994,7.655761800000013 C 23.297362899999992,7.655761800000013 23.297362899999992,24.836914100000016 26.331054299999995,24.836914100000016 C 29.412597299999995,24.836914100000016 29.412597299999995,19.309082100000015 32.4946285,19.309082100000015 C 33.935254651276,19.309082100000012 34.694831809233634,17.351707361313824 35.41728515999997,15.28763662408271 Z" style="fill:none;stroke:#0C3D1B;stroke-width:0.75;"/>
     <path d="M 35.41728516,21.468227629432892 L 35.41728516,225.59157450185032 L 35.41728515999999,225.59157450185026 C 35.31359821153419,225.75230290047705 35.1933948121201,225.84960890000008 35.04785099999995,225.84960890000008 C 34.13330019999995,225.84960890000008 34.13330019999995,233.50585890000008 33.21874939999995,233.50585890000008 C 32.33740169999995,233.50585890000008 32.33740169999995,230.6494136000001 31.45605409999995,230.6494136000001 C 30.60888609999995,230.6494136000001 30.60888609999995,224.7343745000001 29.76122989999995,224.7343745000001 C 28.94726509999995,224.7343745000001 28.94726509999995,225.7119136000001 28.13330019999995,225.7119136000001 C 27.19433539999995,225.7119136000001 27.19433539999995,224.8164058000001 26.25537049999995,224.8164058000001 C 25.47705019999995,224.8164058000001 25.47705019999995,232.5107417000001 24.69872989999995,232.5107417000001 C 23.93505799999995,232.5107417000001 23.93505799999995,224.6191401000001 23.17187439999995,224.6191401000001 C 22.41064389999995,224.6191401000001 22.41064389999995,234.9111323000001 21.64892519999995,234.9111323000001 C 20.95654239999995,234.9111323000001 20.95654239999995,232.0644526000001 20.263671299999952,232.0644526000001 C 19.585936899999954,232.0644526000001 16.323729899999954,234.73339790000009 15.720214299999952,234.4980464000001 C 15.118163499999952,234.2626948000001 11.674804099999953,233.54785110000012 11.186522899999952,233.1230464000001 C 10.704100999999952,232.7021480000001 18.74511669999995,224.1445308000001 18.412597099999953,223.57910110000012 C 18.126952599999953,223.09472610000012 7.217772899999954,226.3417964000001 7.069335399999954,225.77831990000013 C 6.932128399999954,225.25781210000014 20.005370599999953,222.67285110000012 20.005370599999953,222.10742150000013 C 20.005370599999953,221.20117150000013 12.229979999999953,221.20117150000013 12.229979999999953,220.29589810000013 C 12.229979999999953,219.38281220000013 6.090819799999953,219.38281220000013 6.090819799999953,218.46874970000013 C 6.090819799999953,217.54687470000013 24.451659599999953,217.54687470000013 24.451659599999953,216.62499970000013 C 24.451659599999953,215.69531220000013 18.784179099999953,215.69531220000013 18.784179099999953,214.76464810000013 C 18.784179099999953,213.82617150000013 13.035155699999954,213.82617150000013 13.035155699999954,212.88769500000012 C 13.035155699999954,211.98046840000012 8.215331499999955,211.98046840000012 8.215331499999955,211.07421840000012 C 8.215331499999955,210.15917930000012 13.075683099999956,210.15917930000012 13.075683099999956,209.2441403000001 C 13.075683099999956,208.3203122000001 19.39843699999996,208.3203122000001 19.39843699999996,207.3974606000001 C 19.39843699999996,206.4648434000001 15.756347199999958,206.4648434000001 15.756347199999958,205.5332028000001 C 15.756347199999958,204.6337887000001 11.615233899999957,204.6337887000001 11.615233899999957,203.7343747000001 C 11.615233899999957,202.8261716000001 24.83593699999996,202.8261716000001 24.83593699999996,201.9179684000001 C 24.83593699999996,201.00097620000008 16.02831979999996,201.00097620000008 16.02831979999996,200.0839840000001 C 16.02831979999996,199.1582027000001 16.49072209999996,199.1582027000001 16.49072209999996,198.2324215000001 C 16.49072209999996,197.2968746000001 10.35742129999996,197.2968746000001 10.35742129999996,196.3623043000001 C 10.35742129999996,195.46093710000008 22.16015569999996,195.46093710000008 22.16015569999996,194.5585934000001 C 22.16015569999996,193.6474606000001 16.73730409999996,193.6474606000001 16.73730409999996,192.73632780000008 C 16.73730409999996,191.8164059000001 10.10644469999996,191.8164059000001 10.10644469999996,190.89648400000007 C 10.10644469999996,189.96679650000007 4.75488219999996,189.96679650000007 4.75488219999996,189.03710900000007 C 4.75488219999996,188.09765590000006 22.26757749999996,188.09765590000006 22.26757749999996,187.15820270000006 C 22.26757749999996,186.25195270000006 22.12841729999996,186.25195270000006 22.12841729999996,185.34667930000006 C 22.12841729999996,184.43164020000006 23.72558529999996,184.43164020000006 23.72558529999996,183.51562460000005 C 23.72558529999996,182.58984330000004 15.93701109999996,182.58984330000004 15.93701109999996,181.66503870000005 C 15.93701109999996,180.73046840000006 12.55859309999996,180.73046840000006 12.55859309999996,179.79492150000004 C 12.55859309999996,178.89355430000003 13.484374399999961,178.89355430000003 13.484374399999961,177.99218710000005 C 13.484374399999961,177.08105430000006 7.437499399999961,177.08105430000006 7.437499399999961,176.16992150000004 C 7.437499399999961,175.24804650000004 5.273436899999961,175.24804650000004 5.273436899999961,174.32714810000004 C 5.273436899999961,173.39550750000004 21.05908139999996,173.39550750000004 21.05908139999996,172.46386680000003 C 21.05908139999996,171.56640590000003 5.884276699999962,171.56640590000003 5.884276699999962,170.66992150000004 C 5.884276699999962,169.76269490000004 4.086425099999962,169.76269490000004 4.086425099999962,168.85546840000003 C 4.086425099999962,167.93749960000002 5.526854799999962,167.93749960000002 5.526854799999962,167.01953090000003 C 5.526854799999962,166.08984340000003 9.655272799999963,166.08984340000003 9.655272799999963,165.16113250000004 C 9.655272799999963,164.22070280000003 18.545897799999963,164.22070280000003 18.545897799999963,163.28124970000005 C 18.545897799999963,162.37597630000005 25.189452499999962,162.37597630000005 25.189452499999962,161.47070280000005 C 25.189452499999962,160.55468720000005 11.108886099999962,160.55468720000005 11.108886099999962,159.63867150000004 C 11.108886099999962,158.71093710000005 17.33203059999996,158.71093710000005 17.33203059999996,157.78417930000003 C 17.33203059999996,156.84472620000003 17.87890559999996,156.84472620000003 17.87890559999996,155.90527300000002 C 17.87890559999996,155.00195270000003 12.05322199999996,155.00195270000003 12.05322199999996,154.0986324 C 12.05322199999996,153.1835933 19.89794859999996,153.1835933 19.89794859999996,152.2685543 C 19.89794859999996,151.34179650000002 7.19677669999996,151.34179650000002 7.19677669999996,150.4140621 C 7.19677669999996,149.474609 6.40820249999996,149.474609 6.40820249999996,148.5341793 C 6.40820249999996,147.63085900000002 15.134276699999958,147.63085900000002 15.134276699999958,146.7285152 C 15.134276699999958,145.8124996 9.323241499999959,145.8124996 9.323241499999959,144.8974605 C 9.323241499999959,143.9687496 15.646483699999958,143.9687496 15.646483699999958,143.0410152 C 15.646483699999958,142.1494136 13.555175099999959,142.1494136 13.555175099999959,141.2578121 C 13.555175099999959,140.3535152 7.984862599999959,140.3535152 7.984862599999959,139.45019489999999 C 7.984862599999959,138.53320269999998 25.225096999999955,138.53320269999998 25.225096999999955,137.6171871 C 25.225096999999955,136.6874996 14.683593099999955,136.6874996 14.683593099999955,135.7568355 C 14.683593099999955,134.86328079999998 11.650389999999955,134.86328079999998 11.650389999999955,133.9707027 C 11.650389999999955,133.0644527 25.083495499999955,133.0644527 25.083495499999955,132.1591793 C 25.083495499999955,131.2392574 16.463866599999953,131.2392574 16.463866599999953,130.3193355 C 16.463866599999953,129.3847652 21.560546299999952,129.3847652 21.560546299999952,128.4511714 C 21.560546299999952,127.55468699999999 5.237304099999953,127.55468699999999 5.237304099999953,126.6582026 C 5.237304099999953,125.7480463 18.485839299999952,125.7480463 18.485839299999952,124.8378901 C 18.485839299999952,123.9121088 21.638183099999953,123.9121088 21.638183099999953,122.9873042 C 21.638183099999953,122.1005854 16.498046399999954,122.1005854 16.498046399999954,121.214355 C 16.498046399999954,120.3134761 17.545897999999955,120.3134761 17.545897999999955,119.41210889999999 C 17.545897999999955,118.495605 15.622558199999954,118.495605 15.622558199999954,117.57910109999999 C 15.622558199999954,116.64648389999999 19.985351199999954,116.64648389999999 19.985351199999954,115.71337839999998 C 19.985351199999954,114.82031199999999 10.127929299999954,114.82031199999999 10.127929299999954,113.92675729999998 C 10.127929299999954,113.01757759999998 8.221190999999953,113.01757759999998 8.221190999999953,112.10839789999997 C 8.221190999999953,111.18212839999997 15.984862899999953,111.18212839999997 15.984862899999953,110.25585879999997 C 15.984862899999953,109.37011659999997 10.048339499999955,109.37011659999997 10.048339499999955,108.48437439999996 C 10.048339499999955,107.58154239999996 13.944335599999954,107.58154239999996 13.944335599999954,106.67871029999996 C 13.944335599999954,105.75830009999996 23.843261399999953,105.75830009999996 23.843261399999953,104.83788999999996 C 23.843261399999953,103.89892519999997 16.464355099999953,103.89892519999997 16.464355099999953,102.95996029999996 C 16.464355099999953,102.06152279999996 13.258788699999952,102.06152279999996 13.258788699999952,101.16357359999996 C 13.258788699999952,100.24658139999997 20.08056599999995,100.24658139999997 20.08056599999995,99.32958919999996 C 20.08056599999995,98.39257749999996 16.292480099999953,98.39257749999996 16.292480099999953,97.45605399999995 C 16.292480099999953,96.56103449999995 9.574218399999953,96.56103449999995 9.574218399999953,95.66601489999995 C 9.574218399999953,94.75097579999995 9.781737899999953,94.75097579999995 9.781737899999953,93.83593679999996 C 9.781737899999953,92.89990159999995 21.819823799999952,92.89990159999995 21.819823799999952,91.96386649999995 C 21.819823799999952,91.06982349999996 15.585937099999953,91.06982349999996 15.585937099999953,90.17578059999995 C 15.585937099999953,89.26074149999995 23.412597299999952,89.26074149999995 23.412597299999952,88.34521419999996 C 23.412597299999952,87.40722589999996 17.22460899999995,87.40722589999996 17.22460899999995,86.46923759999996 C 17.22460899999995,85.57421809999995 10.002440999999951,85.57421809999995 10.002440999999951,84.67871029999996 C 10.002440999999951,83.76074149999997 6.655272999999951,83.76074149999997 6.655272999999951,82.84228449999996 C 6.655272999999951,81.96777279999996 4.811522999999951,81.96777279999996 4.811522999999951,81.09326109999996 C 4.811522999999951,80.19531189999996 20.05224569999995,80.19531189999996 20.05224569999995,79.29736269999997 C 20.05224569999995,78.37402289999997 19.52783159999995,78.37402289999997 19.52783159999995,77.45117129999997 C 19.52783159999995,76.57226499999997 4.153808199999949,76.57226499999997 4.153808199999949,75.69335879999997 C 4.153808199999949,74.78857359999996 21.00683549999995,74.78857359999996 21.00683549999995,73.88378849999997 C 21.00683549999995,72.95117129999997 24.477050299999952,72.95117129999997 24.477050299999952,72.01855409999996 C 24.477050299999952,71.13085879999996 11.350585499999951,71.13085879999996 11.350585499999951,70.24267519999997 C 11.350585499999951,69.32568299999997 17.06933549999995,69.32568299999997 17.06933549999995,68.40869079999996 C 17.06933549999995,67.53710879999996 25.03320269999995,67.53710879999996 25.03320269999995,66.66552669999996 C 25.03320269999995,65.76415949999996 10.854003499999951,65.76415949999996 10.854003499999951,64.86279229999995 C 10.854003499999951,63.928221999999955 6.483886299999951,63.928221999999955 6.483886299999951,62.99365169999995 C 6.483886299999951,62.10449149999995 12.130858999999951,62.10449149999995 12.130858999999951,61.215331399999954 C 12.130858999999951,60.29101499999995 23.889648099999953,60.29101499999995 23.889648099999953,59.36669859999996 C 23.889648099999953,58.48828059999995 15.564452799999952,58.48828059999995 15.564452799999952,57.61035089999996 C 15.564452799999952,56.69482359999996 22.065429399999953,56.69482359999996 22.065429399999953,55.779296199999955 C 22.065429399999953,54.91015559999995 17.065917699999954,54.91015559999995 17.065917699999954,54.04101489999996 C 17.065917699999954,53.131835199999955 23.018554399999953,53.131835199999955 23.018554399999953,52.22265549999996 C 23.018554399999953,51.36035079999996 7.447265299999954,51.36035079999996 7.447265299999954,50.49804609999996 C 7.447265299999954,49.59179609999996 12.061034799999954,49.59179609999996 12.061034799999954,48.68554609999996 C 12.061034799999954,47.82617109999996 23.416503599999956,47.82617109999996 23.416503599999956,46.96679609999996 C 23.416503599999956,46.05859299999996 8.530761399999957,46.05859299999996 8.530761399999957,45.149901599999964 C 8.530761399999957,44.28710859999996 4.700194999999956,44.28710859999996 4.700194999999956,43.424803899999965 C 4.700194999999956,42.50634689999997 4.484862999999956,42.50634689999997 4.484862999999956,41.587889799999964 C 4.484862999999956,40.712889799999964 22.524413799999955,40.712889799999964 22.524413799999955,39.838378099999964 C 22.524413799999955,39.009764799999964 3.9204098999999566,39.009764799999964 3.9204098999999566,38.18115149999996 C 3.9204098999999566,37.28710849999996 11.725585699999957,37.28710849999996 11.725585699999957,36.393065599999964 C 11.725585699999957,35.541014799999964 17.284179499999958,35.541014799999964 17.284179499999958,34.688475799999964 C 17.284179499999958,33.87988199999997 5.537597499999958,33.87988199999997 5.537597499999958,33.071776599999964 C 5.537597499999958,32.17968679999996 13.426757699999957,32.17968679999996 13.426757699999957,31.287596899999965 C 13.426757699999957,30.426757099999964 7.923339699999957,30.426757099999964 7.923339699999957,29.565917199999966 C 7.923339699999957,28.735350799999967 8.943847499999958,28.735350799999967 8.943847499999958,27.904784399999965 C 8.943847499999958,27.102538299999964 4.3286130999999575,27.102538299999964 4.3286130999999575,26.299803899999965 C 4.3286130999999575,25.520995299999964 17.16162089999996,25.520995299999964 17.16162089999996,24.742186699999966 C 17.16162089999996,23.978514799999967 17.16650369999996,23.978514799999967 17.16650369999996,23.215331199999966 C 17.16650369999996,22.453124199999966 23.60790999999996,22.453124199999966 23.60790999999996,21.691405399999965 C 23.60790999999996,21.000975699999966 4.167968599999963,21.000975699999966 4.167968599999963,20.310545999999967 C 4.167968599999963,19.676756899999965 22.447753799999962,21.368651499999967 22.618652199999964,20.792967899999965 C 22.815917799999966,20.126952299999964 19.181152199999964,19.920409299999964 19.567870899999964,19.374510899999965 C 19.957519299999962,18.824217899999965 17.752929499999965,17.256835099999964 18.291503699999964,16.874510899999965 C 18.763671699999964,16.540038199999966 19.440429499999965,18.857909299999964 19.995605299999966,18.685057799999964 C 20.496581899999967,18.529296099999964 19.717284999999965,16.945311699999962 20.263671699999964,16.945311699999962 C 21.178710799999966,16.945311699999962 21.178710799999966,10.080077299999962 22.093749799999966,10.080077299999962 C 23.021972499999965,10.080077299999962 23.021972499999965,11.708495299999962 23.949706799999966,11.708495299999962 C 24.891113099999966,11.708495299999962 24.891113099999966,9.989256999999961 25.832030999999965,9.989256999999961 C 26.735839599999967,9.989256999999961 26.735839599999967,17.76464759999996 27.640136499999965,17.76464759999996 C 28.557128699999964,17.76464759999996 28.557128699999964,16.08544839999996 29.474120899999964,16.08544839999996 C 30.404784999999965,16.08544839999996 30.404784999999965,14.443846799999962 31.335448999999965,14.443846799999962 C 32.28027319999997,14.443846799999962 32.28027319999997,4.636717899999962 33.22509739999997,4.636717899999962 C 34.13232399999997,4.636717899999962 34.13232399999997,21.32763589999996 35.03906219999997,21.32763589999996 C 35.186107586336554,21.32763589999996 35.309685794730505,21.38007950884788 35.417285160000084,21.468227629432967 Z" style="fill:none;stroke:#0C3D1B;stroke-width:0.5;"/>
    </g>
   </g>
  </svg>
  <svg height="242.6679688" id="image-167.0864258x242.6679688" viewBox="0.000000 0.000000 167.086426 242.667969" width="167.0864258">
   <g id="Layer_x0020_1" style="fill-rule:nonzero;clip-rule:nonzero;stroke:#000000;stroke-miterlimit:4;">
    <path d="M166.8364258,235.546875c0,3.7773438-3.0859375,6.8710938-6.8691406,6.8710938H7.1113281c-3.7753906,0-6.8613281-3.09375-6.8613281-6.8710938V7.1201172C0.25,3.3427734,3.3359375,0.25,7.1113281,0.25h152.855957    c3.7832031,0,6.8691406,3.0927734,6.8691406,6.8701172V235.546875z" style="fill:#FFFFFF;stroke-width:0.5;"/>
    <g>
     <path d="M152.4243164,222.1074219c0,3.3359375-2.5546875,6.0683594-5.6855469,6.0683594H20.2636719c-3.1230469,0-5.6777344-2.7324219-5.6777344-6.0683594V20.3105469c0-3.3378906,2.5546875-6.0693359,5.6777344-6.0693359h126.4750977     c3.1308594,0,5.6855469,2.7314453,5.6855469,6.0693359v201.796875z" style="fill:#F7F619;stroke:none;"/>
     <path d="M151.8842773,222.1074219c0,1.7177734-7.4492188-3.8867188-8.5332031-2.7792969c-1.0224609,1.0429688,4.90625,13.9492188,3.3876953,13.9492188c-3.0332031,0-3.0332031-4.84375-6.0673828-4.84375     c-3.0810547,0-3.0810547,2.8408203-6.1630859,2.8408203c-3.0478516,0-3.0478516-11.8652344-6.0957031-11.8652344c-3.0136719,0-3.0136719,13.7216797-6.0273438,13.7216797c-3.0761719,0-3.0761719,1.4013672-6.1513672,1.4013672     c-3.0517578,0-3.0517578-10.9355469-6.1044922-10.9355469c-3.03125,0-3.03125,3.5634766-6.0625,3.5634766c-3.0136719,0-3.0136719-6.4941406-6.0273438-6.4941406c-3.0019531,0-3.0019531,14.2666016-6.0029297,14.2666016     c-2.9951172,0-2.9951172-0.4365234-5.9902344-0.4365234c-2.9970703,0-2.9970703,2.7890625-5.9936523,2.7890625c-3.0102539,0-3.0102539-4.6123047-6.0200195-4.6123047c-3.0380859,0-3.0380859,3.2822266-6.0761719,3.2822266     c-3.0883789,0-3.0883789,2.2519531-6.1767578,2.2519531c-3.0332031,0-3.0332031-7.4355469-6.065918-7.4355469c-2.9907227,0-2.9907227,4.4228516-5.9814453,4.4228516c-2.9702148,0-2.9702148,1.5771484-5.940918,1.5771484     c-2.9882813,0-2.9882813-4.8613281-5.9765625-4.8613281c-3.0742188,0-3.0742188-0.6181641-6.1484375-0.6181641c-2.887207,0-2.887207-3.3935547-5.7744141-3.3935547c-2.8144531,0-2.8144531-10.2939453-5.628418-10.2939453     c-1.6098633,0-5.6635742,12.1611328-6.6992188,11c-0.9736328-1.0908203,1.2080078-4.8808594,1.2080078-6.4970703c0-2.9804688,4.6831055-2.9804688,4.6831055-5.9619141c0-2.9941406,1.4091797-2.9941406,1.4091797-5.9882813     c0-3.0097656,0.8837891-3.0097656,0.8837891-6.0195313c0-3.0273438-10.3334961-3.0273438-10.3334961-6.0546875c0-2.9736328,4.1210938-2.9736328,4.1210938-5.9472656c0-2.9931641-1.0424805-2.9931641-1.0424805-5.9873047     c0-3.015625,1.284668-3.015625,1.284668-6.03125c0-2.9648438-0.4921875-2.9648438-0.4921875-5.9287109c0-2.9902344-1.6176758-2.9902344-1.6176758-5.9804688c0-3.0195313,4.3486328-3.0195313,4.3486328-6.0390625     c0-2.9716797-12.8901367-2.9716797-12.8901367-5.9433594c0-3.0068359,2.8984375-3.0068359,2.8984375-6.0126953c0-2.9609375,13.1342773-2.9609375,13.1342773-5.921875c0-3.0019531-2.2666016-3.0019531-2.2666016-6.0039063     c0-2.9609375,2.2714844-2.9609375,2.2714844-5.9208984c0-3.0087891-6.4335938-3.0087891-6.4335938-6.0185547c0-2.9746094-8.8959961-2.9746094-8.8959961-5.9492188c0-3.0351563,12.2280273-3.0351563,12.2280273-6.0703125     c0-3.0097656,4.0673828-3.0097656,4.0673828-6.019043c0-2.9868164,0.3930664-2.9868164,0.3930664-5.9731445c0-2.9667969-6.1308594-2.9667969-6.1308594-5.934082c0-2.9521484,2.3793945-2.9521484,2.3793945-5.9042969     c0-2.9428711,4.8930664-2.9428711,4.8930664-5.8857422c0-2.940918-4.2666016-2.940918-4.2666016-5.8823242c0-2.9501953,3.3496094-2.9501953,3.3496094-5.8999023c0-2.9731445,1.628418-2.9731445,1.628418-5.9467773     c0-3.0175781-13.8803711-3.0175781-13.8803711-6.034668c0-2.9536133,3.1635742-2.9536133,3.1635742-5.9067383c0-2.9003906-0.4282227-2.9003906-0.4282227-5.8012695c0-3.0200195-6.2143555-3.0200195-6.2143555-6.0405273     c0-2.8901367,4.0429688-2.8901367,4.0429688-5.7802734c0-2.9550781,0.7875977-2.9550781,0.7875977-5.9101563c0-2.925293,7.1977539-2.925293,7.1977539-5.8505859c0-2.6240234-6.730957-2.6240234-6.730957-5.2480469     c0-1.7202148,7.8720703,1.5449219,8.9575195,0.4379883c1.0200195-1.0410156-2.5214844-13.0927734-1.0083008-13.0927734c3.0336914,0,3.0336914,17.1811523,6.0673828,17.1811523c3.081543,0,3.081543-5.527832,6.1635742-5.527832     c3.0473633,0,3.0473633-8.7583008,6.0947266-8.7583008c3.0136719,0,3.0136719-5.9301758,6.027832-5.9301758c3.0756836,0,3.0756836,10.8876953,6.1513672,10.8876953c3.0522461,0,3.0522461,6.8745117,6.1044922,6.8745117     c3.0307617,0,3.0307617-7.206543,6.0620117-7.206543c3.0136719,0,3.0136719-1.9238281,6.027832-1.9238281c3.0014648,0,3.0014648-6.9233398,6.0029297-6.9233398c2.9946289,0,2.9946289,7.4135742,5.9897461,7.4135742     c2.9970703,0,2.9970703,4.4414063,5.9941406,4.4414063c3.0097656,0,3.0097656-10.7319336,6.0195313-10.7319336c3.0390625,0,3.0390625,4.3203125,6.0771484,4.3203125c3.0888672,0,3.0888672,5.3520508,6.1767578,5.3520508     c3.0332031,0,3.0332031-9.2182617,6.0654297-9.2182617c2.9912109,0,2.9912109,8.3110352,5.9814453,8.3110352c2.9707031,0,2.9707031-2.1264648,5.9404297-2.1264648c2.9882813,0,2.9882813,8.3530273,5.9765625,8.3530273     c3.0751953,0,3.0751953-4.0117188,6.1494141-4.0117188c2.8867188,0,2.8867188-8.7001953,5.7734375-8.7001953c2.8144531,0,2.8144531,0.8510742,5.6289063,0.8510742c1.6123047,0,6.2255859,1.5600586,7.2617188,2.7182617     c0.9765625,1.0913086,2.4472656,5.3901367,2.4472656,7.0092773c0,2.980957-7.1923828,2.980957-7.1923828,5.9619141c0,2.9941406,4.5625,2.9941406,4.5625,5.9887695c0,3.0092773,8.4072266,3.0092773,8.4072266,6.019043     c0,3.0273438-10.7939453,3.0273438-10.7939453,6.0546875c0,2.9736328,8.6914063,2.9736328,8.6914063,5.9472656c0,2.9931641-4.1904297,2.9931641-4.1904297,5.9868164c0,3.0161133-13.1962891,3.0161133-13.1962891,6.0317383     c0,2.9648438,4.7705078,2.9648438,4.7705078,5.9291992c0,2.9897461-4.5039063,2.9897461-4.5039063,5.9799805c0,3.0195313,13.7099609,3.0195313,13.7099609,6.0385742c0,2.972168-5.1025391,2.972168-5.1025391,5.9438477     c0,3.0058594,9.8945313,3.0058594,9.8945313,6.012207c0,2.9614258-15.1308594,2.9614258-15.1308594,5.9223633c0,3.0019531,13.9863281,3.0019531,13.9863281,6.003418c0,2.9604492-17.6240234,2.9604492-17.6240234,5.9213867     c0,3.0092773,7.0800781,3.0092773,7.0800781,6.0185547c0,2.9746094,1.9111328,2.9746094,1.9111328,5.9492188c0,3.0351563,9.4394531,3.0351563,9.4394531,6.0703125c0,3.0097656-3.7597656,3.0097656-3.7597656,6.0185547     c0,2.9873047-13.8740234,2.9873047-13.8740234,5.9736328c0,2.9667969,10.0888672,2.9667969,10.0888672,5.9345703c0,2.9521484-2.6220703,2.9521484-2.6220703,5.9033203c0,2.9433594-3.0722656,2.9433594-3.0722656,5.8857422     c0,2.9414063-1.4638672,2.9414063-1.4638672,5.8828125c0,2.9501953,4.4208984,2.9501953,4.4208984,5.9003906c0,2.9736328,1.15625,2.9736328,1.15625,5.9462891c0,3.0175781,8.5712891,3.0175781,8.5712891,6.0341797     c0,2.9541016,2.4511719,2.9541016,2.4511719,5.9072266c0,2.9003906-6.5214844,2.9003906-6.5214844,5.8017578c0,3.0205078-1.390625,3.0205078-1.390625,6.0400391c0,2.890625,1.6464844,2.890625,1.6464844,5.7802734c0,2.9550781-0.4375,2.9550781-0.4375,5.9101563     c0,2.9248047-3.8457031,2.9248047-4.03125,5.8447266c-0.1679688,2.6357422-0.4443359,2.6298828-0.4443359,5.2539063z" style="fill:none;stroke:#0C3D1B;stroke-width:0.75;"/>
     <path d="M154.3803711,222.1074219c0,0.7236328-2.6572266,1.2197266-2.8769531,1.8642578c-0.1953125,0.5732422,0.7402344,1.75,0.4013672,2.2285156c-0.3896484,0.5498047,2.6328125,6.4003906,2.09375,6.7832031     c-0.4716797,0.3339844-3.4707031,0.0449219-4.0263672,0.21875c-0.5029297,0.1572266-2.6835938-14.4189453-3.2333984-14.4189453c-0.9150391,0-0.9150391,4.0419922-1.8300781,4.0419922c-0.9277344,0-0.9277344,12.5263672-1.8554688,12.5263672     c-0.9414063,0-0.9414063-7.3222656-1.8828125-7.3222656c-0.9042969,0-0.9042969-8.9746094-1.8076172-8.9746094c-0.9169922,0-0.9169922,1.015625-1.8339844,1.015625c-0.9306641,0-0.9306641-1.5371094-1.8613281-1.5371094     c-0.9443359,0-0.9443359,13.4550781-1.8896484,13.4550781c-0.9072266,0-0.9072266-1.6855469-1.8144531-1.6855469c-0.9208984,0-0.9208984-0.9628906-1.8417969-0.9628906c-0.9355469,0-0.9355469-6.3027344-1.8710938-6.3027344     c-0.9511719,0-0.9511719,2.1689453-1.9023438,2.1689453c-0.9121094,0-0.9121094,13.0400391-1.8251953,13.0400391c-0.9267578,0-0.9267578-18.9736328-1.8544922-18.9736328c-0.9433594,0-0.9433594,16.8515625-1.8867188,16.8515625     c-0.9042969,0-0.9042969,1.3486328-1.8095703,1.3486328c-0.9199219,0-0.9199219-3.2324219-1.8398438-3.2324219c-0.9365234,0-0.9365234-4.796875-1.8730469-4.796875c-0.8964844,0-0.8964844-3.6728516-1.7929688-3.6728516     c-0.9130859,0-0.9130859,7.6279297-1.8261719,7.6279297c-0.9306641,0-0.9306641,4.7490234-1.8603516,4.7490234c-0.9492188,0-0.9492188-6.6689453-1.8974609-6.6689453c-0.9072266,0-0.9072266-13.6748047-1.8154297-13.6748047     c-0.9257813,0-0.9257813,11.140625-1.8525391,11.140625c-0.9453125,0-0.9453125-7.6269531-1.890625-7.6269531c-0.9033203,0-0.9033203,3.734375-1.8076172,3.734375c-0.9238281,0-0.9238281,12.3125-1.8466797,12.3125     c-0.9443359,0-0.9443359-6.0380859-1.8876953-6.0380859c-0.9023438,0-0.9023438-6.84375-1.8037109-6.84375c-0.9228516,0-0.9228516,5.3066406-1.8447266,5.3066406c-0.9433594,0-0.9433594-7.4589844-1.8876953-7.4589844     c-0.9013672,0-0.9013672,2.5986328-1.8037109,2.5986328c-0.9238281,0-0.9238281,2.3974609-1.8476563,2.3974609c-0.9472656,0-0.9472656,2.5908203-1.8945313,2.5908203c-0.9042969,0-0.9042969-10.3330078-1.8085938-10.3330078     c-0.9282227,0-0.9282227,3.0205078-1.8564453,3.0205078c-0.8847656,0-0.8847656,13.1123047-1.769043,13.1123047c-0.9086914,0-0.9086914-10.9628906-1.8173828-10.9628906c-0.9350586,0-0.9350586-1.7802734-1.8696289-1.7802734     c-0.890625,0-0.890625-3.0576172-1.7817383-3.0576172c-0.9174805,0-0.9174805,8.9941406-1.8354492,8.9941406c-0.9467773,0-0.9467773-0.9824219-1.8935547-0.9824219c-0.9023438,0-0.9023438-7.3583984-1.8051758-7.3583984     c-0.9331055,0-0.9331055,0.8818359-1.8657227,0.8818359c-0.8876953,0-0.8876953-2.6621094-1.7758789-2.6621094c-0.9194336,0-0.9194336-0.1230469-1.8388672-0.1230469c-0.8735352,0-0.8735352,19.2988281-1.7475586,19.2988281     c-0.9067383,0-0.9067383-18.4179688-1.8134766-18.4179688c-0.9443359,0-0.9443359,15.0351563-1.8881836,15.0351563c-0.8989258,0-0.8989258-4.2265625-1.7973633-4.2265625c-0.9389648,0-0.9389648-12.5537109-1.8779297-12.5537109     c-0.8935547,0-0.8935547,12.5800781-1.7866211,12.5800781c-0.9370117,0-0.9370117-1.9570313-1.8745117-1.9570313c-0.8916016,0-0.8916016,8.9716797-1.7836914,8.9716797c-0.9404297,0-0.9404297-9.1044922-1.8808594-9.1044922     c-0.8959961,0-0.8959961-3.3085938-1.7924805-3.3085938c-0.8496094,0-0.8496094,3.6552734-1.6987305,3.6552734c-0.902832,0-0.902832-10.5322266-1.8051758-10.5322266c-0.8574219,0-0.8574219,2.375-1.715332,2.375     c-0.9204102,0-0.9204102,10.7763672-1.8413086,10.7763672c-0.8798828,0-0.8798828-8.6181641-1.7592773-8.6181641c-0.8359375,0-0.8359375,3.2099609-1.671875,3.2099609c-0.9145508,0-0.9145508,7.65625-1.8291016,7.65625     c-0.8813477,0-0.8813477-2.8564453-1.7626953-2.8564453c-0.847168,0-0.847168-5.9150391-1.6948242-5.9150391c-0.8139648,0-0.8139648,0.9775391-1.6279297,0.9775391c-0.9389648,0-0.9389648-0.8955078-1.8779297-0.8955078     c-0.7783203,0-0.7783203,7.6943359-1.5566406,7.6943359c-0.7636719,0-0.7636719-7.8916016-1.5268555-7.8916016c-0.7612305,0-0.7612305,10.2919922-1.5229492,10.2919922c-0.6923828,0-0.6923828-2.8466797-1.3852539-2.8466797     c-0.6777344,0-3.9399414,2.6689453-4.543457,2.4335938c-0.6020508-0.2353516-4.0454102-0.9501953-4.5336914-1.375c-0.4824219-0.4208984,7.5585938-8.9785156,7.2260742-9.5439453c-0.2856445-0.484375-11.1948242,2.7626953-11.3432617,2.1992188     c-0.137207-0.5205078,12.9360352-3.1054688,12.9360352-3.6708984c0-0.90625-7.7753906-0.90625-7.7753906-1.8115234c0-0.9130859-6.1391602-0.9130859-6.1391602-1.8271484c0-0.921875,18.3608398-0.921875,18.3608398-1.84375     c0-0.9296875-5.6674805-0.9296875-5.6674805-1.8603516c0-0.9384766-5.7490234-0.9384766-5.7490234-1.8769531c0-0.9072266-4.8198242-0.9072266-4.8198242-1.8134766c0-0.9150391,4.8603516-0.9150391,4.8603516-1.8300781     c0-0.9238281,6.3227539-0.9238281,6.3227539-1.8466797c0-0.9326172-3.6420898-0.9326172-3.6420898-1.8642578c0-0.8994141-4.1411133-0.8994141-4.1411133-1.7988281c0-0.9082031,13.2207031-0.9082031,13.2207031-1.8164063     c0-0.9169922-8.8076172-0.9169922-8.8076172-1.8339844c0-0.9257813,0.4624023-0.9257813,0.4624023-1.8515625c0-0.9355469-6.1333008-0.9355469-6.1333008-1.8701172c0-0.9013672,11.8027344-0.9013672,11.8027344-1.8037109     c0-0.9111328-5.4228516-0.9111328-5.4228516-1.8222656c0-0.9199219-6.6308594-0.9199219-6.6308594-1.8398438c0-0.9296875-5.3515625-0.9296875-5.3515625-1.859375c0-0.9394531,17.5126953-0.9394531,17.5126953-1.8789063     c0-0.90625-0.1391602-0.90625-0.1391602-1.8115234c0-0.9150391,1.597168-0.9150391,1.597168-1.8310547c0-0.9257813-7.7885742-0.9257813-7.7885742-1.8505859c0-0.9345703-3.378418-0.9345703-3.378418-1.8701172     c0-0.9013672,0.9257813-0.9013672,0.9257813-1.8027344c0-0.9111328-6.046875-0.9111328-6.046875-1.8222656c0-0.921875-2.1640625-0.921875-2.1640625-1.8427734c0-0.9316406,15.7856445-0.9316406,15.7856445-1.8632813     c0-0.8974609-15.1748047-0.8974609-15.1748047-1.7939453c0-0.9072266-1.7978516-0.9072266-1.7978516-1.8144531c0-0.9179688,1.4404297-0.9179688,1.4404297-1.8359375c0-0.9296875,4.128418-0.9296875,4.128418-1.8583984     c0-0.9404297,8.890625-0.9404297,8.890625-1.8798828c0-0.9052734,6.6435547-0.9052734,6.6435547-1.8105469c0-0.9160156-14.0805664-0.9160156-14.0805664-1.8320313c0-0.9277344,6.2231445-0.9277344,6.2231445-1.8544922     c0-0.9394531,0.546875-0.9394531,0.546875-1.8789063c0-0.9033203-5.8256836-0.9033203-5.8256836-1.8066406c0-0.9150391,7.8447266-0.9150391,7.8447266-1.8300781c0-0.9267578-12.7011719-0.9267578-12.7011719-1.8544922     c0-0.9394531-0.7885742-0.9394531-0.7885742-1.8798828c0-0.9033203,8.7260742-0.9033203,8.7260742-1.8056641c0-0.9160156-5.8110352-0.9160156-5.8110352-1.8310547c0-0.9287109,6.3232422-0.9287109,6.3232422-1.8564453     c0-0.8916016-2.0913086-0.8916016-2.0913086-1.7832031c0-0.9042969-5.5703125-0.9042969-5.5703125-1.8076172c0-0.9169922,17.2402344-0.9169922,17.2402344-1.8330078c0-0.9296875-10.5415039-0.9296875-10.5415039-1.8603516     c0-0.8935547-3.0332031-0.8935547-3.0332031-1.7861328c0-0.90625,13.4331055-0.90625,13.4331055-1.8115234c0-0.9199219-8.6196289-0.9199219-8.6196289-1.8398438c0-0.9345703,5.0966797-0.9345703,5.0966797-1.8681641     c0-0.8964844-16.3232422-0.8964844-16.3232422-1.7929688c0-0.9101563,13.2485352-0.9101563,13.2485352-1.8203125c0-0.9257813,3.1523438-0.9257813,3.1523438-1.8505859c0-0.8867188-5.1401367-0.8867188-5.1401367-1.7729492     c0-0.9008789,1.0478516-0.9008789,1.0478516-1.8022461c0-0.9165039-1.9233398-0.9165039-1.9233398-1.8330078c0-0.9326172,4.362793-0.9326172,4.362793-1.8657227c0-0.8930664-9.8574219-0.8930664-9.8574219-1.7866211     c0-0.9091797-1.9067383-0.9091797-1.9067383-1.8183594c0-0.9262695,7.7636719-0.9262695,7.7636719-1.8525391c0-0.8857422-5.9365234-0.8857422-5.9365234-1.7714844c0-0.902832,3.8959961-0.902832,3.8959961-1.8056641     c0-0.9204102,9.8989258-0.9204102,9.8989258-1.8408203c0-0.9389648-7.3789063-0.9389648-7.3789063-1.8779297c0-0.8984375-3.2055664-0.8984375-3.2055664-1.7963867c0-0.9169922,6.8217773-0.9169922,6.8217773-1.8339844     c0-0.9370117-3.7880859-0.9370117-3.7880859-1.8735352c0-0.8950195-6.7182617-0.8950195-6.7182617-1.7900391c0-0.9150391,0.2075195-0.9150391,0.2075195-1.8300781c0-0.9360352,12.0380859-0.9360352,12.0380859-1.8720703     c0-0.894043-6.2338867-0.894043-6.2338867-1.7880859c0-0.9150391,7.8266602-0.9150391,7.8266602-1.8305664c0-0.9379883-6.1879883-0.9379883-6.1879883-1.8759766c0-0.8950195-7.222168-0.8950195-7.222168-1.7905273     c0-0.9179688-3.347168-0.9179688-3.347168-1.8364258c0-0.8745117-1.84375-0.8745117-1.84375-1.7490234c0-0.8979492,15.2407227-0.8979492,15.2407227-1.7958984c0-0.9233398-0.5244141-0.9233398-0.5244141-1.8461914     c0-0.8789063-15.3740234-0.8789063-15.3740234-1.7578125c0-0.9047852,16.8530273-0.9047852,16.8530273-1.8095703c0-0.9326172,3.4702148-0.9326172,3.4702148-1.8652344c0-0.8876953-13.1264648-0.8876953-13.1264648-1.7758789     c0-0.9169922,5.71875-0.9169922,5.71875-1.8339844c0-0.871582,7.9638672-0.871582,7.9638672-1.7431641c0-0.9013672-14.1791992-0.9013672-14.1791992-1.8027344c0-0.9345703-4.3701172-0.9345703-4.3701172-1.8691406     c0-0.8891602,5.6469727-0.8891602,5.6469727-1.7783203c0-0.9243164,11.7587891-0.9243164,11.7587891-1.8486328c0-0.878418-8.3251953-0.878418-8.3251953-1.7563477c0-0.9155273,6.5009766-0.9155273,6.5009766-1.8310547     c0-0.8691406-4.9995117-0.8691406-4.9995117-1.7382813c0-0.9091797,5.9526367-0.9091797,5.9526367-1.8183594c0-0.8623047-15.5712891-0.8623047-15.5712891-1.7246094c0-0.90625,4.6137695-0.90625,4.6137695-1.8125     c0-0.859375,11.3554688-0.859375,11.3554688-1.71875c0-0.9082031-14.8857422-0.9082031-14.8857422-1.8168945c0-0.862793-3.8305664-0.862793-3.8305664-1.7250977c0-0.918457-0.215332-0.918457-0.215332-1.8369141c0-0.875,18.0395508-0.875,18.0395508-1.7495117     c0-0.8286133-18.6040039-0.8286133-18.6040039-1.6572266c0-0.894043,7.8051758-0.894043,7.8051758-1.7880859c0-0.8520508,5.5585938-0.8520508,5.5585938-1.7045898c0-0.8085938-11.746582-0.8085938-11.746582-1.6166992     c0-0.8920898,7.8891602-0.8920898,7.8891602-1.7841797c0-0.8608398-5.503418-0.8608398-5.503418-1.7216797c0-0.8305664,1.0205078-0.8305664,1.0205078-1.6611328c0-0.8022461-4.6152344-0.8022461-4.6152344-1.6049805     c0-0.7788086,12.8330078-0.7788086,12.8330078-1.5576172c0-0.7636719,0.0048828-0.7636719,0.0048828-1.5268555c0-0.762207,6.4414063-0.762207,6.4414063-1.5239258c0-0.6904297-19.4399414-0.6904297-19.4399414-1.3808594     c0-0.6337891,18.2797852,1.0581055,18.4506836,0.4824219c0.1972656-0.6660156-3.4375-0.8725586-3.0507813-1.418457c0.3896484-0.550293-1.8149414-2.1176758-1.2763672-2.5c0.472168-0.3344727,1.1489258,1.9833984,1.7041016,1.8105469     c0.5009766-0.1557617-0.2783203-1.7397461,0.2680664-1.7397461c0.9150391,0,0.9150391-6.8652344,1.8300781-6.8652344c0.9282227,0,0.9282227,1.628418,1.855957,1.628418c0.9414063,0,0.9414063-1.7192383,1.8823242-1.7192383     c0.9038086,0,0.9038086,7.7753906,1.8081055,7.7753906c0.9169922,0,0.9169922-1.6791992,1.8339844-1.6791992c0.9306641,0,0.9306641-1.6416016,1.8613281-1.6416016c0.9448242,0,0.9448242-9.8071289,1.8896484-9.8071289     c0.9072266,0,0.9072266,16.690918,1.8139648,16.690918c0.9213867,0,0.9213867,2.059082,1.8422852,2.059082c0.9355469,0,0.9355469-17.0996094,1.8710938-17.0996094c0.9511719,0,0.9511719,0.1630859,1.9018555,0.1630859     c0.9125977,0,0.9125977,0.3535156,1.824707,0.3535156c0.9277344,0,0.9277344,9.8901367,1.8554688,9.8901367c0.9433594,0,0.9433594-11.1889648,1.8867188-11.1889648c0.9042969,0,0.9042969,9.1367188,1.8085938,9.1367188     c0.9199219,0,0.9199219-6.1933594,1.840332-6.1933594c0.9360352,0,0.9360352,15.3662109,1.8725586,15.3662109c0.8969727,0,0.8969727-17.4130859,1.7939453-17.4130859c0.9130859,0,0.9130859,15.706543,1.8261719,15.706543     c0.9301758,0,0.9301758-16.9731445,1.8603516-16.9731445c0.9482422,0,0.9482422,9.3857422,1.8964844,9.3857422c0.9082031,0,0.9082031-2.0239258,1.8164063-2.0239258c0.9257813,0,0.9257813-5.9580078,1.8520508-5.9580078     c0.9448242,0,0.9448242-0.4624023,1.8901367-0.4624023c0.9042969,0,0.9042969,18.4360352,1.8085938,18.4360352c0.9233398,0,0.9233398-0.9882813,1.8466797-0.9882813c0.9433594,0,0.9433594-0.2514648,1.887207-0.2514648     c0.9018555,0,0.9018555-6.7753906,1.8037109-6.7753906c0.9223633,0,0.9223633-7.421875,1.8447266-7.421875c0.9438477,0,0.9438477,9.3076172,1.8881836,9.3076172c0.9018555,0,0.9018555-12.2685547,1.8037109-12.2685547     c0.9238281,0,0.9238281-0.5131836,1.847168-0.5131836c0.9472656,0,0.9472656,5.8149414,1.8945313,5.8149414c0.9042969,0,0.9042969-3.1728516,1.8085938-3.1728516c0.9282227,0,0.9282227-2.7275391,1.855957-2.7275391     c0.8847656,0,0.8847656,4.3681641,1.7695313,4.3681641c0.9082031,0,0.9082031,12.0351563,1.8173828,12.0351563c0.9345703,0,0.9345703-12.534668,1.8701172-12.534668c0.890625,0,0.890625,11.6875,1.78125,11.6875     c0.9179688,0,0.9179688,2.390625,1.8349609,2.390625c0.9472656,0,0.9472656-17.1235352,1.8945313-17.1235352c0.9023438,0,0.9023438,3.6308594,1.8046875,3.6308594c0.9326172,0,0.9326172-2.0136719,1.8662109-2.0136719     c0.8876953,0,0.8876953,14.4589844,1.7753906,14.4589844c0.9199219,0,0.9199219-8.4052734,1.8388672-8.4052734c0.8740234,0,0.8740234,1.6669922,1.7470703,1.6669922c0.90625,0,0.90625-9.8330078,1.8134766-9.8330078     c0.9443359,0,0.9443359,4.2929688,1.8886719,4.2929688c0.8994141,0,0.8994141-0.4057617,1.7978516-0.4057617c0.9384766,0,0.9384766,3.3178711,1.8769531,3.3178711c0.8935547,0,0.8935547-5.840332,1.7871094-5.840332     c0.9375,0,0.9375,16.9990234,1.8740234,16.9990234c0.8916016,0,0.8916016-20.5854492,1.7841797-20.5854492c0.9404297,0,0.9404297,17.4306641,1.8808594,17.4306641c0.8964844,0,0.8964844-15.4619141,1.7919922-15.4619141     c0.8496094,0,0.8496094,7.5976563,1.6992188,7.5976563c0.9033203,0,0.9033203,2.4467773,1.8056641,2.4467773c0.8574219,0,0.8574219-10.0908203,1.7148438-10.0908203c0.9208984,0,0.9208984,6.3603516,1.8417969,6.3603516     c0.8789063,0,0.8789063,3.9926758,1.7587891,3.9926758c0.8359375,0,0.8359375,5.2387695,1.671875,5.2387695c0.9150391,0,0.9150391-1.4726563,1.8291016-1.4726563c0.8808594,0,0.8808594-10.9736328,1.7626953-10.9736328     c0.8466797,0,0.8466797,8.0366211,1.6943359,8.0366211c0.8144531,0,0.8144531-3.4492188,1.6279297-3.4492188c0.9384766,0,0.9384766,10.6679688,1.8779297,10.6679688c0.7792969,0,0.7792969-8.4731445,1.5576172-8.4731445     c0.7626953,0,0.7626953,1.0537109,1.5263672,1.0537109c0.7617188,0,0.7617188-8.8618164,1.5234375-8.8618164c0.6923828,0,0.6923828-1.7553711,1.3847656-1.7553711c0.6787109,0-1.1923828,14.9506836-0.5878906,15.1855469     c0.6025391,0.234375,4.1474609-6.4516602,4.6367188-6.0268555c0.4824219,0.4204102-2.8613281,3.4047852-2.5283203,3.9692383c0.2861328,0.4848633-5.6816406,1.5732422-5.5332031,2.1362305c0.1376953,0.5219727,2.8125-1.4296875,2.8125-0.8623047     c0,0.9057617,15.1689453,0.9057617,15.1689453,1.8115234c0,0.9140625-15.2646484,0.9140625-15.2646484,1.8276367c0,0.9213867,16.7832031,0.9213867,16.7832031,1.8432617c0,0.9301758-16.5595703,0.9301758-16.5595703,1.8603516     c0,0.9384766,10.6923828,0.9384766,10.6923828,1.8774414c0,0.9067383,6.6455078,0.9067383,6.6455078,1.8129883c0,0.9150391-2.25,0.9150391-2.25,1.8295898c0,0.9233398-4.7851563,0.9233398-4.7851563,1.8466797     c0,0.9321289-3.6904297,0.9321289-3.6904297,1.8642578c0,0.8999023-8.6503906,0.8999023-8.6503906,1.7993164c0,0.9082031,11.1308594,0.9082031,11.1308594,1.8164063c0,0.9169922,6.4453125,0.9169922,6.4453125,1.8334961     c0,0.9257813-3.4375,0.9257813-3.4375,1.8515625c0,0.9350586-4.2890625,0.9350586-4.2890625,1.8701172c0,0.9018555,5.46875,0.9018555,5.46875,1.8041992c0,0.9111328,0.6699219,0.9111328,0.6699219,1.8217773c0,0.9204102-9.5644531,0.9204102-9.5644531,1.840332     c0,0.9296875,2.4267578,0.9296875,2.4267578,1.859375c0,0.9394531-7.4287109,0.9394531-7.4287109,1.8789063c0,0.90625,17.1640625,0.90625,17.1640625,1.8120117c0,0.9155273-1.7392578,0.9155273-1.7392578,1.8305664     c0,0.9248047-15.5908203,0.9248047-15.5908203,1.8500977c0,0.9355469,10.3154297,0.9355469,10.3154297,1.8710938c0,0.9008789-4.7158203,0.9008789-4.7158203,1.8022461c0,0.9111328-0.0283203,0.9111328-0.0283203,1.8222656     c0,0.9208984,7.1035156,0.9208984,7.1035156,1.8422852c0,0.9321289-15.0048828,0.9321289-15.0048828,1.8637695c0,0.8969727,8.4042969,0.8969727,8.4042969,1.7939453c0,0.9072266,2.9570313,0.9072266,2.9570313,1.8149414     c0,0.9179688-8.3154297,0.9179688-8.3154297,1.8359375c0,0.9287109,4,0.9287109,4,1.8574219c0,0.9404297-3.0488281,0.9404297-3.0488281,1.8808594c0,0.9047852,0.0908203,0.9047852,0.0908203,1.8095703c0,0.9160156,2.9023438,0.9160156,2.9023438,1.8320313     c0,0.9272461,12.0302734,0.9272461,12.0302734,1.8549805c0,0.9394531-7.3535156,0.9394531-7.3535156,1.8789063c0,0.9033203,7.8369141,0.9033203,7.8369141,1.8066406c0,0.9150391-0.09375,0.9150391-0.09375,1.8300781     c0,0.9272461-2.1376953,0.9272461-2.1376953,1.8544922c0,0.9394531-13.7539063,0.9394531-13.7539063,1.8793945c0,0.9033203,10.578125,0.9033203,10.578125,1.8066406c0,0.9155273-0.5898438,0.9155273-0.5898438,1.8310547     c0,0.9282227,5.7871094,0.9282227,5.7871094,1.8564453c0,0.8911133-18.3535156,0.8911133-18.3535156,1.7822266c0,0.9038086,1.0537109,0.9038086,1.0537109,1.8076172c0,0.9165039,17.3837891,0.9165039,17.3837891,1.8334961     c0,0.9306641-9.5566406,0.9306641-9.5566406,1.8608398c0,0.8925781,9.0361328,0.8925781,9.0361328,1.7851563c0,0.9057617-14.1386719,0.9057617-14.1386719,1.8120117c0,0.9199219,11.2607422,0.9199219,11.2607422,1.8398438     c0,0.9345703,4.4140625,0.9345703,4.4140625,1.8686523c0,0.8959961-1.8544922,0.8959961-1.8544922,1.7919922c0,0.9106445-3.8486328,0.9106445-3.8486328,1.8208008c0,0.925293,1.8115234,0.925293,1.8115234,1.8505859     c0,0.8867188-11.4521484,0.8867188-11.4521484,1.7729492c0,0.9008789,11.6933594,0.9008789,11.6933594,1.8022461c0,0.9160156-6.1582031,0.9160156-6.1582031,1.8330078c0,0.9326172-2.3701172,0.9326172-2.3701172,1.8662109     c0,0.8925781-3.3378906,0.8925781-3.3378906,1.7861328c0,0.9091797,12.6757813,0.9091797,12.6757813,1.8183594c0,0.9267578-8.3769531,0.9267578-8.3769531,1.8525391c0,0.8857422,8.3623047,0.8857422,8.3623047,1.7714844     c0,0.9023438-3.7832031,0.9023438-3.7832031,1.8056641c0,0.9208984-13.5039063,0.9208984-13.5039063,1.8408203c0,0.9394531-1.046875,0.9394531-1.046875,1.8779297c0,0.8984375,4.9677734,0.8984375,4.9677734,1.796875     c0,0.9169922,12.46875,0.9169922,12.46875,1.8330078c0,0.9375-1.9335938,0.9375-1.9335938,1.8740234c0,0.8955078,5.3398438,0.8955078,5.3398438,1.7900391c0,0.9150391-15.2363281,0.9150391-15.2363281,1.8300781     c0,0.9355469,14.3808594,0.9355469,14.3808594,1.8720703c0,0.8935547-0.6142578,0.8935547-0.6142578,1.7880859c0,0.9150391-1.7900391,0.9150391-1.7900391,1.8300781c0,0.9375-0.4658203,0.9375-0.4658203,1.8759766     c0,0.8955078-11.0859375,0.8955078-11.0859375,1.7910156c0,0.9179688-5.3867188,0.9179688-5.3867188,1.8359375c0,0.875,12.7080078,0.875,12.7080078,1.75c0,0.8974609,4.9707031,0.8974609,4.9707031,1.7958984     c0,0.9228516-12.9443359,0.9228516-12.9443359,1.8457031c0,0.8789063,14.4550781,0.8789063,14.4550781,1.7578125c0,0.9042969-3.1943359,0.9042969-3.1943359,1.8095703c0,0.9326172-11.2666016,0.9326172-11.2666016,1.8652344     c0,0.8876953,10.5732422,0.8876953,10.5732422,1.7763672c0,0.9169922-6.5771484,0.9169922-6.5771484,1.8339844c0,0.8710938,2.4941406,0.8710938,2.4941406,1.7421875c0,0.9013672,0.0625,0.9013672,0.0625,1.8027344     c0,0.9355469-6.4589844,0.9355469-6.4589844,1.8701172c0,0.8896484,7.2871094,0.8896484,7.2871094,1.7783203c0,0.9238281-5.5917969,0.9238281-5.5917969,1.8486328c0,0.8779297,3.3984375,0.8779297,3.3984375,1.7558594     c0,0.9150391,4.3105469,0.9150391,4.3105469,1.8310547c0,0.8691406,1.5947266,0.8691406,1.5947266,1.7382813c0,0.9091797,0.5625,0.9091797,0.5625,1.8183594c0,0.8623047-8.0957031,0.8623047-8.0957031,1.7246094c0,0.90625,2.0664063,0.90625,2.0664063,1.8125     c0,0.859375,3.3779297,0.859375,3.3779297,1.71875c0,0.9082031,3.5458984,0.9082031,3.5458984,1.8164063c0,0.8632813-16.1904297,0.8632813-16.1904297,1.7255859c0,0.9189453,1.0263672,0.9189453,1.0263672,1.8369141c0,0.875,11.1318359,0.875,11.1318359,1.75     c0,0.828125-2.6708984,0.828125-2.6708984,1.65625c0,0.8945313-4.7910156,0.8945313-4.7910156,1.7880859c0,0.8525391-2.1865234,0.8525391-2.1865234,1.7050781c0,0.8085938-1.0722656,0.8085938-1.0722656,1.6171875     c0,0.8916016,14.5048828,0.8916016,14.5048828,1.7841797c0,0.8613281-2.6992188,0.8613281-2.6992188,1.7216797c0,0.8300781,1.6083984,0.8300781,1.6083984,1.6601563c0,0.8027344-0.0537109,0.8027344-0.0537109,1.6054688     c0,0.7783203-7.1054688,0.7783203-7.1054688,1.5576172c0,0.7636719-5.5292969,0.7636719-5.5292969,1.5273438c0,0.7617188,12.1884766-4.2802734,12.6933594-3.7089844c0.7919922,0.8964844-3.9667969,5.9228516-3.9667969,6.6132813z" style="fill:none;stroke:#0C3D1B;stroke-width:0.5;"/>
    </g>
   </g>
  </svg>
 </defs>
</svg>
