<?xml version="1.0" ?>
<!--    This set of SVG files contains images of playing cards' backs		-->
<!--    adapted from version 1.1 of the upstream project			-->
<!--    <https://sourceforge.net/projects/svg-cards/>				-->
<!--    									-->
<!--    Copyright (C) 2004 David Bellot						-->
<!--    Copyright © 2017,2019 Stan Livitski					-->
<!--										-->
<!--    This library is free software; you can redistribute it and/or		-->
<!--    modify it under the terms of the GNU Lesser General Public		-->
<!--    License as published by the Free Software Foundation; either		-->
<!--    version 3 of the License, or (at your option) any later version		-->
<!--										-->
<!--    This library is distributed in the hope that it will be useful,		-->
<!--    but WITHOUT ANY WARRANTY; without even the implied warranty of		-->
<!--    MERCHANTABILITY or FITNESS FOR A PARTICULAR PURPOSE.  See the GNU	-->
<!--    Lesser General Public License for more details.				-->
<!--										-->
<!--    You should have received a copy of the GNU Lesser General Public	-->
<!--    License along with this library; if not, write to the Free Software	-->
<!--    Foundation, Inc., 59 Temple Place, Suite 330, Boston, MA 02111-1307  USA-->
<!--										-->
<svg height="242.6669922pt" preserveAspectRatio="none" viewBox="0.000000 0.000000 229.503711 242.666992" width="235.6916803161456pt" xml:space="preserve" xmlns="http://www.w3.org/2000/svg" xmlns:xlink="http://www.w3.org/1999/xlink">
 <use x="0" xlink:href="#clip-4x243" y="0"/>
 <use x="4.0" xlink:href="#clip-8x243" y="0"/>
 <use x="12.0" xlink:href="#clip-17x243" y="0"/>
 <use x="29.0" xlink:href="#clip-33.41728516x242.6669922" y="0"/>
 <use x="62.41728516" xlink:href="#image-167.0864258x242.6669922" y="0"/>
 <defs>
  <style>
   .st1 { fill-rule:evenodd;clip-rule:evenodd;stroke:none; }
   .st2 { fill-rule:evenodd;clip-rule:evenodd;fill:#190C80;stroke:none; }
  </style>
  <svg height="243" id="clip-4x243" viewBox="0.000000 0.000000 4.000000 243.000000" width="4">
   <g style="fill-rule:nonzero;clip-rule:nonzero;fill:#FFFFFF;stroke:#000000;stroke-miterlimit:4;">
    <path d="M 6.0,0.34068897714863233 L 6.0,242.32633016704096 L 5.99999999999999,242.32633016704094 C 2.7490262112942343,241.79066374603923 0.25,238.9467954356752 0.25,235.5478516 L 0.25,7.1196289 C 0.25,3.7211243583134666 2.7490262112942463,0.8765093993854784 6.000000000000013,0.340688977148636 Z" style="stroke-width:0.5;"/>
    <path d="M 6.0,4.5727539 L 6.0,236.57324219999998 L 5.999999999999986,236.5732422 L 4.482421899999991,236.5732422 L 4.4824219,236.5732422 L 4.4824219,4.5727539 L 6.00000000000002,4.5727539 Z" style="fill-rule:evenodd;clip-rule:evenodd;fill:none;stroke:#1E0C7D;stroke-width:3;stroke-linejoin:round;stroke-miterlimit:10;"/>
   </g>
  </svg>
  <svg height="243" id="clip-8x243" viewBox="0.000000 0.000000 8.000000 243.000000" width="8">
   <g style="fill-rule:nonzero;clip-rule:nonzero;fill:#FFFFFF;stroke:#000000;stroke-miterlimit:4;">
    <path d="M 10.0,0.2500000000000009 L 10.0,242.41699220000004 L 9.999999999999984,242.4169922 L 7.111328100000009,242.4169922 L 7.1113281,242.4169922 C 3.3364257999999998,242.4169922 0.25,239.32519530000002 0.25,235.5478516 L 0.25,7.1196289 C 0.25,3.3427734 3.3364258,0.25 7.1113281,0.25 L 10.000000000000014,0.25 Z" style="stroke-width:0.5;"/>
    <path class="st1" d="M 10.0,121.2089843 L 10.0,83.91308589999998 L 10.000000000000005,83.9130859 L 8.7983398,83.9130859 L 8.7983398,121.2089843 L 9.999999999999998,121.2089843 Z"/>
    <path class="st2" d="M 10.0,83.91308590000001 L 10.0,46.61621089999999 L 10.000000000000007,46.6162109 L 8.7983398,46.6162109 L 8.7983398,83.9130859 L 10.000000000000002,83.9130859 Z"/>
    <path class="st1" d="M 10.0,46.6162109 L 10.0,9.319335899999999 L 10.0,9.3193359 L 8.7983398,9.3193359 L 8.7983398,46.6162109 Z"/>
    <path class="st2" d="M 10.0,233.1191406 L 10.0,195.8125 L 8.7983398,195.8125 L 8.7983398,233.1191406 L 9.999999999999998,233.1191406 Z"/>
    <path class="st1" d="M 10.0,195.81249999999997 L 10.0,158.51562499999997 L 10.000000000000005,158.515625 L 8.7983398,158.515625 L 8.7983398,195.8125 L 10.000000000000004,195.8125 Z"/>
    <path class="st2" d="M 10.0,158.51562499999997 L 10.0,121.2089844 L 10.000000000000002,121.20898439999999 L 8.7983398,121.20898439999999 L 8.7983398,158.515625 L 9.999999999999998,158.515625 Z"/>
    <path class="st2" d="M 10.0,115.3496959662092 L 10.0,117.76978472654176 L 10.0,117.76978472654172 L 8.798339899999998,116.56152349999999 L 10.0,115.34969596620915 Z"/>
    <path class="st1" d="M 10.0,52.49575236051781 L 10.0,50.07094804258769 L 8.798339899999998,51.2846679 L 10.0,52.495752360517805 Z"/>
    <path class="st2" d="M 10.0,40.736669439482185 L 10.0,43.161473757412296 L 9.999999999999996,43.16147375741231 L 8.798339899999998,41.947753899999995 L 9.999999999999998,40.73666943948219 Z"/>
    <path class="st1" d="M 10.0,227.23876648953961 L 10.0,229.66404210715322 L 10.0,229.6640421071532 L 8.798339899999998,228.45019530000002 Z"/>
    <path class="st2" d="M 10.0,164.39563663605517 L 10.0,161.9707234928468 L 10.0,161.97072349284682 L 8.798339899999998,163.1845703 L 9.999999999999998,164.39563663605517 Z"/>
    <path class="st1" d="M 10.0,152.64559436620914 L 10.0,155.0684759168475 L 10.0,155.06847591684743 L 8.798339899999998,153.8574219 L 9.999999999999998,152.64559436620914 Z"/>
    <path class="st2" d="M 10.0,89.78177755938563 L 10.0,87.35951235663596 L 8.798339899999998,88.5703125 L 9.999999999999998,89.78177755938563 Z"/>
    <path class="st2" d="M 10.0,103.77520109050235 L 10.0,101.35508798898208 L 10.000000000000002,101.35508798898209 L 8.7983398,102.5654297 Z"/>
    <path class="st1" d="M 10.0,80.45762605689403 L 8.798339899999998,79.2436523 L 10.0,78.03260408840741"/>
    <path class="st1" d="M 10.0,64.05912622436188 L 10.0,66.47930268401339 L 10.000000000000002,66.4793026840134 L 8.7983398,65.2695313 Z"/>
    <path class="st2" d="M 10.0,15.17913075825346 L 10.0,12.758896923717415 L 10.0,12.758896923717412 L 8.798339899999998,13.967285100000002 L 9.999999999999998,15.179130758253454 Z"/>
    <path class="st2" d="M 10.0,29.182427690502347 L 10.0,26.762251217872933 L 10.000000000000002,26.76225121787293 L 8.7983398,27.972656299999997 L 8.7983398,27.9726563 L 10.000000000000002,29.182427690502358 Z"/>
    <path class="st1" d="M 9.999999999999998,199.26687586633025 L 8.798339899999998,200.4804688 L 9.999999999999998,201.69193385938564"/>
    <path class="st1" d="M 10.0,215.66618023188303 L 10.0,213.24537008060676 L 10.0,213.24537008060682 L 8.7983398,214.4550781 Z"/>
    <path class="st2" d="M 10.0,175.95854022436188 L 10.0,178.37871669050236 L 10.000000000000002,178.37871669050236 L 8.7983398,177.1689453 L 9.999999999999998,175.95854022436188 Z"/>
    <path class="st1" d="M 10.0,127.08935851046039 L 10.0,124.6640828928468 L 10.0,124.66408289284682 L 8.798339899999998,125.8779297 L 10.0,127.0893585104604 Z"/>
    <path class="st1" d="M 10.0,141.07270977563812 L 10.0,138.65189962436187 L 9.999999999999998,138.6518996243619 L 8.7983398,139.8623047 L 9.999999999999998,141.07270977563812 Z"/>
    <path class="st2" d="M 10.0,189.9324883639448 L 10.0,192.3574015071532 L 10.0,192.35740150715318 L 8.798339899999998,191.1435547 L 10.0,189.93248836394483 Z"/>
    <path d="M 10.0,4.5727538999999995 L 10.0,236.5732422 L 9.999999999999993,236.5732422 L 4.482421899999991,236.5732422 L 4.4824219,236.5732422 L 4.4824219,4.5727539 L 9.999999999999995,4.5727539 Z" style="fill-rule:evenodd;clip-rule:evenodd;fill:none;stroke:#1E0C7D;stroke-width:3;stroke-linejoin:round;stroke-miterlimit:10;"/>
   </g>
  </svg>
  <svg height="243" id="clip-17x243" viewBox="0.000000 0.000000 17.000000 243.000000" width="17">
   <g style="fill-rule:nonzero;clip-rule:nonzero;fill:#FFFFFF;stroke:#000000;stroke-miterlimit:4;">
    <path d="M 19.0,0.2499999999999991 L 19.0,242.41699219999995 L 19.000000000000025,242.4169922 L 7.111328100000009,242.4169922 L 7.1113281,242.4169922 C 3.3364257999999998,242.4169922 0.25,239.32519530000002 0.25,235.5478516 L 0.25,7.1196289 C 0.25,3.3427734 3.3364258,0.25 7.1113281,0.25 L 18.99999999999997,0.25 Z" style="stroke-width:0.5;"/>
    <path class="st1" d="M 19.0,121.20898429999995 L 19.0,83.9130859 L 19.000000000000004,83.9130859 L 8.7983398,83.9130859 L 8.7983398,121.2089843 L 18.999999999999993,121.2089843 Z"/>
    <path class="st2" d="M 19.0,83.91308590000001 L 19.0,46.61621089999999 L 19.000000000000004,46.6162109 L 8.7983398,46.6162109 L 8.7983398,83.9130859 L 19.0,83.9130859 Z"/>
    <path class="st1" d="M 19.0,46.61621089999999 L 19.0,9.319335899999999 L 19.0,9.3193359 L 8.7983398,9.3193359 L 8.7983398,46.6162109 L 19.0,46.6162109 Z"/>
    <path class="st2" d="M 19.0,233.11914059999998 L 19.0,195.81250000000003 L 19.000000000000004,195.8125 L 8.7983398,195.8125 L 8.7983398,233.1191406 L 19.000000000000007,233.1191406 Z"/>
    <path class="st1" d="M 19.0,195.81250000000003 L 19.0,158.51562499999994 L 19.0,158.515625 L 8.7983398,158.515625 L 8.7983398,195.8125 L 19.0,195.8125 Z"/>
    <path class="st2" d="M 19.0,158.51562499999994 L 19.0,121.20898439999999 L 19.000000000000004,121.20898439999999 L 8.7983398,121.20898439999999 L 8.7983398,158.515625 L 18.99999999999999,158.515625 Z"/>
    <path class="st2" d="M 19.0,106.27354556051824 L 19.0,115.5854793723321 L 13.4204102,121.20898439999999 L 8.798339899999998,116.56152349999999 L 19.000000000000004,106.27354556051824 Z"/>
    <path class="st1" d="M 13.4204102,46.6162109 L 8.798339899999998,51.2846679 L 19.0,61.56633741585935 L 19.0,61.56633741585934 L 19.0,52.23778096005013 L 19.000000000000004,52.23778096005013 Z"/>
    <path class="st2" d="M 19.0,31.666084384140632 L 19.0,40.99093916876095 L 18.999999999999996,40.99093916876096 L 13.4204102,46.6162109 L 8.798339899999998,41.947753899999995 L 18.999999999999993,31.666084384140653 Z"/>
    <path class="st1" d="M 13.4204102,233.1191406 L 8.798339899999998,228.45019530000002 L 19.0,218.1656023775385 L 19.0,218.16560237753848 L 19.0,227.49563567233207 L 19.000000000000004,227.49563567233213 L 13.4204102,233.1191407 Z"/>
    <path class="st2" d="M 19.0,173.46608594572 L 19.0,164.13727919207346 L 19.000000000000004,164.13727919207344 L 13.4204102,158.515625 L 8.798339899999998,163.1845703 L 18.999999999999993,173.46608594571998 Z"/>
    <path class="st1" d="M 13.4204102,158.515625 L 8.798339899999998,153.8574219 L 18.999999999999996,143.56944396051824 L 19.0,143.5694439605182 L 19.0,152.89228823637865 L 19.0,152.89228823637873 Z"/>
    <path class="st2" d="M 13.4204102,83.9130859 L 8.798339899999998,88.5703125 L 18.999999999999996,98.85521316274023 L 19.0,98.85521316274021 L 19.0,89.5382735164453 Z"/>
    <path class="st2" d="M 19.0,112.83595097180921 L 19.0,92.29006661342083 L 19.0,92.29006661342085 L 8.7983398,102.5654297 L 19.0,112.83595097180924 Z"/>
    <path class="st1" d="M 19.000000000000004,78.29134757590325 L 13.4204102,83.9130859 L 8.798339899999998,79.2436523 L 19.000000000000004,68.96229052441934"/>
    <path class="st1" d="M 19.0,54.993630270727856 L 19.0,75.54005251672038 L 8.7983398,65.2695313 L 19.0,54.99363027072788 Z"/>
    <path class="st2" d="M 13.4204102,9.3193359 L 8.798339899999998,13.967285100000002 L 19.0,24.255416909621104 L 19.0,14.941074224096738 L 19.00000000000001,14.941074224096752 L 13.4204102,9.319335899999999 Z"/>
    <path class="st2" d="M 19.0,38.24317757180923 L 19.0,17.696755215639016 L 19.0,17.696755215639023 L 8.7983398,27.972656299999997 L 8.7983398,27.9726563 L 19.000000000000004,38.24317757180924 Z"/>
    <path class="st1" d="M 19.000000000000004,201.4358367636213 L 13.4204102,195.8125 L 8.798339899999998,200.4804688 L 19.0,210.76536946274024"/>
    <path class="st1" d="M 19.0,224.73689688451674 L 19.0,204.18509482597256 L 18.999999999999996,204.1850948259726 L 8.7983398,214.4550781 L 18.999999999999996,224.73689688451685 Z"/>
    <path class="st2" d="M 19.0,166.89304427072784 L 19.0,187.43946657180916 L 19.0,187.43946657180922 L 8.7983398,177.1689453 L 19.0,166.89304427072787 Z"/>
    <path class="st1" d="M 19.0,136.1625226224615 L 19.0,126.83417199921573 L 13.4204102,121.20898439999999 L 8.798339899999998,125.8779297 L 18.999999999999996,136.16252262246152 Z"/>
    <path class="st1" d="M 19.0,150.13820572927207 L 19.0,129.58640367072786 L 19.0,129.5864036707279 L 8.7983398,139.8623047 L 19.0,150.13820572927213 Z"/>
    <path class="st1" d="M 19.0,111.89257810000001 L 19.0,92.6606445 L 18.0522461,92.6606445 L 18.0522461,111.89257810000001 Z"/>
    <path class="st2" d="M 19.0,74.58593749999999 L 19.0,55.3642578 L 19.000000000000004,55.3642578 L 18.0522461,55.3642578 L 18.0522461,74.5859375 L 19.000000000000004,74.5859375 Z"/>
    <path class="st1" d="M 19.0,37.2792969 L 19.0,18.057617199999996 L 19.0,18.0576172 L 18.0522461,18.0576172 L 18.0522461,37.2792969 L 19.000000000000004,37.2792969 Z"/>
    <path class="st2" d="M 19.0,224.36035159999997 L 19.0,205.14941409999994 L 19.0,205.1494141 L 18.0522461,205.1494141 L 18.0522461,224.3603516 L 19.000000000000004,224.3603516 Z"/>
    <path class="st2" d="M 19.0,149.76757809999995 L 19.0,130.52636719999998 L 19.000000000000004,130.5263672 L 18.0522461,130.5263672 L 18.0522461,149.7675781 L 19.000000000000004,149.7675781 Z"/>
    <path class="st2" d="M 13.4204102,195.8125 L 8.798339899999998,191.1435547 L 18.999999999999996,180.86203905428002 L 19.0,180.86203905428 L 19.0,190.1908458079265 L 19.0,190.19084580792656 Z"/>
    <path class="st1" d="M 19.0,187.07421879999998 L 19.0,167.84277350000002 L 18.0522461,167.84277350000002 L 18.0522461,187.0742188 L 19.0,187.0742188 Z"/>
    <path d="M 19.0,4.5727538999999995 L 19.0,236.57324219999995 L 19.000000000000014,236.5732422 L 4.482421899999991,236.5732422 L 4.4824219,236.5732422 L 4.4824219,4.5727539 L 18.999999999999993,4.5727539 Z" style="fill-rule:evenodd;clip-rule:evenodd;fill:none;stroke:#1E0C7D;stroke-width:3;stroke-linejoin:round;stroke-miterlimit:10;"/>
   </g>
  </svg>
  <svg height="242.6669922" id="clip-33.41728516x242.6669922" viewBox="0.000000 0.000000 33.417285 242.666992" width="33.41728516">
   <g style="fill-rule:nonzero;clip-rule:nonzero;fill:#FFFFFF;stroke:#000000;stroke-miterlimit:4;">
    <path d="M 35.41728516,0.2499999999999969 L 35.41728516,242.41699219999998 L 35.417285160000006,242.4169922 L 7.111328100000009,242.4169922 L 7.1113281,242.4169922 C 3.3364257999999998,242.4169922 0.25,239.32519530000002 0.25,235.5478516 L 0.25,7.1196289 C 0.25,3.3427734 3.3364258,0.25 7.1113281,0.25 L 35.41728516000003,0.25 Z" style="stroke-width:0.5;"/>
    <path class="st1" d="M 35.41728516,121.20898429999997 L 35.41728516,83.91308589999998 L 35.41728515999999,83.9130859 L 8.7983398,83.9130859 L 8.7983398,121.2089843 L 35.417285160000006,121.2089843 Z"/>
    <path class="st2" d="M 35.41728516,83.91308589999998 L 35.41728516,46.61621089999999 L 35.41728516,46.6162109 L 8.7983398,46.6162109 L 8.7983398,83.9130859 L 35.417285160000006,83.9130859 Z"/>
    <path class="st1" d="M 35.41728516,46.61621089999999 L 35.41728516,9.319335899999999 L 35.41728516,9.3193359 L 8.7983398,9.3193359 L 8.7983398,46.6162109 L 35.417285160000006,46.6162109 Z"/>
    <path class="st2" d="M 35.41728516,233.11914059999995 L 35.41728516,195.81249999999994 L 35.41728516,195.8125 L 8.7983398,195.8125 L 8.7983398,233.1191406 L 35.417285160000006,233.1191406 Z"/>
    <path class="st1" d="M 35.41728516,195.81249999999994 L 35.41728516,158.51562499999997 L 35.41728516,158.515625 L 8.7983398,158.515625 L 8.7983398,195.8125 L 35.417285160000006,195.8125 Z"/>
    <path class="st2" d="M 35.41728516,158.51562499999997 L 35.41728516,121.20898439999996 L 35.417285160000006,121.20898439999999 L 8.7983398,121.20898439999999 L 8.7983398,158.515625 L 35.417285160000006,158.515625 Z"/>
    <path class="st2" d="M 35.41728516,89.71735118659853 L 35.41728516,99.03897883246849 L 35.41728515999999,99.03897883246852 L 13.4204102,121.20898439999999 L 8.798339899999998,116.56152349999999 L 35.417285160000006,89.71735118659853 Z"/>
    <path class="st1" d="M 13.4204102,46.6162109 L 8.798339899999998,51.2846679 L 35.41728515999999,78.1123797960345 L 35.41728516,78.11237979603452 L 35.41728516,68.77858808582866 L 35.41728516,68.77858808582867 Z"/>
    <path class="st2" d="M 35.41728516,15.120042003965477 L 35.41728516,24.439240311931353 L 35.41728515999999,24.439240311931364 L 13.4204102,46.6162109 L 8.798339899999998,41.947753899999995 L 35.41728515999999,15.120042003965477 Z"/>
    <path class="st1" d="M 13.4204102,233.1191406 L 8.798339899999998,228.45019530000002 L 35.417285160000006,201.61485542973844 L 35.41728516,201.61485542973844 L 35.41728516,210.9491351324685 L 35.41728515999999,210.94913513246854 L 13.4204102,233.1191407 Z"/>
    <path class="st2" d="M 35.41728516,190.0118807063969 L 35.41728516,180.67833386641152 L 35.41728515999999,180.6783338664115 L 13.4204102,158.515625 L 8.798339899999998,163.1845703 L 35.41728515999999,190.0118807063969 Z"/>
    <path class="st1" d="M 13.4204102,158.515625 L 8.798339899999998,153.8574219 L 35.41728515999999,127.01324958659855 L 35.41728516,127.0132495865985 L 35.41728516,136.34628279363417 L 35.417285160000006,136.34628279363417 Z"/>
    <path class="st2" d="M 13.4204102,83.9130859 L 8.798339899999998,88.5703125 L 35.41728515999999,115.40645534953678 L 35.41728516,115.40645534953676 L 35.41728516,106.08972487541136 L 35.41728516,106.08972487541138 Z"/>
    <path class="st2" d="M 27.3168945,83.9130859 L 8.7983398,102.5654297 L 27.3168945,121.20898439999999 L 35.417285160000006,113.04013129719593 L 35.41728516,113.04013129719596 L 35.41728516,92.08579003164277 L 35.41728515999999,92.08579003164277 Z"/>
    <path class="st1" d="M 35.41728515999999,61.75004535300567 L 13.4204102,83.9130859 L 8.798339899999998,79.2436523 L 35.41728516000001,52.41674338324069"/>
    <path class="st1" d="M 27.3168945,46.6162109 L 35.41728515999999,54.78934289452532 L 35.41728516,54.789342894525326 L 35.41728516,75.74423279719593 L 35.417285160000006,75.74423279719593 L 27.3168945,83.9130859 L 8.7983398,65.2695313 L 27.3168945,46.61621099999999 Z"/>
    <path class="st2" d="M 13.4204102,9.3193359 L 8.798339899999998,13.967285100000002 L 35.41728516,40.81185890303907 L 35.41728516,40.811858903039074 L 35.41728516,31.48237644699433 L 13.4204102,9.319335899999999 Z"/>
    <path class="st2" d="M 27.3168945,9.3193359 L 8.7983398,27.972656299999997 L 8.7983398,27.9726563 L 27.3168945,46.616211 L 35.41728516,38.447357897195936 L 35.41728516,38.44735789719595 L 35.41728516,17.49246793834128 L 35.417285160000006,17.492467938341292 L 27.3168945,9.319335900000002 Z"/>
    <path class="st1" d="M 35.41728516,217.98184220636585 L 13.4204102,195.8125 L 8.798339899999998,200.4804688 L 35.41728515999999,227.31661164953678"/>
    <path class="st1" d="M 27.3168945,233.1191406 L 35.41728515999999,224.9413018070549 L 35.41728516,224.94130180705486 L 35.41728516,203.98092519610555 L 27.3168945,195.8125 L 8.7983398,214.4550781 Z"/>
    <path class="st2" d="M 27.3168945,195.8125 L 8.7983398,177.1689453 L 27.3168945,158.515625 L 35.41728515999999,166.6887569945253 L 35.41728516,166.6887569945253 L 35.41728516,187.64364689719588 L 35.417285160000006,187.64364689719594 Z"/>
    <path class="st1" d="M 35.41728516,152.71326957026156 L 35.41728516,143.3856233074858 L 35.41728515999999,143.3856233074858 L 13.4204102,121.20898439999999 L 8.798339899999998,125.8779297 L 35.41728515999999,152.71326957026156 Z"/>
    <path class="st1" d="M 27.3168945,158.515625 L 35.41728515999999,150.3424930054747 L 35.41728516,150.34249300547464 L 35.41728516,129.38211639452527 L 35.41728516,129.38211639452533 L 27.3168945,121.2089844 L 8.7983398,139.8623047 Z"/>
    <path class="st1" d="M 35.41728516,111.89257809999998 L 35.41728516,92.66064449999999 L 35.41728515999999,92.6606445 L 18.0522461,92.6606445 L 18.0522461,111.89257810000001 L 35.41728515999999,111.89257810000001 Z"/>
    <path class="st2" d="M 27.3168945,95.5629883 L 20.368164,102.5654297 L 27.3168945,109.56835939999999 L 34.234375,102.5654297 Z"/>
    <path class="st2" d="M 35.41728516,74.58593749999996 L 35.41728516,55.36425779999999 L 35.41728515999999,55.3642578 L 18.0522461,55.3642578 L 18.0522461,74.5859375 L 35.417285160000006,74.5859375 Z"/>
    <path class="st1" d="M 27.3168945,58.2768555 L 34.234375,65.2695313 L 27.3168945,72.2514649 L 20.368164,65.2695313 L 27.3168945,58.276855499999996 Z"/>
    <path class="st1" d="M 35.41728516,37.27929689999999 L 35.41728516,18.057617199999996 L 35.41728515999999,18.0576172 L 18.0522461,18.0576172 L 18.0522461,37.2792969 L 35.41728515999999,37.2792969 Z"/>
    <path class="st2" d="M 27.3168945,20.9702148 L 20.368164,27.972656200000003 L 27.3168945,34.9448242 L 34.234375,27.9726562 Z"/>
    <path class="st2" d="M 35.41728516,224.36035159999994 L 35.41728516,205.14941409999994 L 35.41728515999999,205.1494141 L 18.0522461,205.1494141 L 18.0522461,224.3603516 L 35.41728515999999,224.3603516 Z"/>
    <path class="st1" d="M 27.3168945,221.4580078 L 34.234375,214.45507809999998 L 27.3168945,207.4736328 L 20.368164,214.45507809999998 Z"/>
    <path class="st2" d="M 35.41728516,149.76757809999998 L 35.41728516,130.52636719999995 L 35.41728516,130.5263672 L 18.0522461,130.5263672 L 18.0522461,149.7675781 L 35.417285160000006,149.7675781 Z"/>
    <path class="st1" d="M 27.3168945,146.8642578 L 34.234375,139.86230469999998 L 27.3168945,132.86035159999997 L 20.368164,139.86230469999998 Z"/>
    <path class="st2" d="M 13.4204102,195.8125 L 8.798339899999998,191.1435547 L 35.41728515999999,164.3162442936031 L 35.41728516,164.3162442936031 L 35.41728516,173.6497911335885 L 35.41728515999999,173.6497911335885 Z"/>
    <path class="st1" d="M 35.41728516,187.07421879999995 L 35.41728516,167.8427735 L 35.41728515999999,167.84277350000002 L 18.0522461,167.84277350000002 L 18.0522461,187.0742188 L 35.41728515999999,187.0742188 Z"/>
    <path class="st2" d="M 27.3168945,184.1611328 L 20.368164,177.1689453 L 27.3168945,170.16699219999998 L 34.234375,177.1689453 Z"/>
    <path d="M 35.41728516,4.572753900000001 L 35.41728516,236.57324219999995 L 35.417285160000006,236.5732422 L 4.482421899999991,236.5732422 L 4.4824219,236.5732422 L 4.4824219,4.5727539 L 35.41728515999999,4.5727539 Z" style="fill-rule:evenodd;clip-rule:evenodd;fill:none;stroke:#1E0C7D;stroke-width:3;stroke-linejoin:round;stroke-miterlimit:10;"/>
   </g>
  </svg>
  <svg height="242.6669922" id="image-167.0864258x242.6669922" viewBox="0.000000 0.000000 167.086426 242.666992" width="167.0864258">
   <g id="Layer_x0020_1" style="fill-rule:nonzero;clip-rule:nonzero;fill:#FFFFFF;stroke:#000000;stroke-miterlimit:4;">
    <path d="M166.8364258,235.5478516c0,3.7773438-3.0859375,6.8691406-6.8701172,6.8691406H7.1113281c-3.7749023,0-6.8613281-3.0917969-6.8613281-6.8691406V7.1196289C0.25,3.3427734,3.3364258,0.25,7.1113281,0.25h152.8549805    c3.7841797,0,6.8701172,3.0927734,6.8701172,6.8696289v228.4282227z" style="stroke-width:0.5;"/>
    <path class="st1" d="M119.8374023,46.6162109V9.3193359H82.8110352v37.296875h37.0263672z"/>
    <path class="st2" d="M156.8432617,46.6162109V9.3193359h-37.0058594v37.296875h37.0058594z"/>
    <path class="st1" d="M156.8432617,83.9130859v-37.296875h-37.0058594v37.296875h37.0058594z"/>
    <path class="st2" d="M119.8374023,83.9130859v-37.296875H82.8110352v37.296875h37.0263672z"/>
    <path class="st1" d="M45.8041992,121.2089844V83.9130859H8.7983398v37.2958984h37.0058594z"/>
    <path class="st2" d="M82.8110352,121.2089844V83.9130859H45.8041992v37.2958984h37.0068359z"/>
    <path class="st1" d="M119.8374023,121.2089844V83.9130859H82.8110352v37.2958984h37.0263672z"/>
    <path class="st2" d="M156.8432617,121.2089844V83.9130859h-37.0058594v37.2958984h37.0058594z"/>
    <path class="st1" d="M82.8110352,83.9130859v-37.296875H45.8041992v37.296875h37.0068359z"/>
    <path class="st2" d="M45.8041992,83.9130859v-37.296875H8.7983398v37.296875h37.0058594z"/>
    <path class="st1" d="M45.8041992,46.6162109V9.3193359H8.7983398v37.296875h37.0058594z"/>
    <path class="st2" d="M82.8110352,46.6162109V9.3193359H45.8041992v37.296875h37.0068359z"/>
    <path class="st1" d="M82.8110352,233.1191406V195.8125H45.8041992v37.3066406h37.0068359z"/>
    <path class="st2" d="M45.8041992,233.1191406V195.8125H8.7983398v37.3066406h37.0058594z"/>
    <path class="st1" d="M45.8041992,195.8125v-37.296875H8.7983398V195.8125h37.0058594z"/>
    <path class="st2" d="M82.8110352,195.8125v-37.296875H45.8041992V195.8125h37.0068359z"/>
    <path class="st1" d="M156.8432617,158.515625v-37.3066406h-37.0058594v37.3066406h37.0058594z"/>
    <path class="st2" d="M119.8374023,158.515625v-37.3066406H82.8110352v37.3066406h37.0263672z"/>
    <path class="st1" d="M82.8110352,158.515625v-37.3066406H45.8041992v37.3066406h37.0068359z"/>
    <path class="st2" d="M45.8041992,158.515625v-37.3066406H8.7983398v37.3066406h37.0058594z"/>
    <path class="st1" d="M119.8374023,195.8125v-37.296875H82.8110352V195.8125h37.0263672z"/>
    <path class="st2" d="M156.8432617,195.8125v-37.296875h-37.0058594V195.8125h37.0058594z"/>
    <path class="st1" d="M156.8432617,233.1191406V195.8125h-37.0058594v37.3066406h37.0058594z"/>
    <path class="st2" d="M119.8374023,233.1191406V195.8125H82.8110352v37.3066406h37.0263672z"/>
    <path class="st2" d="M115.2045898,9.3193359l4.6328125,4.6479492L87.4428711,46.6162109l-4.6318359-4.668457l32.3935547-32.628418z"/>
    <path class="st1" d="M152.2114258,9.3193359l4.6318359,4.6479492l-32.3730469,32.6489258l-4.6328125-4.668457l32.3740234-32.628418"/>
    <path class="st2" d="M124.4702148,46.6162109l-4.6328125,4.668457l32.3740234,32.628418l4.6318359-4.6694336l-32.3730469-32.6274414z"/>
    <path class="st1" d="M87.4428711,46.6162109l-4.6318359,4.668457l32.3935547,32.628418l4.6328125-4.6694336L87.4428711,46.6162109"/>
    <path class="st2" d="M41.1728516,83.9130859l4.6313477,4.6572266l-32.3837891,32.6386719l-4.6220703-4.6474609l32.3745117-32.6484375z"/>
    <path class="st1" d="M78.1992188,83.9130859l4.6118164,4.6572266l-32.3745117,32.6386719l-4.6323242-4.6474609l32.3950195-32.6484375"/>
    <path class="st2" d="M115.2045898,83.9130859l4.6328125,4.6572266l-32.3945313,32.6386719l-4.6318359-4.6474609l32.3935547-32.6484375z"/>
    <path class="st1" d="M152.2114258,83.9130859l4.6318359,4.6572266l-32.3730469,32.6386719l-4.6328125-4.6474609l32.3740234-32.6484375"/>
    <path class="st2" d="M50.4365234,46.6162109l-4.6323242,4.668457l32.3950195,32.628418l4.6118164-4.6694336L50.4365234,46.6162109z"/>
    <path class="st1" d="M13.4204102,46.6162109l-4.6220703,4.668457l32.3745117,32.628418l4.6313477-4.6694336L13.4204102,46.6162109"/>
    <path class="st2" d="M41.1728516,9.3193359l4.6313477,4.6479492L13.4204102,46.6162109l-4.6220703-4.668457l32.3745117-32.628418z"/>
    <path class="st1" d="M78.1992188,9.3193359l4.6118164,4.6479492L50.4365234,46.6162109l-4.6323242-4.668457l32.3950195-32.628418"/>
    <path class="st2" d="M50.4365234,233.1191406l-4.6323242-4.6689453L78.1992188,195.8125l4.6118164,4.6679688l-32.3745117,32.6386719z"/>
    <path class="st1" d="M13.4204102,233.1191406l-4.6220703-4.6689453L41.1728516,195.8125l4.6313477,4.6679688l-32.3837891,32.6386719"/>
    <path class="st2" d="M41.1728516,195.8125l4.6313477-4.6689453L13.4204102,158.515625l-4.6220703,4.6689453L41.1728516,195.8125z"/>
    <path class="st1" d="M78.1992188,195.8125l4.6118164-4.6689453L50.4365234,158.515625l-4.6323242,4.6689453L78.1992188,195.8125"/>
    <path class="st2" d="M124.4702148,158.515625l-4.6328125-4.6582031l32.3740234-32.6484375l4.6318359,4.6689453l-32.3730469,32.6376953z"/>
    <path class="st1" d="M87.4428711,158.515625l-4.6318359-4.6582031l32.3935547-32.6484375l4.6328125,4.6689453L87.4428711,158.515625"/>
    <path class="st2" d="M50.4365234,158.515625l-4.6323242-4.6582031l32.3950195-32.6484375l4.6118164,4.6689453L50.4365234,158.515625z"/>
    <path class="st1" d="M13.4204102,158.515625l-4.6220703-4.6582031l32.3745117-32.6484375l4.6313477,4.6689453L13.4204102,158.515625"/>
    <path class="st2" d="M115.2045898,195.8125l4.6328125-4.6689453L87.4428711,158.515625l-4.6318359,4.6689453L115.2045898,195.8125z"/>
    <path class="st1" d="M152.2114258,195.8125l4.6318359-4.6689453l-32.3730469-32.6279297l-4.6328125,4.6689453L152.2114258,195.8125"/>
    <path class="st2" d="M124.4702148,233.1191406l-4.6328125-4.6689453L152.2114258,195.8125l4.6318359,4.6679688l-32.3730469,32.6386719z"/>
    <path class="st1" d="M87.4428711,233.1191406l-4.6318359-4.6689453L115.2045898,195.8125l4.6328125,4.6679688l-32.3945313,32.6386719"/>
    <path class="st2" d="M87.4428711,9.3193359l-4.6318359,4.6479492l32.3935547,32.6489258l4.6328125-4.668457L87.4428711,9.3193359z"/>
    <path class="st2" d="M101.3188477,9.3193359L82.8110352,27.9726563l18.5078125,18.6435547l18.5185547-18.6435547L101.3188477,9.3193359z"/>
    <path class="st1" d="M124.4702148,9.3193359l-4.6328125,4.6479492l32.3740234,32.6489258l4.6318359-4.668457l-32.3730469-32.628418"/>
    <path class="st1" d="M138.3256836,9.3193359l-18.4882813,18.6533203l18.4882813,18.6435547l18.5175781-18.6435547L138.3256836,9.3193359"/>
    <path class="st2" d="M152.2114258,46.6162109l4.6318359,4.668457l-32.3730469,32.628418l-4.6328125-4.6694336l32.3740234-32.6274414z"/>
    <path class="st2" d="M138.3256836,46.6162109l18.5175781,18.6533203l-18.5175781,18.6435547l-18.4882813-18.6435547l18.4882813-18.6533203z"/>
    <path class="st1" d="M115.2045898,46.6162109l4.6328125,4.668457l-32.3945313,32.628418l-4.6318359-4.6694336l32.3935547-32.6274414"/>
    <path class="st1" d="M101.3188477,46.6162109l18.5185547,18.6533203l-18.5185547,18.6435547L82.8110352,65.2695313l18.5078125-18.6533203"/>
    <path class="st2" d="M13.4204102,83.9130859l-4.6220703,4.6572266l32.3745117,32.6386719l4.6313477-4.6474609L13.4204102,83.9130859z"/>
    <path class="st2" d="M27.3168945,83.9130859L8.7983398,102.5654297l18.5185547,18.6435547l18.4873047-18.6435547L27.3168945,83.9130859z"/>
    <path class="st1" d="M50.4365234,83.9130859l-4.6323242,4.6572266l32.3950195,32.6386719l4.6118164-4.6474609L50.4365234,83.9130859"/>
    <path class="st1" d="M64.3232422,83.9130859l-18.519043,18.6523438l18.519043,18.6435547l18.487793-18.6435547l-18.487793-18.6523438"/>
    <path class="st2" d="M87.4428711,83.9130859l-4.6318359,4.6572266l32.3935547,32.6386719l4.6328125-4.6474609L87.4428711,83.9130859z"/>
    <path class="st2" d="M101.3188477,83.9130859l-18.5078125,18.6523438l18.5078125,18.6435547l18.5185547-18.6435547l-18.5185547-18.6523438z"/>
    <path class="st1" d="M124.4702148,83.9130859l-4.6328125,4.6572266l32.3740234,32.6386719l4.6318359-4.6474609l-32.3730469-32.6484375"/>
    <path class="st1" d="M138.3256836,83.9130859l-18.4882813,18.6523438l18.4882813,18.6435547l18.5175781-18.6435547l-18.5175781-18.6523438"/>
    <path class="st2" d="M78.1992188,46.6162109l4.6118164,4.668457l-32.3745117,32.628418l-4.6323242-4.6694336l32.3950195-32.6274414z"/>
    <path class="st2" d="M64.3232422,46.6162109l18.487793,18.6533203l-18.487793,18.6435547l-18.519043-18.6435547l18.519043-18.6533203z"/>
    <path class="st1" d="M41.1728516,46.6162109l4.6313477,4.668457l-32.3837891,32.628418l-4.6220703-4.6694336l32.3745117-32.6274414"/>
    <path class="st1" d="M27.3168945,46.6162109l18.4873047,18.6533203L27.3168945,83.9130859L8.7983398,65.2695313l18.5185547-18.6533203"/>
    <path class="st2" d="M13.4204102,9.3193359l-4.6220703,4.6479492l32.3745117,32.6489258l4.6313477-4.668457L13.4204102,9.3193359z"/>
    <path class="st2" d="M27.3168945,9.3193359L8.7983398,27.9726563l18.5185547,18.6435547l18.4873047-18.6435547L27.3168945,9.3193359z"/>
    <path class="st1" d="M50.4365234,9.3193359l-4.6323242,4.6479492l32.3950195,32.6489258l4.6118164-4.668457L50.4365234,9.3193359"/>
    <path class="st1" d="M64.3232422,9.3193359l-18.519043,18.6533203l18.519043,18.6435547l18.487793-18.6435547L64.3232422,9.3193359"/>
    <path class="st2" d="M78.1992188,233.1191406l4.6118164-4.6689453L50.4365234,195.8125l-4.6323242,4.6679688l32.3950195,32.6386719z"/>
    <path class="st2" d="M64.3232422,233.1191406l18.487793-18.6640625L64.3232422,195.8125l-18.519043,18.6425781l18.519043,18.6640625z"/>
    <path class="st1" d="M41.1728516,233.1191406l4.6313477-4.6689453L13.4204102,195.8125l-4.6220703,4.6679688l32.3745117,32.6386719"/>
    <path class="st1" d="M27.3168945,233.1191406l18.4873047-18.6640625L27.3168945,195.8125L8.7983398,214.4550781l18.5185547,18.6640625"/>
    <path class="st2" d="M27.3168945,195.8125L8.7983398,177.1689453l18.5185547-18.6533203l18.4873047,18.6533203L27.3168945,195.8125z"/>
    <path class="st1" d="M50.4365234,195.8125l-4.6323242-4.6689453l32.3950195-32.6279297l4.6118164,4.6689453L50.4365234,195.8125"/>
    <path class="st1" d="M64.3232422,195.8125l-18.519043-18.6435547l18.519043-18.6533203l18.487793,18.6533203L64.3232422,195.8125"/>
    <path class="st2" d="M152.2114258,158.515625l4.6318359-4.6582031l-32.3730469-32.6484375l-4.6328125,4.6689453l32.3740234,32.6376953z"/>
    <path class="st2" d="M138.3256836,158.515625l18.5175781-18.6533203l-18.5175781-18.6533203l-18.4882813,18.6533203l18.4882813,18.6533203z"/>
    <path class="st1" d="M115.2045898,158.515625l4.6328125-4.6582031l-32.3945313-32.6484375l-4.6318359,4.6689453l32.3935547,32.6376953"/>
    <path class="st1" d="M101.3188477,158.515625l18.5185547-18.6533203l-18.5185547-18.6533203l-18.5078125,18.6533203l18.5078125,18.6533203"/>
    <path class="st2" d="M78.1992188,158.515625l4.6118164-4.6582031l-32.3745117-32.6484375l-4.6323242,4.6689453l32.3950195,32.6376953z"/>
    <path class="st2" d="M64.3232422,158.515625l18.487793-18.6533203l-18.487793-18.6533203l-18.519043,18.6533203l18.519043,18.6533203z"/>
    <path class="st1" d="M41.1728516,158.515625l4.6313477-4.6582031l-32.3837891-32.6484375l-4.6220703,4.6689453l32.3745117,32.6376953"/>
    <path class="st1" d="M27.3168945,158.515625l18.4873047-18.6533203l-18.4873047-18.6533203L8.7983398,139.8623047l18.5185547,18.6533203"/>
    <path class="st2" d="M87.4428711,195.8125l-4.6318359-4.6689453l32.3935547-32.6279297l4.6328125,4.6689453L87.4428711,195.8125z"/>
    <path class="st2" d="M101.3188477,195.8125l-18.5078125-18.6435547l18.5078125-18.6533203l18.5185547,18.6533203L101.3188477,195.8125z"/>
    <path class="st1" d="M124.4702148,195.8125l-4.6328125-4.6689453l32.3740234-32.6279297l4.6318359,4.6689453L124.4702148,195.8125"/>
    <path class="st1" d="M138.3256836,195.8125l-18.4882813-18.6435547l18.4882813-18.6533203l18.5175781,18.6533203L138.3256836,195.8125"/>
    <path class="st2" d="M152.2114258,233.1191406l4.6318359-4.6689453L124.4702148,195.8125l-4.6328125,4.6679688l32.3740234,32.6386719z"/>
    <path class="st2" d="M138.3256836,233.1191406l18.5175781-18.6640625L138.3256836,195.8125l-18.4882813,18.6425781l18.4882813,18.6640625z"/>
    <path class="st1" d="M115.2045898,233.1191406l4.6328125-4.6689453L87.4428711,195.8125l-4.6318359,4.6679688l32.3935547,32.6386719"/>
    <path class="st1" d="M101.3188477,233.1191406l18.5185547-18.6640625L101.3188477,195.8125l-18.5078125,18.6425781l18.5078125,18.6640625"/>
    <path class="st1" d="M110.5834961,37.2792969V18.0576172H92.0649414v19.2216797h18.5185547z"/>
    <path class="st2" d="M147.5893555,37.2792969V18.0576172h-18.4980469v19.2216797h18.4980469z"/>
    <path class="st2" d="M101.3188477,20.9702148l-6.9375,7.0024414l6.9375,6.972168l6.9482422-6.972168l-6.9482422-7.0024414"/>
    <path class="st1" d="M138.3256836,20.9702148l-6.9277344,7.0024414l6.9277344,6.972168l6.9472656-6.972168l-6.9472656-7.0024414"/>
    <path class="st1" d="M147.5893555,74.5859375V55.3642578h-18.4980469v19.2216797h18.4980469z"/>
    <path class="st2" d="M110.5834961,74.5859375V55.3642578H92.0649414v19.2216797h18.5185547z"/>
    <path class="st2" d="M138.3256836,58.2768555l6.9472656,6.9926758l-6.9472656,6.9819336l-6.9277344-6.9819336l6.9277344-6.9926758"/>
    <path class="st1" d="M101.3188477,58.2768555l6.9482422,6.9926758l-6.9482422,6.9819336l-6.9375-6.9819336l6.9375-6.9926758"/>
    <path class="st1" d="M36.5507813,111.8925781V92.6606445H18.0522461v19.2319336h18.4985352z"/>
    <path class="st2" d="M73.5673828,111.8925781V92.6606445H55.059082v19.2319336h18.5083008z"/>
    <path class="st2" d="M27.3168945,95.5629883l-6.9487305,7.0024414l6.9487305,7.0029297l6.9174805-7.0029297l-6.9174805-7.0024414"/>
    <path class="st1" d="M64.3232422,95.5629883L57.375,102.5654297l6.9482422,7.0029297l6.9277344-7.0029297l-6.9277344-7.0024414"/>
    <path class="st1" d="M110.5834961,111.8925781V92.6606445H92.0649414v19.2319336h18.5185547z"/>
    <path class="st2" d="M147.5893555,111.8925781V92.6606445h-18.4980469v19.2319336h18.4980469z"/>
    <path class="st2" d="M101.3188477,95.5629883l-6.9375,7.0024414l6.9375,7.0029297l6.9482422-7.0029297l-6.9482422-7.0024414"/>
    <path class="st1" d="M138.3256836,95.5629883l-6.9277344,7.0024414l6.9277344,7.0029297l6.9472656-7.0029297l-6.9472656-7.0024414"/>
    <path class="st1" d="M73.5673828,74.5859375V55.3642578H55.059082v19.2216797h18.5083008z"/>
    <path class="st2" d="M36.5507813,74.5859375V55.3642578H18.0522461v19.2216797h18.4985352z"/>
    <path class="st2" d="M64.3232422,58.2768555l6.9277344,6.9926758l-6.9277344,6.9819336L57.375,65.2695313l6.9482422-6.9926758"/>
    <path class="st1" d="M27.3168945,58.2768555l6.9174805,6.9926758l-6.9174805,6.9819336l-6.9487305-6.9819336l6.9487305-6.9926758"/>
    <path class="st1" d="M36.5507813,37.2792969V18.0576172H18.0522461v19.2216797h18.4985352z"/>
    <path class="st2" d="M73.5673828,37.2792969V18.0576172H55.059082v19.2216797h18.5083008z"/>
    <path class="st2" d="M27.3168945,20.9702148l-6.9487305,7.0024414l6.9487305,6.972168l6.9174805-6.972168l-6.9174805-7.0024414"/>
    <path class="st1" d="M64.3232422,20.9702148L57.375,27.9726563l6.9482422,6.972168l6.9277344-6.972168l-6.9277344-7.0024414"/>
    <path class="st1" d="M73.5673828,224.3603516v-19.2109375H55.059082v19.2109375h18.5083008z"/>
    <path class="st2" d="M36.5507813,224.3603516v-19.2109375H18.0522461v19.2109375h18.4985352z"/>
    <path class="st2" d="M64.3232422,221.4580078l6.9277344-7.0029297l-6.9277344-6.9814453L57.375,214.4550781l6.9482422,7.0029297"/>
    <path class="st1" d="M27.3168945,221.4580078l6.9174805-7.0029297l-6.9174805-6.9814453l-6.9487305,6.9814453l6.9487305,7.0029297"/>
    <path class="st2" d="M73.5673828,187.0742188v-19.2314453H55.059082v19.2314453h18.5083008z"/>
    <path class="st1" d="M64.3232422,184.1611328L57.375,177.1689453l6.9482422-7.0019531l6.9277344,7.0019531l-6.9277344,6.9921875"/>
    <path class="st1" d="M147.5893555,149.7675781v-19.2412109h-18.4980469v19.2412109h18.4980469z"/>
    <path class="st2" d="M110.5834961,149.7675781v-19.2412109H92.0649414v19.2412109h18.5185547z"/>
    <path class="st2" d="M138.3256836,146.8642578l6.9472656-7.0019531l-6.9472656-7.0019531l-6.9277344,7.0019531l6.9277344,7.0019531"/>
    <path class="st1" d="M101.3188477,146.8642578l6.9482422-7.0019531l-6.9482422-7.0019531l-6.9375,7.0019531l6.9375,7.0019531"/>
    <path class="st1" d="M73.5673828,149.7675781v-19.2412109H55.059082v19.2412109h18.5083008z"/>
    <path class="st2" d="M36.5507813,149.7675781v-19.2412109H18.0522461v19.2412109h18.4985352z"/>
    <path class="st2" d="M64.3232422,146.8642578l6.9277344-7.0019531l-6.9277344-7.0019531L57.375,139.8623047l6.9482422,7.0019531"/>
    <path class="st1" d="M27.3168945,146.8642578l6.9174805-7.0019531l-6.9174805-7.0019531l-6.9487305,7.0019531l6.9487305,7.0019531"/>
    <path class="st1" d="M110.5834961,187.0742188v-19.2314453H92.0649414v19.2314453h18.5185547z"/>
    <path class="st2" d="M147.5893555,187.0742188v-19.2314453h-18.4980469v19.2314453h18.4980469z"/>
    <path class="st2" d="M101.3188477,184.1611328l-6.9375-6.9921875l6.9375-7.0019531l6.9482422,7.0019531l-6.9482422,6.9921875"/>
    <path class="st1" d="M138.3256836,184.1611328l-6.9277344-6.9921875l6.9277344-7.0019531l6.9472656,7.0019531l-6.9472656,6.9921875"/>
    <path class="st1" d="M147.5893555,224.3603516v-19.2109375h-18.4980469v19.2109375h18.4980469z"/>
    <path class="st2" d="M110.5834961,224.3603516v-19.2109375H92.0649414v19.2109375h18.5185547z"/>
    <path class="st2" d="M138.3256836,221.4580078l6.9472656-7.0029297l-6.9472656-6.9814453l-6.9277344,6.9814453l6.9277344,7.0029297"/>
    <path class="st1" d="M101.3188477,221.4580078l6.9482422-7.0029297l-6.9482422-6.9814453l-6.9375,6.9814453l6.9375,7.0029297"/>
    <path class="st2" d="M13.4204102,195.8125l-4.6220703-4.6689453l32.3745117-32.6279297l4.6313477,4.6689453L13.4204102,195.8125z"/>
    <path class="st1" d="M36.5507813,187.0742188v-19.2314453H18.0522461v19.2314453h18.4985352z"/>
    <path class="st2" d="M27.3168945,184.1611328l-6.9487305-6.9921875l6.9487305-7.0019531l6.9174805,7.0019531l-6.9174805,6.9921875"/>
    <path d="M162.2319336,236.5732422H4.4824219V4.5727539h157.7495117v232.0004883z" style="fill-rule:evenodd;clip-rule:evenodd;fill:none;stroke:#1E0C7D;stroke-width:3;stroke-linejoin:round;stroke-miterlimit:10;"/>
   </g>
  </svg>
 </defs>
</svg>
