<?xml version="1.0" ?>
<!--    This set of SVG files contains images of playing cards' backs		-->
<!--    adapted from version 1.1 of the upstream project			-->
<!--    <https://sourceforge.net/projects/svg-cards/>				-->
<!--    									-->
<!--    Copyright (C) 2004 David Bellot						-->
<!--    Copyright © 2017,2019 Stan Livitski					-->
<!--										-->
<!--    This library is free software; you can redistribute it and/or		-->
<!--    modify it under the terms of the GNU Lesser General Public		-->
<!--    License as published by the Free Software Foundation; either		-->
<!--    version 3 of the License, or (at your option) any later version		-->
<!--										-->
<!--    This library is distributed in the hope that it will be useful,		-->
<!--    but WITHOUT ANY WARRANTY; without even the implied warranty of		-->
<!--    MERCHANTABILITY or FITNESS FOR A PARTICULAR PURPOSE.  See the GNU	-->
<!--    Lesser General Public License for more details.				-->
<!--										-->
<!--    You should have received a copy of the GNU Lesser General Public	-->
<!--    License along with this library; if not, write to the Free Software	-->
<!--    Foundation, Inc., 59 Temple Place, Suite 330, Boston, MA 02111-1307  USA-->
<!--										-->
<svg height="242.6669922pt" preserveAspectRatio="none" viewBox="0.000000 0.000000 229.503711 242.666992" width="235.6916803161456pt" xml:space="preserve" xmlns="http://www.w3.org/2000/svg" xmlns:xlink="http://www.w3.org/1999/xlink">
 <use x="0" xlink:href="#clip-4x243" y="0"/>
 <use x="4.0" xlink:href="#clip-8x243" y="0"/>
 <use x="12.0" xlink:href="#clip-17x243" y="0"/>
 <use x="29.0" xlink:href="#clip-33.41728516x242.6669922" y="0"/>
 <use x="62.41728516" xlink:href="#image-167.0864258x242.6669922" y="0"/>
 <defs>
  <style>
   .st1 { fill-rule:evenodd;clip-rule:evenodd;stroke:none; }
   .st2 { fill:none;stroke-width:0.825;stroke-miterlimit:10; }
  </style>
  <svg height="243" id="clip-4x243" viewBox="0.000000 0.000000 4.000000 243.000000" width="4">
   <g style="fill-rule:nonzero;clip-rule:nonzero;stroke:#000000;stroke-miterlimit:4;">
    <path d="M 6.0,0.3406112630496434 L 6.0,242.32640834890458 L 6.000000000000011,242.32640834890464 C 2.7488740210145743,241.79094051592247 0.25,238.9469608318281 0.25,235.5478516 L 0.25,7.1201172 C 0.25,3.721007878185137 2.748874021014584,0.8762374527722783 6.000000000000029,0.34061126304963785 Z" style="fill:#FFFFFF;stroke-width:0.5;"/>
   </g>
  </svg>
  <svg height="243" id="clip-8x243" viewBox="0.000000 0.000000 8.000000 243.000000" width="8">
   <g style="fill-rule:nonzero;clip-rule:nonzero;stroke:#000000;stroke-miterlimit:4;">
    <path d="M 10.0,0.2499999999999991 L 10.0,242.41699219999995 L 10.000000000000014,242.4169922 L 7.110839800000008,242.4169922 L 7.1108398,242.4169922 C 3.3359375,242.4169922 0.25,239.32519530000002 0.25,235.5478516 L 0.25,7.1201172 C 0.25,3.3427734 3.3359375,0.25 7.1108398,0.25 L 10.000000000000023,0.25 Z" style="fill:#FFFFFF;stroke-width:0.5;"/>
   </g>
  </svg>
  <svg height="243" id="clip-17x243" viewBox="0.000000 0.000000 17.000000 243.000000" width="17">
   <g style="fill-rule:nonzero;clip-rule:nonzero;stroke:#000000;stroke-miterlimit:4;">
    <path d="M 19.0,0.2499999999999991 L 19.0,242.41699219999995 L 19.00000000000001,242.4169922 L 7.110839800000008,242.4169922 L 7.1108398,242.4169922 C 3.3359375,242.4169922 0.25,239.32519530000002 0.25,235.5478516 L 0.25,7.1201172 C 0.25,3.3427734 3.3359375,0.25 7.1108398,0.25 L 19.000000000000004,0.25 Z" style="fill:#FFFFFF;stroke-width:0.5;"/>
    <path d="M 19.0,93.65649548442217 L 19.0,122.2632219865768 L 19.0,122.26322198657682 C 15.74438272127141,118.40183484235003 13.780761699999996,113.4095592314319 13.780761699999996,107.95996090000001 C 13.780761699999996,102.5103625501533 15.744382714707255,97.51799007081972 18.999999999999996,93.65649548442217 Z" style="fill:none;stroke:#201887;stroke-width:3.330775;stroke-miterlimit:10;"/>
   </g>
  </svg>
  <svg height="242.6669922" id="clip-33.41728516x242.6669922" viewBox="0.000000 0.000000 33.417285 242.666992" width="33.41728516">
   <g style="fill-rule:nonzero;clip-rule:nonzero;stroke:#000000;stroke-miterlimit:4;">
    <path d="M 35.41728516,0.2499999999999969 L 35.41728516,242.41699219999998 L 35.417285160000006,242.4169922 L 7.110839800000008,242.4169922 L 7.1108398,242.4169922 C 3.3359375,242.4169922 0.25,239.32519530000002 0.25,235.5478516 L 0.25,7.1201172 C 0.25,3.3427734 3.3359375,0.25 7.1108398,0.25 L 35.417285159999956,0.25 Z" style="fill:#FFFFFF;stroke-width:0.5;"/>
    <path d="M 35.41728516,85.79719981792336 L 35.41728516,130.12223391284238 L 35.41728516,130.1222339128424 C 23.432636271526782,129.87621001722928 13.780761699999996,120.04203490947411 13.780761699999996,107.95996090000001 C 13.780761699999996,95.87788688928686 23.432636176011787,86.04323571440842 35.41728516000003,85.79719981792339 Z" style="fill:none;stroke:#201887;stroke-width:3.330775;stroke-miterlimit:10;"/>
   </g>
  </svg>
  <svg height="242.6669922" id="image-167.0864258x242.6669922" viewBox="0.000000 0.000000 167.086426 242.666992" width="167.0864258">
   <g id="Layer_x0020_1" style="fill-rule:nonzero;clip-rule:nonzero;stroke:#000000;stroke-miterlimit:4;">
    <path d="M166.8364258,235.5478516c0,3.7773438-3.0869141,6.8691406-6.8701172,6.8691406H7.1108398c-3.7749023,0-6.8608398-3.0917969-6.8608398-6.8691406V7.1201172C0.25,3.3427734,3.3359375,0.25,7.1108398,0.25h152.8554688    c3.7832031,0,6.8701172,3.0927734,6.8701172,6.8701172v228.4277344z" style="fill:#FFFFFF;stroke-width:0.5;"/>
    <path d="M57.9746094,107.9599609c0,12.2363281-9.8999023,22.1669922-22.097168,22.1669922c-12.1967773,0-22.0966797-9.9306641-22.0966797-22.1669922s9.8999023-22.1674805,22.0966797-22.1674805    c12.1972656,0,22.097168,9.9311523,22.097168,22.1674805z" style="fill:none;stroke:#201887;stroke-width:3.330775;stroke-miterlimit:10;"/>
    <path d="M106.1557617,108.434082c0,12.2368164-9.8994141,22.1674805-22.097168,22.1674805c-12.1967773,0-22.0961914-9.9306641-22.0961914-22.1674805c0-12.2363281,9.8994141-22.1669922,22.0961914-22.1669922    c12.1977539,0,22.097168,9.9306641,22.097168,22.1669922z" style="fill:none;stroke-width:3.330775;stroke-miterlimit:10;"/>
    <path d="M154.550293,108.434082c0,12.2368164-9.8984375,22.1674805-22.0957031,22.1674805c-12.1982422,0-22.0976563-9.9306641-22.0976563-22.1674805c0-12.2363281,9.8994141-22.1669922,22.0976563-22.1669922    c12.1972656,0,22.0957031,9.9306641,22.0957031,22.1669922z" style="fill:none;stroke:#E61408;stroke-width:3.330775;stroke-miterlimit:10;"/>
    <path d="M82.137207,131.7353516c0,12.2363281-9.8989258,22.1679688-22.0966797,22.1679688c-12.1972656,0-22.0961914-9.9316406-22.0961914-22.1679688c0-12.2358398,9.8989258-22.1665039,22.0961914-22.1665039    c12.1977539,0,22.0966797,9.9306641,22.0966797,22.1665039z" style="fill:none;stroke:#FBF227;stroke-width:3.330775;stroke-miterlimit:10;"/>
    <path d="M130.8911133,131.7353516c0,12.2363281-9.8994141,22.1679688-22.0966797,22.1679688s-22.0976563-9.9316406-22.0976563-22.1679688c0-12.2358398,9.9003906-22.1665039,22.0976563-22.1665039s22.0966797,9.9306641,22.0966797,22.1665039z" style="fill:none;stroke:#108D35;stroke-width:3.330775;stroke-miterlimit:10;"/>
    <path d="M56.7578125,108.105957c-0.0322266,1.449707-0.1977539,2.8999023-0.3637695,3.6523438c0.6748047,0.0444336,2.28125,1.140625,2.5229492-0.1660156c0.2416992-1.2734375,0.3706055-3.0942383,0.2993164-4.449707    c-0.105957-1.3554688-1.7607422,0.9521484-2.4584961,0.9633789z" style="fill-rule:evenodd;clip-rule:evenodd;fill:#201887;stroke:none;"/>
    <path d="M56.7578125,108.105957c-0.0322266,1.449707-0.1977539,2.8999023-0.3637695,3.6523438c0.6748047,0.0444336,2.28125,1.140625,2.5229492-0.1660156c0.2416992-1.2734375,0.3706055-3.0942383,0.2993164-4.449707    c-0.105957-1.3554688-1.7607422,0.9521484-2.4584961,0.9633789z" style="fill:none;stroke:#201887;stroke-width:0.825;stroke-miterlimit:10;"/>
    <path class="st1" d="M83.7089844,129.3564453c-1.4501953-0.0332031-2.9003906-0.1992188-3.652832-0.3652344c-0.0449219,0.6748047-1.140625,2.28125,0.1660156,2.5234375c1.2729492,0.2421875,2.3266602,0.3710938,3.6821289,0.2988281    c1.3549805-0.1054688-0.184082-1.7597656-0.1953125-2.4570313z"/>
    <path class="st2" d="M83.7089844,129.3564453c-1.4501953-0.0332031-2.9003906-0.1992188-3.652832-0.3652344c-0.0449219,0.6748047-1.140625,2.28125,0.1660156,2.5234375c1.2729492,0.2421875,2.3266602,0.3710938,3.6821289,0.2988281    c1.3549805-0.1054688-0.184082-1.7597656-0.1953125-2.4570313z"/>
    <path class="st1" d="M104.9233398,108.2255859c-0.0332031,1.449707-0.1328125,2.9331055-0.2988281,3.6850586c0.6748047,0.0444336,2.2167969,1.4033203,2.4589844,0.097168c0.2402344-1.2739258,0.3701172-2.6230469,0.2978516-3.9780273    c-0.1044922-1.3544922-1.7597656,0.1845703-2.4580078,0.1958008z"/>
    <path class="st2" d="M104.9233398,108.2255859c-0.0332031,1.449707-0.1328125,2.9331055-0.2988281,3.6850586c0.6748047,0.0444336,2.2167969,1.4033203,2.4589844,0.097168c0.2402344-1.2739258,0.3701172-2.6230469,0.2978516-3.9780273    c-0.1044922-1.3544922-1.7597656,0.1845703-2.4580078,0.1958008z"/>
    <path d="M132.4536133,129.3544922c-1.4501953-0.0332031-2.9326172-0.1347656-3.6865234-0.2998047c-0.0439453,0.6748047-1.4023438,2.2167969-0.0957031,2.4580078c1.2734375,0.2421875,2.6220703,0.3710938,3.9765625,0.2988281    c1.3554688-0.1054688-0.1835938-1.7597656-0.1943359-2.4570313z" style="fill-rule:evenodd;clip-rule:evenodd;fill:#E61408;stroke:none;"/>
    <path d="M132.4536133,129.3544922c-1.4501953-0.0332031-2.9326172-0.1347656-3.6865234-0.2998047c-0.0439453,0.6748047-1.4023438,2.2167969-0.0957031,2.4580078c1.2734375,0.2421875,2.6220703,0.3710938,3.9765625,0.2988281    c1.3554688-0.1054688-0.1835938-1.7597656-0.1943359-2.4570313z" style="fill:none;stroke:#E61408;stroke-width:0.825;stroke-miterlimit:10;"/>
   </g>
  </svg>
 </defs>
</svg>
