<?xml version="1.0" encoding="UTF-8"?>
<!--    This set of SVG files contains images of playing cards' backs		-->
<!--    adapted from version 1.1 of the upstream project			-->
<!--    <https://sourceforge.net/projects/svg-cards/>				-->
<!--    									-->
<!--    Copyright (C) 2004 David Bellot						-->
<!--    Copyright © 2017 Stan Livitski						-->
<!--										-->
<!--    This library is free software; you can redistribute it and/or		-->
<!--    modify it under the terms of the GNU Lesser General Public		-->
<!--    License as published by the Free Software Foundation; either		-->
<!--    version 3 of the License, or (at your option) any later version		-->
<!--										-->
<!--    This library is distributed in the hope that it will be useful,		-->
<!--    but WITHOUT ANY WARRANTY; without even the implied warranty of		-->
<!--    MERCHANTABILITY or FITNESS FOR A PARTICULAR PURPOSE.  See the GNU	-->
<!--    Lesser General Public License for more details.				-->
<!--										-->
<!--    You should have received a copy of the GNU Lesser General Public	-->
<!--    License along with this library; if not, write to the Free Software	-->
<!--    Foundation, Inc., 59 Temple Place, Suite 330, Boston, MA 02111-1307  USA-->
<!--										-->
<svg xmlns="http://www.w3.org/2000/svg" width="171.5900947pt" height="242.6669922pt" viewBox="0 0 167.0864258 242.6669922" xml:space="preserve" preserveAspectRatio="none">
<defs>
<style><![CDATA[
     .st-N10042 {
      fill-rule:evenodd;clip-rule:evenodd;stroke:none;
     }
     .st-N10046 {
      fill:none;stroke-width:0.825;stroke-miterlimit:10;
     }
     ]]></style>
</defs>
	<g id="Layer_x0020_1" style="fill-rule:nonzero;clip-rule:nonzero;stroke:#000000;stroke-miterlimit:4;">
		<path d="M166.8364258,235.5478516c0,3.7773438-3.0869141,6.8691406-6.8701172,6.8691406H7.1108398c-3.7749023,0-6.8608398-3.0917969-6.8608398-6.8691406V7.1201172C0.25,3.3427734,3.3359375,0.25,7.1108398,0.25h152.8554688    c3.7832031,0,6.8701172,3.0927734,6.8701172,6.8701172v228.4277344z" style="fill:#FFFFFF;stroke-width:0.5;"/>
		<path d="M57.9746094,107.9599609c0,12.2363281-9.8999023,22.1669922-22.097168,22.1669922c-12.1967773,0-22.0966797-9.9306641-22.0966797-22.1669922s9.8999023-22.1674805,22.0966797-22.1674805    c12.1972656,0,22.097168,9.9311523,22.097168,22.1674805z" style="fill:none;stroke:#201887;stroke-width:3.330775;stroke-miterlimit:10;"/>
		<path d="M106.1557617,108.434082c0,12.2368164-9.8994141,22.1674805-22.097168,22.1674805c-12.1967773,0-22.0961914-9.9306641-22.0961914-22.1674805c0-12.2363281,9.8994141-22.1669922,22.0961914-22.1669922    c12.1977539,0,22.097168,9.9306641,22.097168,22.1669922z" style="fill:none;stroke-width:3.330775;stroke-miterlimit:10;"/>
		<path d="M154.550293,108.434082c0,12.2368164-9.8984375,22.1674805-22.0957031,22.1674805c-12.1982422,0-22.0976563-9.9306641-22.0976563-22.1674805c0-12.2363281,9.8994141-22.1669922,22.0976563-22.1669922    c12.1972656,0,22.0957031,9.9306641,22.0957031,22.1669922z" style="fill:none;stroke:#E61408;stroke-width:3.330775;stroke-miterlimit:10;"/>
		<path d="M82.137207,131.7353516c0,12.2363281-9.8989258,22.1679688-22.0966797,22.1679688c-12.1972656,0-22.0961914-9.9316406-22.0961914-22.1679688c0-12.2358398,9.8989258-22.1665039,22.0961914-22.1665039    c12.1977539,0,22.0966797,9.9306641,22.0966797,22.1665039z" style="fill:none;stroke:#FBF227;stroke-width:3.330775;stroke-miterlimit:10;"/>
		<path d="M130.8911133,131.7353516c0,12.2363281-9.8994141,22.1679688-22.0966797,22.1679688s-22.0976563-9.9316406-22.0976563-22.1679688c0-12.2358398,9.9003906-22.1665039,22.0976563-22.1665039s22.0966797,9.9306641,22.0966797,22.1665039z" style="fill:none;stroke:#108D35;stroke-width:3.330775;stroke-miterlimit:10;"/>
		<path d="M56.7578125,108.105957c-0.0322266,1.449707-0.1977539,2.8999023-0.3637695,3.6523438c0.6748047,0.0444336,2.28125,1.140625,2.5229492-0.1660156c0.2416992-1.2734375,0.3706055-3.0942383,0.2993164-4.449707    c-0.105957-1.3554688-1.7607422,0.9521484-2.4584961,0.9633789z" style="fill-rule:evenodd;clip-rule:evenodd;fill:#201887;stroke:none;"/>
		<path d="M56.7578125,108.105957c-0.0322266,1.449707-0.1977539,2.8999023-0.3637695,3.6523438c0.6748047,0.0444336,2.28125,1.140625,2.5229492-0.1660156c0.2416992-1.2734375,0.3706055-3.0942383,0.2993164-4.449707    c-0.105957-1.3554688-1.7607422,0.9521484-2.4584961,0.9633789z" style="fill:none;stroke:#201887;stroke-width:0.825;stroke-miterlimit:10;"/>
		<path d="M83.7089844,129.3564453c-1.4501953-0.0332031-2.9003906-0.1992188-3.652832-0.3652344c-0.0449219,0.6748047-1.140625,2.28125,0.1660156,2.5234375c1.2729492,0.2421875,2.3266602,0.3710938,3.6821289,0.2988281    c1.3549805-0.1054688-0.184082-1.7597656-0.1953125-2.4570313z" class="st-N10042"/>
		<path d="M83.7089844,129.3564453c-1.4501953-0.0332031-2.9003906-0.1992188-3.652832-0.3652344c-0.0449219,0.6748047-1.140625,2.28125,0.1660156,2.5234375c1.2729492,0.2421875,2.3266602,0.3710938,3.6821289,0.2988281    c1.3549805-0.1054688-0.184082-1.7597656-0.1953125-2.4570313z" class="st-N10046"/>
		<path d="M104.9233398,108.2255859c-0.0332031,1.449707-0.1328125,2.9331055-0.2988281,3.6850586c0.6748047,0.0444336,2.2167969,1.4033203,2.4589844,0.097168c0.2402344-1.2739258,0.3701172-2.6230469,0.2978516-3.9780273    c-0.1044922-1.3544922-1.7597656,0.1845703-2.4580078,0.1958008z" class="st-N10042"/>
		<path d="M104.9233398,108.2255859c-0.0332031,1.449707-0.1328125,2.9331055-0.2988281,3.6850586c0.6748047,0.0444336,2.2167969,1.4033203,2.4589844,0.097168c0.2402344-1.2739258,0.3701172-2.6230469,0.2978516-3.9780273    c-0.1044922-1.3544922-1.7597656,0.1845703-2.4580078,0.1958008z" class="st-N10046"/>
		<path d="M132.4536133,129.3544922c-1.4501953-0.0332031-2.9326172-0.1347656-3.6865234-0.2998047c-0.0439453,0.6748047-1.4023438,2.2167969-0.0957031,2.4580078c1.2734375,0.2421875,2.6220703,0.3710938,3.9765625,0.2988281    c1.3554688-0.1054688-0.1835938-1.7597656-0.1943359-2.4570313z" style="fill-rule:evenodd;clip-rule:evenodd;fill:#E61408;stroke:none;"/>
		<path d="M132.4536133,129.3544922c-1.4501953-0.0332031-2.9326172-0.1347656-3.6865234-0.2998047c-0.0439453,0.6748047-1.4023438,2.2167969-0.0957031,2.4580078c1.2734375,0.2421875,2.6220703,0.3710938,3.9765625,0.2988281    c1.3554688-0.1054688-0.1835938-1.7597656-0.1943359-2.4570313z" style="fill:none;stroke:#E61408;stroke-width:0.825;stroke-miterlimit:10;"/>
	</g>
</svg>
