<?xml version="1.0" ?>
<!--    This set of SVG files contains images of playing cards' backs		-->
<!--    adapted from version 1.1 of the upstream project			-->
<!--    <https://sourceforge.net/projects/svg-cards/>				-->
<!--    									-->
<!--    Copyright (C) 2004 David Bellot						-->
<!--    Copyright © 2017,2019 Stan Livitski					-->
<!--										-->
<!--    This library is free software; you can redistribute it and/or		-->
<!--    modify it under the terms of the GNU Lesser General Public		-->
<!--    License as published by the Free Software Foundation; either		-->
<!--    version 3 of the License, or (at your option) any later version		-->
<!--										-->
<!--    This library is distributed in the hope that it will be useful,		-->
<!--    but WITHOUT ANY WARRANTY; without even the implied warranty of		-->
<!--    MERCHANTABILITY or FITNESS FOR A PARTICULAR PURPOSE.  See the GNU	-->
<!--    Lesser General Public License for more details.				-->
<!--										-->
<!--    You should have received a copy of the GNU Lesser General Public	-->
<!--    License along with this library; if not, write to the Free Software	-->
<!--    Foundation, Inc., 59 Temple Place, Suite 330, Boston, MA 02111-1307  USA-->
<!--										-->
<svg height="242.6669922pt" preserveAspectRatio="none" viewBox="0.000000 0.000000 229.496094 242.666992" width="235.6928117893201pt" xml:space="preserve" xmlns="http://www.w3.org/2000/svg" xmlns:xlink="http://www.w3.org/1999/xlink">
 <use x="0" xlink:href="#clip-4x243" y="0"/>
 <use x="4.0" xlink:href="#clip-8x243" y="0"/>
 <use x="12.0" xlink:href="#clip-17x243" y="0"/>
 <use x="29.0" xlink:href="#clip-33.41601562x242.6669922" y="0"/>
 <use x="62.41601562" xlink:href="#image-167.0800781x242.6669922" y="0"/>
 <defs>
  <style>.st1 { stroke:none; }</style>
  <svg height="243" id="clip-4x243" viewBox="0.000000 0.000000 4.000000 243.000000" width="4">
   <g style="fill-rule:nonzero;clip-rule:nonzero;fill:#14A4C6;stroke:#14A4C6;stroke-width:0.625;stroke-miterlimit:4;">
    <path d="M 6.0,0.340755605357971 L 6.0,242.32627725772363 L 6.00000000000001,242.32627725772363 C 2.749026211294245,241.7903116376035 0.25,238.94503798977337 0.25,235.5478516 L 0.25,7.1201172 C 0.25,3.723370104215327 2.749026211294235,0.8769544396582161 5.999999999999991,0.34075560535797006 Z" style="fill:#FFFFFF;stroke:#000000;stroke-width:0.5;"/>
    <g class="st1"/>
    <g style="stroke-miterlimit:8;"/>
   </g>
  </svg>
  <svg height="243" id="clip-8x243" viewBox="0.000000 0.000000 8.000000 243.000000" width="8">
   <g style="fill-rule:nonzero;clip-rule:nonzero;fill:#14A4C6;stroke:#14A4C6;stroke-width:0.625;stroke-miterlimit:4;">
    <path d="M 10.0,0.2500000000000009 L 10.0,242.41699219999998 L 10.0,242.4169922 L 7.111328100000009,242.4169922 L 7.1113281,242.4169922 C 3.3364257999999998,242.4169922 0.25,239.3232422 0.25,235.5478516 L 0.25,7.1201172 C 0.25,3.3452148 3.3364258,0.25 7.1113281,0.25 L 9.999999999999993,0.25 Z" style="fill:#FFFFFF;stroke:#000000;stroke-width:0.5;"/>
    <g class="st1"/>
    <g style="stroke-miterlimit:8;"/>
   </g>
  </svg>
  <svg height="243" id="clip-17x243" viewBox="0.000000 0.000000 17.000000 243.000000" width="17">
   <g style="fill-rule:nonzero;clip-rule:nonzero;fill:#14A4C6;stroke:#14A4C6;stroke-width:0.625;stroke-miterlimit:4;">
    <path d="M 19.0,0.2499999999999991 L 19.0,242.41699219999995 L 19.000000000000004,242.4169922 L 7.111328100000009,242.4169922 L 7.1113281,242.4169922 C 3.3364257999999998,242.4169922 0.25,239.3232422 0.25,235.5478516 L 0.25,7.1201172 C 0.25,3.3452148 3.3364258,0.25 7.1113281,0.25 L 19.00000000000002,0.25 Z" style="fill:#FFFFFF;stroke:#000000;stroke-width:0.5;"/>
    <g class="st1">
     <path d="M 19.0,166.54562523158756 L 19.0,167.8259938460342 L 19.00000000000001,167.82599384603427 C 17.981220131059665,167.7295886281546 17.2495117,167.6640625 17.2495117,167.6640625 C 17.2495117,167.6640625 17.963245254207244,167.24566696822336 19.0,166.54562523158765 Z"/>
    </g>
    <path d="M 19.0,111.69895331830975 L 19.0,122.40314689076519 L 19.0,122.40314689076526 L 17.338378900000002,111.96337890000001 L 18.999999999999996,111.69895331830978 Z" style="fill:#FFFFFF;stroke:#FFFFFF;stroke-miterlimit:8;"/>
    <g style="stroke-miterlimit:8;"/>
    <path d="M 19.0,111.6301464112853 L 19.0,123.28389423010833 L 19.0,123.28389423010834 L 17.19140620000001,111.91796879999998 L 18.999999999999996,111.63014641128535 Z" style="fill:none;stroke-width:2.9671469;stroke-miterlimit:8;"/>
   </g>
  </svg>
  <svg height="242.6669922" id="clip-33.41601562x242.6669922" viewBox="0.000000 0.000000 33.416016 242.666992" width="33.41601562">
   <g style="fill-rule:nonzero;clip-rule:nonzero;fill:#14A4C6;stroke:#14A4C6;stroke-width:0.625;stroke-miterlimit:4;">
    <path d="M 35.41601562,0.24999999999999822 L 35.41601562,242.41699220000004 L 35.41601561999998,242.4169922 L 7.111328100000009,242.4169922 L 7.1113281,242.4169922 C 3.3364257999999998,242.4169922 0.25,239.3232422 0.25,235.5478516 L 0.25,7.1201172 C 0.25,3.3452148 3.3364258,0.25 7.1113281,0.25 L 35.41601561999998,0.25 Z" style="fill:#FFFFFF;stroke:#000000;stroke-width:0.5;"/>
    <g class="st1">
     <path d="M 35.41601562,136.06570091422213 L 35.41601562,173.30014757989846 L 35.41601561999997,173.3001475798984 C 33.726639530025366,170.7745681600507 32.5620117,168.4453125 32.5620117,168.4453125 C 32.5620117,168.4453125 21.4682617,168.6015625 24.5932617,168.6015625 C 27.7182617,168.6015625 17.2495117,167.6640625 17.2495117,167.6640625 C 17.2495117,167.6640625 21.7807617,165.0078125 24.5932617,161.8828125 C 27.4057617,158.7578125 29.9057617,152.3515625 29.9057617,152.3515625 L 35.416015619999996,136.06570091422225 Z"/>
    </g>
    <path d="M 35.41601562,91.0453420489193 L 35.41601562,147.00058984094116 L 35.41601562000001,147.0005898409412 C 30.614166453243843,138.79395180924848 27.8603516,129.231805734479 27.8603516,119.02343749999999 C 27.8603516,108.81474273358441 30.614166453243843,99.25227011569665 35.41601562000001,91.04534204891928 Z" style="fill:none;stroke:#FFFFFF;stroke-width:8.75;stroke-miterlimit:8;"/>
    <path d="M 35.41601562,82.15469917673836 L 35.41601562,155.48792541101216 L 35.416015619999996,155.48792541101218 C 27.536500100804957,145.355744123615 22.84619150000001,132.63478840354168 22.84619150000001,118.82128909999999 C 22.84619150000001,105.00819760273185 27.536500100804975,92.2871388340875 35.41601562000004,82.1546991767383 Z" style="fill:none;stroke-width:3.75;stroke-miterlimit:8;"/>
    <path d="M 35.41601562,103.19800225856352 L 35.41601562,134.52736025065894 L 35.416015620000024,134.52736025065894 C 33.79855017977244,129.6001497241742 32.9233398,124.33409592567365 32.9233398,118.86279300000001 C 32.9233398,113.39129649865879 33.798550179772434,108.12518341340102 35.41601562000001,103.1980022585635 Z" style="fill:none;stroke-width:3.1174648;stroke-miterlimit:8;"/>
    <path d="M 35.41601562,109.08655601584742 L 35.41601562,128.9123384450975 L 35.416015619999996,128.91233844509748 L 20.41601560000001,131.2998047 L 20.4160156,131.2998047 L 17.338378900000002,111.96337890000001 L 35.41601561999999,109.08655601584739 Z" style="fill:#FFFFFF;stroke:#FFFFFF;stroke-miterlimit:8;"/>
    <g style="stroke-miterlimit:8;">
     <path d="M 24.7739258,114.4863281 L 27.716796900000002,114.055664 C 29.120605500000003,113.8500976 30.186035200000003,113.78124989999999 30.913086000000003,113.849121 C 31.640136800000004,113.9165038 32.2651368,114.11669909999999 32.7885743,114.4492187 C 33.3168946,114.7807617 33.7402345,115.2148437 34.0585938,115.75146480000001 C 34.376953099999994,116.28808590000001 34.588867199999996,116.9169921 34.694336,117.63867180000001 C 34.8413087,118.64208980000001 34.7783204,119.6166991 34.5048829,120.5629882 C 34.2319337,121.50927730000001 33.7734376,122.3378905 33.1298829,123.04785150000001 C 32.5703126,123.6796874 31.885742299999997,124.1718749 31.0756837,124.52246090000001 C 30.2656251,124.87304690000002 28.9853517,125.17675780000002 27.234375099999998,125.43261720000001 L 24.291992299999997,125.8642578 L 24.7739259,114.48632810000001 Z"/>
     <path d="M 27.4912109,116.2993164 L 27.177734299999997,123.23046869999999 L 28.180663999999997,123.08398429999998 C 29.483398399999995,122.89257799999999 30.460937399999995,122.36914049999999 31.112304599999998,121.51318349999998 C 31.7636718,120.65722649999998 31.9965819,119.59521469999999 31.811035099999998,118.32763659999998 C 31.685058499999997,117.46923819999998 31.342285099999998,116.85693349999998 30.782714799999997,116.49023429999998 C 30.223144499999997,116.12402339999998 29.452636699999996,116.01220699999999 28.4721679,116.15576159999998 L 27.4912109,116.29931629999997 Z"/>
    </g>
    <path d="M 35.41601562,109.0176765305829 L 35.41601562,128.84209772445507 L 35.41601561999998,128.84209772445507 L 20.26806640000001,131.25292969999998 L 17.19140620000001,111.91796879999998 L 35.416015619999996,109.01767653058289 Z" style="fill:none;stroke-width:2.9671469;stroke-miterlimit:8;"/>
   </g>
  </svg>
  <svg height="242.6669922" id="image-167.0800781x242.6669922" viewBox="0.000000 0.000000 167.080078 242.666992" width="167.0800781">
   <g id="Layer_x0020_1" style="fill-rule:nonzero;clip-rule:nonzero;fill:#14A4C6;stroke:#14A4C6;stroke-width:0.625;stroke-miterlimit:4;">
    <path d="M166.8300781,235.5478516c0,3.7753906-3.0859375,6.8691406-6.8701172,6.8691406H7.1113281c-3.7749023,0-6.8613281-3.09375-6.8613281-6.8691406V7.1201172C0.25,3.3452148,3.3364258,0.25,7.1113281,0.25h152.8486328    c3.7841797,0,6.8701172,3.0952148,6.8701172,6.8701172v228.4277344z" style="fill:#FFFFFF;stroke:#000000;stroke-width:0.5;"/>
    <g class="st1">
     <path d="M39.7495117,56.1015625l16.40625-0.15625l23.125-10.46875l-9.375,17.8125c0,0-1.09375,2.96875-1.25,5.78125s2.03125,11.09375,2.03125,11.09375L82.875,154.0703125l0.15625,31.71875c0,0-5.9379883-4.375-7.9692383-6.875s-2.65625-6.875-2.65625-6.875     s-2.03125,0.15625-4.6875-1.09375s-4.0625-3.125-4.0625-3.125s4.21875-3.125,5.15625-8.125s-1.875-17.65625-1.875-17.65625l-7.1875-41.5625l-12.96875,48.4375l-2.03125,17.1875c0,0,0.9375,7.65625,1.71875,10.15625s2.8125,8.90625,2.8125,8.90625     s-6.71875-4.21875-10.15625-7.34375s-6.5625-9.375-6.5625-9.375s-11.09375,0.15625-7.96875,0.15625s-7.34375-0.9375-7.34375-0.9375s4.53125-2.65625,7.34375-5.78125s5.3125-9.53125,5.3125-9.53125l7.03125-20.78125l11.25-43.75     c0,0,0.78125-2.8125,1.40625-6.71875s-0.15625-6.71875-0.15625-6.71875s-4.6875-11.71875-3.4375-9.0625s-6.25-9.21875-6.25-9.21875z"/>
     <path d="M126,56.1015625l-16.40625-0.15625l-23.125-10.46875l9.375,17.8125c0,0,1.09375,2.96875,1.25,5.78125s-2.03125,11.09375-2.03125,11.09375l-12.1875,73.90625l-0.15625,31.71875c0,0,5.9375-4.375,7.96875-6.875s2.65625-6.875,2.65625-6.875     s2.03125,0.15625,4.6875-1.09375s4.0625-3.125,4.0625-3.125s-4.21875-3.125-5.15625-8.125s1.875-17.65625,1.875-17.65625l7.1875-41.5625l12.96875,48.4375l2.03125,17.1875c0,0-0.9375,7.65625-1.71875,10.15625s-2.8125,8.90625-2.8125,8.90625     s6.71875-4.21875,10.15625-7.34375s6.5625-9.375,6.5625-9.375s11.09375,0.15625,7.96875,0.15625s7.34375-0.9375,7.34375-0.9375s-4.53125-2.65625-7.34375-5.78125s-5.3125-9.53125-5.3125-9.53125l-7.03125-20.78125l-11.25-43.75     c0,0-0.78125-2.8125-1.40625-6.71875s0.15625-6.71875,0.15625-6.71875s4.6875-11.71875,3.4375-9.0625s6.25-9.21875,6.25-9.21875z"/>
    </g>
    <path d="M137.875,119.0234375c0,30.5283203-24.6269531,55.2773438-55.0068359,55.2773438s-55.0078125-24.7490234-55.0078125-55.2773438c0-30.5292969,24.6279297-55.2792969,55.0078125-55.2792969s55.0068359,24.75,55.0068359,55.2792969z" style="fill:none;stroke:#FFFFFF;stroke-width:8.75;stroke-miterlimit:8;"/>
    <path d="M143.0039063,118.8212891c0,33.0800781-26.8974609,59.8945313-60.078125,59.8945313c-33.1811523,0-60.0795898-26.8144531-60.0795898-59.8945313c0-33.0791016,26.8984375-59.8955078,60.0795898-59.8955078    c33.1806641,0,60.078125,26.8164063,60.078125,59.8955078z" style="fill:none;stroke-width:3.75;stroke-miterlimit:8;"/>
    <path d="M132.4375,118.862793c0,27.6030273-22.2792969,49.9819336-49.7578125,49.9819336c-27.4799805,0-49.7563477-22.3789063-49.7563477-49.9819336c0-27.6040039,22.2763672-49.9804688,49.7563477-49.9804688    c27.4785156,0,49.7578125,22.3764648,49.7578125,49.9804688z" style="fill:none;stroke-width:3.1174648;stroke-miterlimit:8;"/>
    <path d="M148.4375,110.9233398L20.4160156,131.2998047l-3.0776367-19.3364258L145.3603516,91.590332l3.0771484,19.3330078z" style="fill:#FFFFFF;stroke:#FFFFFF;stroke-miterlimit:8;"/>
    <g style="stroke-miterlimit:8;">
     <path d="M24.7739258,114.4863281l2.9428711-0.4306641c1.4038086-0.2055664,2.4692383-0.2744141,3.1962891-0.206543c0.7270508,0.0673828,1.3520508,0.2675781,1.8754883,0.6000977c0.5283203,0.331543,0.9516602,0.765625,1.2700195,1.3022461     s0.5302734,1.1655273,0.6357422,1.887207c0.1469727,1.003418,0.0839844,1.9780273-0.1894531,2.9243164c-0.2729492,0.9462891-0.7314453,1.7749023-1.375,2.4848633c-0.5595703,0.6318359-1.2441406,1.1240234-2.0541992,1.4746094     s-2.090332,0.6542969-3.8413086,0.9101563l-2.9423828,0.4316406l0.4819336-11.3779297z M27.4912109,116.2993164l-0.3134766,6.9311523l1.0029297-0.1464844c1.3027344-0.1914063,2.2802734-0.7148438,2.9316406-1.5708008s0.8842773-1.9179688,0.6987305-3.1855469     c-0.1259766-0.8583984-0.46875-1.4707031-1.0283203-1.8374023c-0.5595703-0.3662109-1.3300781-0.4780273-2.3105469-0.3344727l-0.980957,0.1435547z"/>
     <path d="M39.6049805,119.3422852l-0.1953125,4.3081055L36.625,124.0576172l0.4814453-11.3769531l4.1323242-0.6049805c1.1870117-0.1738281,2.1220703-0.0786133,2.8046875,0.2856445s1.0883789,0.9882813,1.2177734,1.8725586     c0.1308594,0.894043-0.0039063,1.6655273-0.4042969,2.3144531s-1.0073242,1.0761719-1.8212891,1.2807617c0.3876953,0.0244141,0.730957,0.175293,1.0292969,0.4526367s0.5893555,0.7265625,0.8725586,1.3476563l1.3808594,3.0092773l-2.7763672,0.40625     l-1.2192383-2.6313477c-0.2436523-0.5249023-0.4975586-0.8725586-0.7626953-1.043457c-0.2651367-0.1704102-0.6201172-0.2231445-1.0649414-0.1582031l-0.8901367,0.1303711z M40.8583984,117.137207c0.6328125-0.0922852,1.090332-0.3129883,1.3730469-0.6611328     c0.2822266-0.3481445,0.3808594-0.8125,0.2958984-1.394043c-0.0532227-0.3642578-0.2050781-0.6147461-0.4550781-0.7519531c-0.25-0.1367188-0.6142578-0.1704102-1.0942383-0.1000977l-1.1572266,0.1694336l-0.1347656,2.909668l1.1723633-0.171875z"/>
     <path d="M53.4072266,110.0888672c1.4375-0.2104492,2.6552734,0.0288086,3.6523438,0.71875s1.5922852,1.6948242,1.7851563,3.0146484c0.1318359,0.8999023,0.1230469,1.7695313-0.0268555,2.6098633c-0.1494141,0.8398438-0.4345703,1.6162109-0.8549805,2.3291016     c-0.5126953,0.8779297-1.1704102,1.5742188-1.9731445,2.0878906c-0.8032227,0.5136719-1.7631836,0.8525391-2.8798828,1.0161133c-1.4384766,0.2109375-2.6542969-0.027832-3.6484375-0.715332s-1.5878906-1.6938477-1.7817383-3.019043     c-0.1328125-0.9042969-0.1254883-1.7763672,0.0214844-2.6162109c0.1469727-0.8393555,0.4331055-1.6186523,0.8579102-2.3374023c0.503418-0.871582,1.1567383-1.5634766,1.9604492-2.074707c0.8032227-0.5112305,1.765625-0.8496094,2.8876953-1.0136719z      M55.9365234,114.559082c-0.1269531-0.8691406-0.4169922-1.5029297-0.8686523-1.9013672c-0.4511719-0.3979492-1.0400391-0.5439453-1.7661133-0.4375c-0.9677734,0.1416016-1.7138672,0.7041016-2.2382813,1.6865234     c-0.5239258,0.9824219-0.6884766,2.140625-0.4931641,3.4741211c0.1240234,0.8500977,0.4121094,1.4819336,0.8632813,1.8950195c0.4516602,0.4130859,1.0180664,0.5698242,1.6992188,0.4702148c0.5532227-0.0810547,1.027832-0.2729492,1.425293-0.5761719     c0.3964844-0.3027344,0.7138672-0.7109375,0.9516602-1.2250977c0.2202148-0.4912109,0.3681641-1.0302734,0.4438477-1.6166992s0.0698242-1.1757813-0.0170898-1.769043z"/>
     <path d="M61.1772461,109.15625l2.7944336-0.4091797l-0.4916992,11.3789063l-2.784668,0.4077148l0.4819336-11.3774414z"/>
     <path d="M65.421875,108.534668l9.9873047-1.4624023l-0.1005859,2.2255859l-3.5966797,0.5268555l-0.394043,9.1533203l-2.7910156,0.4086914l0.3969727-9.1538086l-3.6025391,0.5273438l0.1005859-2.2255859z"/>
     <path d="M88.2255859,114.449707l-4.3242188,0.6333008L83.1201172,117.25l-2.8574219,0.418457l4.4931641-11.9648438l3.1884766-0.4667969l3.5419922,10.7880859l-2.6552734,0.3886719l-0.6054688-1.9638672z M84.6523438,112.9199219l2.9150391-0.4267578     l-1.2773438-4.1713867l-1.6376953,4.5981445z"/>
     <path d="M92.8525391,104.5180664l2.7939453-0.4091797l-0.2890625,6.8110352c-0.015625,0.2441406-0.0205078,0.4594727-0.015625,0.6455078s0.0166016,0.3486328,0.0371094,0.4868164c0.0712891,0.484375,0.2509766,0.8276367,0.5410156,1.0297852     c0.2890625,0.2026367,0.6835938,0.2670898,1.1826172,0.1938477c0.6767578-0.0986328,1.1689453-0.3686523,1.4755859-0.8100586c0.3066406-0.440918,0.4785156-1.1362305,0.515625-2.0854492l0.296875-6.8193359l2.7871094-0.4082031l-0.2890625,6.8183594     c-0.0771484,1.6787109-0.5009766,2.9492188-1.2705078,3.8125c-0.7695313,0.862793-1.9697266,1.4135742-3.6005859,1.6523438c-1.2851563,0.1884766-2.3017578,0.0507813-3.0517578-0.4130859c-0.7490234-0.4638672-1.2021484-1.2299805-1.3583984-2.2983398     c-0.0263672-0.1782227-0.0429688-0.3789063-0.0507813-0.6030273c-0.0068359-0.2236328-0.0048828-0.4853516,0.0068359-0.7851563l0.2890625-6.8183594z"/>
     <path d="M116.8251953,106.2631836c0.4951172,0.0688477,0.8994141,0.2685547,1.2128906,0.5986328c0.3134766,0.3305664,0.5097656,0.7675781,0.5898438,1.3115234c0.1738281,1.1914063-0.1230469,2.1850586-0.8925781,2.9819336     s-1.9394531,1.3105469-3.5117188,1.5405273l-4.625,0.6772461l0.4814453-11.3774414l4.1806641-0.6118164c1.2871094-0.1884766,2.2675781-0.1352539,2.9414063,0.159668c0.6728516,0.2954102,1.0683594,0.8457031,1.1865234,1.6513672     c0.0986328,0.6772461,0.0048828,1.2978516-0.2822266,1.8623047c-0.2871094,0.5649414-0.7138672,0.9667969-1.28125,1.2060547z M114.1015625,110.7241211c0.6367188-0.0932617,1.1025391-0.3203125,1.4003906-0.6811523s0.4033203-0.8320313,0.3183594-1.4135742     c-0.0537109-0.3696289-0.2128906-0.6259766-0.4755859-0.7685547s-0.6376953-0.1787109-1.1259766-0.1069336l-1.6425781,0.2402344l-0.125,2.9711914l1.6503906-0.2412109z M114.2216797,105.7636719c0.4941406-0.0722656,0.8642578-0.2573242,1.1083984-0.5546875     s0.3339844-0.6704102,0.2675781-1.1186523c-0.0419922-0.2900391-0.1728516-0.4975586-0.390625-0.621582s-0.5126953-0.1591797-0.8828125-0.1044922l-1.5546875,0.2275391l-0.109375,2.4003906l1.5615234-0.2285156z"/>
     <path d="M121.4130859,100.3364258l2.7949219-0.4091797l-0.2900391,6.8105469c-0.0146484,0.2441406-0.0195313,0.4599609-0.0146484,0.6455078c0.0039063,0.1860352,0.0166016,0.3486328,0.0371094,0.4868164     c0.0703125,0.484375,0.2509766,0.8276367,0.5400391,1.0302734c0.2900391,0.2021484,0.6845703,0.2666016,1.1835938,0.1938477c0.6767578-0.0991211,1.1689453-0.3691406,1.4746094-0.8100586c0.3066406-0.4414063,0.4794922-1.1367188,0.5166016-2.0859375     l0.296875-6.8193359l2.7871094-0.4082031l-0.2890625,6.8183594c-0.0771484,1.6787109-0.5009766,2.949707-1.2705078,3.8125c-0.7695313,0.8632813-1.9697266,1.4140625-3.6005859,1.652832c-1.2851563,0.1879883-2.3027344,0.050293-3.0517578-0.4135742     s-1.2021484-1.2299805-1.3583984-2.2983398c-0.0263672-0.1782227-0.0429688-0.3789063-0.0507813-0.6025391c-0.0078125-0.2241211-0.0058594-0.4858398,0.0058594-0.7856445l0.2890625-6.8178711z"/>
     <path d="M132.1855469,98.7587891l9.9873047-1.4624023l-0.1005859,2.2255859l-3.5966797,0.5268555l-0.3945313,9.1538086l-2.7910156,0.4086914l0.3974609-9.1542969l-3.6025391,0.5273438l0.1005859-2.2255859z"/>
    </g>
    <path d="M148.2900391,110.8779297l-128.0219727,20.375l-3.0766602-19.3349609l128.0214844-20.3735352l3.0771484,19.3334961z" style="fill:none;stroke-width:2.9671469;stroke-miterlimit:8;"/>
    <g class="st1">
     <path d="M71.3222656,60.597168l-1.4165039,2.6918945c0,0-1.09375,2.96875-1.25,5.78125c-0.0151367,0.2709961-0.0087891,0.5927734,0.015625,0.953125c0.2290039,3.3779297-19.703125,14.984375-19.078125,11.078125s-0.15625-6.71875-0.15625-6.71875     s-0.9892578-2.4746094-1.9379883-4.8916016c-1.1162109-2.8427734,23.8232422-8.894043,23.8232422-8.894043z"/>
     <path d="M93.6113281,59.0478516l2.2324219,4.2412109c0,0,1.09375,2.96875,1.25,5.78125c0.0341797,0.6308594-0.0488281,1.5380859-0.1982422,2.5644531c-0.5175781,3.5483398,19.8857422,13.3730469,19.2607422,9.4667969s0.15625-6.71875,0.15625-6.71875     s1.0644531-2.6635742,2.0449219-5.1630859c1.0751953-2.7436523,2.046875-5.2900391,1.3925781-3.8994141c-1.25,2.65625-26.1386719-6.2724609-26.1386719-6.2724609z"/>
    </g>
    <g class="st1">
     <path d="M82.875,154.0703125l0.15625,31.71875c0,0-5.9379883-4.375-7.9692383-6.875s-2.65625-6.875-2.65625-6.875s-2.03125,0.15625-4.6875-1.09375s-4.0625-3.125-4.0625-3.125s4.21875-3.125,5.15625-8.125s14.0629883-5.625,14.0629883-5.625z"/>
     <path d="M82.875,154.0703125l-0.15625,31.71875c0,0,5.9375-4.375,7.96875-6.875s2.65625-6.875,2.65625-6.875s2.03125,0.15625,4.6875-1.09375s4.0625-3.125,4.0625-3.125s-4.21875-3.125-5.15625-8.125s-14.0625-5.625-14.0625-5.625z"/>
    </g>
   </g>
  </svg>
 </defs>
</svg>
