<?xml version="1.0" ?>
<!--    This set of SVG files contains images of playing cards' backs		-->
<!--    adapted from version 1.1 of the upstream project			-->
<!--    <https://sourceforge.net/projects/svg-cards/>				-->
<!--    									-->
<!--    Copyright (C) 2004 David Bellot						-->
<!--    Copyright © 2017,2019 Stan Livitski					-->
<!--										-->
<!--    This library is free software; you can redistribute it and/or		-->
<!--    modify it under the terms of the GNU Lesser General Public		-->
<!--    License as published by the Free Software Foundation; either		-->
<!--    version 3 of the License, or (at your option) any later version		-->
<!--										-->
<!--    This library is distributed in the hope that it will be useful,		-->
<!--    but WITHOUT ANY WARRANTY; without even the implied warranty of		-->
<!--    MERCHANTABILITY or FITNESS FOR A PARTICULAR PURPOSE.  See the GNU	-->
<!--    Lesser General Public License for more details.				-->
<!--										-->
<!--    You should have received a copy of the GNU Lesser General Public	-->
<!--    License along with this library; if not, write to the Free Software	-->
<!--    Foundation, Inc., 59 Temple Place, Suite 330, Boston, MA 02111-1307  USA-->
<!--										-->
<svg height="242.6669922pt" preserveAspectRatio="none" viewBox="0.000000 0.000000 328.629639 242.666992" width="337.4902803222665pt" xml:space="preserve" xmlns="http://www.w3.org/2000/svg" xmlns:xlink="http://www.w3.org/1999/xlink">
 <use height="243" width="5" x="0" xlink:href="#clip-5x243" y="0"/>
 <use height="243" width="10" x="5" xlink:href="#clip-10x243" y="0"/>
 <use height="243" width="21" x="15" xlink:href="#clip-21x243" y="0"/>
 <use height="243" width="42" x="36" xlink:href="#clip-42x243" y="0"/>
 <use height="242.6669922" width="83.5432129" x="78" xlink:href="#clip-83.5432129x242.6669922" y="0"/>
 <use height="242.6669922" width="167.0864258" x="161.54321290000001" xlink:href="#image-167.0864258x242.6669922" y="0"/>
 <defs>
  <style>
   .st1 { fill-rule:evenodd;clip-rule:evenodd;stroke:none; }
   .st2 { fill:none;stroke-width:0.825;stroke-miterlimit:10; }
  </style>
  <svg height="243" id="clip-5x243" viewBox="0.000000 0.000000 5.000000 243.000000" width="5">
   <g style="fill-rule:nonzero;clip-rule:nonzero;stroke:#000000;stroke-miterlimit:4;">
    <path d="M 7.0,0.2508897617027017 L 7.0,242.41610271810293 L 6.9999999999999885,242.4161027181029 C 3.275717849949686,242.35629504875988 0.25,239.28815777031184 0.25,235.5478516 L 0.25,7.1201172 C 0.25,3.379810930668668 3.2757178499497024,0.31071620688134205 7.000000000000016,0.25088976170270305 Z" style="fill:#FFFFFF;stroke-width:0.5;"/>
   </g>
  </svg>
  <svg height="243" id="clip-10x243" viewBox="0.000000 0.000000 10.000000 243.000000" width="10">
   <g style="fill-rule:nonzero;clip-rule:nonzero;stroke:#000000;stroke-miterlimit:4;">
    <path d="M 12.0,0.2499999999999991 L 12.0,242.41699219999998 L 12.000000000000007,242.4169922 L 7.110839800000008,242.4169922 L 7.1108398,242.4169922 C 3.3359375,242.4169922 0.25,239.32519530000002 0.25,235.5478516 L 0.25,7.1201172 C 0.25,3.3427734 3.3359375,0.25 7.1108398,0.25 L 11.999999999999972,0.25 Z" style="fill:#FFFFFF;stroke-width:0.5;"/>
   </g>
  </svg>
  <svg height="243" id="clip-21x243" viewBox="0.000000 0.000000 21.000000 243.000000" width="21">
   <g style="fill-rule:nonzero;clip-rule:nonzero;stroke:#000000;stroke-miterlimit:4;">
    <path d="M 23.0,0.24999999999999956 L 23.0,242.41699219999998 L 22.999999999999982,242.4169922 L 7.110839800000008,242.4169922 L 7.1108398,242.4169922 C 3.3359375,242.4169922 0.25,239.32519530000002 0.25,235.5478516 L 0.25,7.1201172 C 0.25,3.3427734 3.3359375,0.25 7.1108398,0.25 L 22.999999999999975,0.25 Z" style="fill:#FFFFFF;stroke-width:0.5;"/>
    <path d="M 23.0,89.94785865731193 L 23.0,125.97174237208041 L 22.999999999999996,125.9717423720804 C 17.418296611486607,121.94716203263512 13.780761699999996,115.37714813188701 13.780761699999996,107.95996090000001 C 13.780761699999996,100.54277364888355 17.41829659360449,93.9725803165494 23.000000000000007,89.94785865731193 Z" style="fill:none;stroke:#201887;stroke-width:3.330775;stroke-miterlimit:10;"/>
   </g>
  </svg>
  <svg height="243" id="clip-42x243" viewBox="0.000000 0.000000 42.000000 243.000000" width="42">
   <g style="fill-rule:nonzero;clip-rule:nonzero;stroke:#000000;stroke-miterlimit:4;">
    <path d="M 44.0,0.2500000000000009 L 44.0,242.41699219999998 L 43.999999999999986,242.4169922 L 7.110839800000008,242.4169922 L 7.1108398,242.4169922 C 3.3359375,242.4169922 0.25,239.32519530000002 0.25,235.5478516 L 0.25,7.1201172 C 0.25,3.3427734 3.3359375,0.25 7.1108398,0.25 L 44.00000000000003,0.25 Z" style="fill:#FFFFFF;stroke-width:0.5;"/>
    <path d="M 44.0,87.33995360544962 L 44.0,128.57954816857966 C 41.48529442095414,129.57812970636456 38.74485041098788,130.1269531 35.877441399999995,130.1269531 C 23.680664099999994,130.1269531 13.780761699999996,120.19628900000001 13.780761699999996,107.95996090000001 C 13.780761699999996,95.72363280000002 23.680663999999997,85.79248040000002 35.877441399999995,85.79248040000002 C 38.74485040316318,85.79248040000003 41.48529441496892,86.3413307802703 44.0,87.33995360544964 Z" style="fill:none;stroke:#201887;stroke-width:3.330775;stroke-miterlimit:10;"/>
    <path d="M 44.0,116.49492362758886 L 44.0,146.9766625815064 C 40.247163819936674,143.00289333567537 37.94433590000001,137.63719695689042 37.94433590000001,131.7353516 C 37.94433590000001,125.83374180897749 40.247163819936674,120.46839454477578 44.00000000000001,116.49492362758886 Z" style="fill:none;stroke:#FBF227;stroke-width:3.330775;stroke-miterlimit:10;"/>
   </g>
  </svg>
  <svg height="242.6669922" id="clip-83.5432129x242.6669922" viewBox="0.000000 0.000000 83.543213 242.666992" width="83.5432129">
   <g style="fill-rule:nonzero;clip-rule:nonzero;stroke:#000000;stroke-miterlimit:4;">
    <path d="M 85.5432129,0.2500000000000062 L 85.5432129,242.41699220000004 L 85.5432129,242.4169922 L 7.110839800000008,242.4169922 L 7.1108398,242.4169922 C 3.3359375,242.4169922 0.25,239.32519530000002 0.25,235.5478516 L 0.25,7.1201172 C 0.25,3.3427734 3.3359375,0.25 7.1108398,0.25 L 85.54321290000004,0.25 Z" style="fill:#FFFFFF;stroke-width:0.5;"/>
    <path d="M 57.9746094,107.9599609 C 57.9746094,120.196289 48.0747071,130.1269531 35.877441399999995,130.1269531 C 23.680664099999994,130.1269531 13.780761699999996,120.19628900000001 13.780761699999996,107.95996090000001 C 13.780761699999996,95.72363280000002 23.680663999999997,85.79248040000002 35.877441399999995,85.79248040000002 C 48.074707,85.79248040000002 57.97460939999999,95.72363270000002 57.97460939999999,107.95996090000001 Z" style="fill:none;stroke:#201887;stroke-width:3.330775;stroke-miterlimit:10;"/>
    <path d="M 85.5432129,86.31640504933125 L 85.5432129,130.55224721725966 L 85.54321289999994,130.5522472172597 C 85.05253127177585,130.58495018482898 84.55748485204306,130.6015625 84.0585937,130.6015625 C 71.86181640000001,130.6015625 61.96240230000001,120.6708984 61.96240230000001,108.434082 C 61.96240230000001,96.19775390000001 71.86181640000001,86.26708980000001 84.0585937,86.26708980000001 C 84.55748485204307,86.26708980000001 85.05253127177589,86.28370211517104 85.54321290000001,86.31640504933127 Z" style="fill:none;stroke-width:3.330775;stroke-miterlimit:10;"/>
    <path d="M 82.137207,131.7353516 C 82.137207,143.9716797 72.2382812,153.9033204 60.04052730000001,153.9033204 C 47.843261700000006,153.9033204 37.94433590000001,143.9716798 37.94433590000001,131.7353516 C 37.94433590000001,119.4995118 47.84326170000001,109.5688477 60.04052730000001,109.5688477 C 72.2382812,109.5688477 82.137207,119.49951180000001 82.137207,131.7353516" style="fill:none;stroke:#FBF227;stroke-width:3.330775;stroke-miterlimit:10;"/>
    <path d="M 56.7578125,108.105957 C 56.7255859,109.55566400000001 56.5600586,111.0058593 56.394043,111.7583008 C 57.068847700000006,111.8027344 58.675293,112.8989258 58.9169922,111.5922852 C 59.1586914,110.3188477 59.287597700000006,108.4980469 59.216308600000005,107.1425782 C 59.11035160000001,105.7871094 57.4555664,108.0947266 56.75781250000001,108.1059571 Z" style="fill-rule:evenodd;clip-rule:evenodd;fill:#201887;stroke:none;"/>
    <path d="M 56.7578125,108.105957 C 56.7255859,109.55566400000001 56.5600586,111.0058593 56.394043,111.7583008 C 57.068847700000006,111.8027344 58.675293,112.8989258 58.9169922,111.5922852 C 59.1586914,110.3188477 59.287597700000006,108.4980469 59.216308600000005,107.1425782 C 59.11035160000001,105.7871094 57.4555664,108.0947266 56.75781250000001,108.1059571 Z" style="fill:none;stroke:#201887;stroke-width:0.825;stroke-miterlimit:10;"/>
    <path class="st1" d="M 83.7089844,129.3564453 C 82.2587891,129.32324219999998 80.80859380000001,129.15722649999998 80.0561524,128.9912109 C 80.0112305,129.6660156 78.9155274,131.2724609 80.222168,131.5146484 C 81.4951172,131.7568359 82.5488282,131.8857422 83.90429689999999,131.8134765 C 85.25927739999999,131.7080077 83.72021489999999,130.0537109 83.70898439999999,129.3564452 Z"/>
    <path class="st2" d="M 83.7089844,129.3564453 C 82.2587891,129.32324219999998 80.80859380000001,129.15722649999998 80.0561524,128.9912109 C 80.0112305,129.6660156 78.9155274,131.2724609 80.222168,131.5146484 C 81.4951172,131.7568359 82.5488282,131.8857422 83.90429689999999,131.8134765 C 85.25927739999999,131.7080077 83.72021489999999,130.0537109 83.70898439999999,129.3564452 Z"/>
   </g>
  </svg>
  <svg height="242.6669922" id="image-167.0864258x242.6669922" viewBox="0.000000 0.000000 167.086426 242.666992" width="167.0864258">
   <g id="Layer_x0020_1" style="fill-rule:nonzero;clip-rule:nonzero;stroke:#000000;stroke-miterlimit:4;">
    <path d="M166.8364258,235.5478516c0,3.7773438-3.0869141,6.8691406-6.8701172,6.8691406H7.1108398c-3.7749023,0-6.8608398-3.0917969-6.8608398-6.8691406V7.1201172C0.25,3.3427734,3.3359375,0.25,7.1108398,0.25h152.8554688    c3.7832031,0,6.8701172,3.0927734,6.8701172,6.8701172v228.4277344z" style="fill:#FFFFFF;stroke-width:0.5;"/>
    <path d="M57.9746094,107.9599609c0,12.2363281-9.8999023,22.1669922-22.097168,22.1669922c-12.1967773,0-22.0966797-9.9306641-22.0966797-22.1669922s9.8999023-22.1674805,22.0966797-22.1674805    c12.1972656,0,22.097168,9.9311523,22.097168,22.1674805z" style="fill:none;stroke:#201887;stroke-width:3.330775;stroke-miterlimit:10;"/>
    <path d="M106.1557617,108.434082c0,12.2368164-9.8994141,22.1674805-22.097168,22.1674805c-12.1967773,0-22.0961914-9.9306641-22.0961914-22.1674805c0-12.2363281,9.8994141-22.1669922,22.0961914-22.1669922    c12.1977539,0,22.097168,9.9306641,22.097168,22.1669922z" style="fill:none;stroke-width:3.330775;stroke-miterlimit:10;"/>
    <path d="M154.550293,108.434082c0,12.2368164-9.8984375,22.1674805-22.0957031,22.1674805c-12.1982422,0-22.0976563-9.9306641-22.0976563-22.1674805c0-12.2363281,9.8994141-22.1669922,22.0976563-22.1669922    c12.1972656,0,22.0957031,9.9306641,22.0957031,22.1669922z" style="fill:none;stroke:#E61408;stroke-width:3.330775;stroke-miterlimit:10;"/>
    <path d="M82.137207,131.7353516c0,12.2363281-9.8989258,22.1679688-22.0966797,22.1679688c-12.1972656,0-22.0961914-9.9316406-22.0961914-22.1679688c0-12.2358398,9.8989258-22.1665039,22.0961914-22.1665039    c12.1977539,0,22.0966797,9.9306641,22.0966797,22.1665039z" style="fill:none;stroke:#FBF227;stroke-width:3.330775;stroke-miterlimit:10;"/>
    <path d="M130.8911133,131.7353516c0,12.2363281-9.8994141,22.1679688-22.0966797,22.1679688s-22.0976563-9.9316406-22.0976563-22.1679688c0-12.2358398,9.9003906-22.1665039,22.0976563-22.1665039s22.0966797,9.9306641,22.0966797,22.1665039z" style="fill:none;stroke:#108D35;stroke-width:3.330775;stroke-miterlimit:10;"/>
    <path d="M56.7578125,108.105957c-0.0322266,1.449707-0.1977539,2.8999023-0.3637695,3.6523438c0.6748047,0.0444336,2.28125,1.140625,2.5229492-0.1660156c0.2416992-1.2734375,0.3706055-3.0942383,0.2993164-4.449707    c-0.105957-1.3554688-1.7607422,0.9521484-2.4584961,0.9633789z" style="fill-rule:evenodd;clip-rule:evenodd;fill:#201887;stroke:none;"/>
    <path d="M56.7578125,108.105957c-0.0322266,1.449707-0.1977539,2.8999023-0.3637695,3.6523438c0.6748047,0.0444336,2.28125,1.140625,2.5229492-0.1660156c0.2416992-1.2734375,0.3706055-3.0942383,0.2993164-4.449707    c-0.105957-1.3554688-1.7607422,0.9521484-2.4584961,0.9633789z" style="fill:none;stroke:#201887;stroke-width:0.825;stroke-miterlimit:10;"/>
    <path class="st1" d="M83.7089844,129.3564453c-1.4501953-0.0332031-2.9003906-0.1992188-3.652832-0.3652344c-0.0449219,0.6748047-1.140625,2.28125,0.1660156,2.5234375c1.2729492,0.2421875,2.3266602,0.3710938,3.6821289,0.2988281    c1.3549805-0.1054688-0.184082-1.7597656-0.1953125-2.4570313z"/>
    <path class="st2" d="M83.7089844,129.3564453c-1.4501953-0.0332031-2.9003906-0.1992188-3.652832-0.3652344c-0.0449219,0.6748047-1.140625,2.28125,0.1660156,2.5234375c1.2729492,0.2421875,2.3266602,0.3710938,3.6821289,0.2988281    c1.3549805-0.1054688-0.184082-1.7597656-0.1953125-2.4570313z"/>
    <path class="st1" d="M104.9233398,108.2255859c-0.0332031,1.449707-0.1328125,2.9331055-0.2988281,3.6850586c0.6748047,0.0444336,2.2167969,1.4033203,2.4589844,0.097168c0.2402344-1.2739258,0.3701172-2.6230469,0.2978516-3.9780273    c-0.1044922-1.3544922-1.7597656,0.1845703-2.4580078,0.1958008z"/>
    <path class="st2" d="M104.9233398,108.2255859c-0.0332031,1.449707-0.1328125,2.9331055-0.2988281,3.6850586c0.6748047,0.0444336,2.2167969,1.4033203,2.4589844,0.097168c0.2402344-1.2739258,0.3701172-2.6230469,0.2978516-3.9780273    c-0.1044922-1.3544922-1.7597656,0.1845703-2.4580078,0.1958008z"/>
    <path d="M132.4536133,129.3544922c-1.4501953-0.0332031-2.9326172-0.1347656-3.6865234-0.2998047c-0.0439453,0.6748047-1.4023438,2.2167969-0.0957031,2.4580078c1.2734375,0.2421875,2.6220703,0.3710938,3.9765625,0.2988281    c1.3554688-0.1054688-0.1835938-1.7597656-0.1943359-2.4570313z" style="fill-rule:evenodd;clip-rule:evenodd;fill:#E61408;stroke:none;"/>
    <path d="M132.4536133,129.3544922c-1.4501953-0.0332031-2.9326172-0.1347656-3.6865234-0.2998047c-0.0439453,0.6748047-1.4023438,2.2167969-0.0957031,2.4580078c1.2734375,0.2421875,2.6220703,0.3710938,3.9765625,0.2988281    c1.3554688-0.1054688-0.1835938-1.7597656-0.1943359-2.4570313z" style="fill:none;stroke:#E61408;stroke-width:0.825;stroke-miterlimit:10;"/>
   </g>
  </svg>
 </defs>
</svg>
